<svg xmlns="http://www.w3.org/2000/svg" fill="none" viewBox="0 0 60 40"><path fill="#016FD0" fill-rule="evenodd" d="M55 40H5c-2.5 0-5-2.5-5-5V5c0-2.5 2.5-5 5-5h50c2.5 0 5 2.5 5 5v30c0 2.5-2.5 5-5 5Z" clip-rule="evenodd"/><path fill="#fff" fill-rule="evenodd" d="M30.856 34.963V19.089L60 19.115v4.384l-3.369 3.49L60 30.51v4.478h-5.378l-2.859-3.057L48.926 35l-18.07-.037Z" clip-rule="evenodd"/><path fill="#016FD0" fill-rule="evenodd" d="M32.803 33.222V20.836h10.834v2.853H36.31v1.937h7.151v2.806h-7.151v1.902h7.326v2.888H32.803Z" clip-rule="evenodd"/><path fill="#016FD0" fill-rule="evenodd" d="m43.583 33.222 5.995-6.2-5.995-6.186h4.64l3.663 3.926 3.673-3.926H60v.097l-5.867 6.089L60 33.046v.176h-4.485l-3.728-3.965-3.69 3.965h-4.514Z" clip-rule="evenodd"/><path fill="#fff" fill-rule="evenodd" d="M32.215 5h7.025l2.468 5.431V5h8.673l1.495 4.07L53.377 5H60v15.873H25L32.215 5Z" clip-rule="evenodd"/><path fill="#016FD0" fill-rule="evenodd" d="M33.545 6.724 27.876 19.1h3.888l1.07-2.478h5.795L39.7 19.1h3.985L38.038 6.724h-4.493Zm.487 7.12 1.7-3.94 1.7 3.94h-3.4Z" clip-rule="evenodd"/><path fill="#016FD0" fill-rule="evenodd" d="M43.63 19.098V6.722l5.466.019 2.813 7.608 2.83-7.627H60v12.376l-3.384.03v-8.502l-3.196 8.472h-3.09l-3.26-8.5v8.5H43.63Z" clip-rule="evenodd"/></svg>