<svg viewBox="0 0 24 16" fill="none" xmlns="http://www.w3.org/2000/svg"><path fill-rule="evenodd" clip-rule="evenodd" d="M22 16H2c-1 0-2-1-2-2V2c0-1 1-2 2-2h20c1 0 2 1 2 2v12c0 1-1 2-2 2Z" fill="#212121"/><path d="m13.734 4.117-1.147 1.877H9.693A3.455 3.455 0 0 0 6.24 9.447V6.281a4.03 4.03 0 0 1 4.026-4.027h2.307l1.16 1.863Z" fill="#FF6500"/><path d="M17.76 6.567v3.167a4.03 4.03 0 0 1-4.026 4.026h-2.307l-1.146-1.877 1.146-1.877h2.88a3.434 3.434 0 0 0 3.453-3.439Z" fill="#FFA000"/><path d="M10.28 10.02v3.74a4.03 4.03 0 0 1-4.026-4.026v-.287a3.455 3.455 0 0 1 3.453-3.453h.287a.862.862 0 0 0-.86.86V9.16c0 .472.387.86.86.86h.287Z" fill="#FFB188"/><path d="M17.76 6.28v.287a3.455 3.455 0 0 1-3.453 3.453h-.287c.473 0 .86-.387.86-.86V6.855a.862.862 0 0 0-.86-.86h-.286V2.24a4.033 4.033 0 0 1 4.026 4.04Z" fill="#FFD183"/></svg>