<svg xmlns="http://www.w3.org/2000/svg" fill="none" viewBox="0 0 60 40"><path fill="#0E9347" d="M57.273 35H2.727C1.227 35 0 33.788 0 32.308V2.692C0 1.212 1.227 0 2.727 0h54.546C58.773 0 60 1.212 60 2.692v29.616C60 33.788 58.773 35 57.273 35Z"/><path fill="#3BB54A" d="M51.817 32.308H8.181c0-2.962-2.454-5.385-5.454-5.385V8.077c3 0 5.454-2.423 5.454-5.384h43.636c0 2.961 2.455 5.384 5.455 5.384v18.846c-3 0-5.455 2.423-5.455 5.385Z"/><path fill="#0E9347" d="M30 29.615c6.025 0 10.91-5.424 10.91-12.115S36.024 5.385 30 5.385 19.091 10.809 19.091 17.5s4.884 12.115 10.91 12.115ZM13.636 20.192c1.506 0 2.727-1.205 2.727-2.692s-1.221-2.692-2.727-2.692c-1.507 0-2.728 1.205-2.728 2.692s1.221 2.692 2.728 2.692ZM46.364 20.192c1.506 0 2.727-1.205 2.727-2.692s-1.22-2.692-2.727-2.692c-1.506 0-2.727 1.205-2.727 2.692s1.22 2.692 2.727 2.692Z"/><path fill="#89C763" d="M31.363 16.154h-2.727c-.819 0-1.364-.539-1.364-1.346 0-.808.546-1.346 1.364-1.346h4.09c.819 0 1.364-.539 1.364-1.346 0-.808-.545-1.347-1.363-1.347h-1.364c0-.807-.546-1.346-1.364-1.346-.818 0-1.363.539-1.363 1.346-2.318 0-4.091 1.75-4.091 4.039 0 2.288 1.773 4.038 4.09 4.038h2.728c.818 0 1.364.539 1.364 1.346 0 .808-.546 1.347-1.364 1.347h-4.09c-.819 0-1.364.538-1.364 1.346 0 .807.545 1.346 1.363 1.346h1.364c0 .807.545 1.346 1.363 1.346.819 0 1.364-.539 1.364-1.346 2.318 0 4.09-1.75 4.09-4.039 0-2.288-1.772-4.038-4.09-4.038Z"/><path fill="#FFCA5D" d="M43.304 33.727c4.034 0 7.304-3.276 7.304-7.318s-3.27-7.318-7.304-7.318C39.27 19.09 36 22.367 36 26.409s3.27 7.318 7.304 7.318Z"/><path fill="#F6B545" d="M52.695 31.636c4.034 0 7.304-3.276 7.304-7.318S56.73 17 52.695 17c-4.034 0-7.304 3.276-7.304 7.318s3.27 7.318 7.304 7.318Z"/><path fill="#FFCB5B" d="M52.695 17c-4.07 0-7.304 3.24-7.304 7.318 0 4.077 3.235 7.318 7.304 7.318 4.07 0 7.304-3.24 7.304-7.318C60 20.241 56.765 17 52.695 17Zm0 12.545c-2.922 0-5.217-2.3-5.217-5.227 0-2.927 2.295-5.227 5.217-5.227 2.922 0 5.218 2.3 5.218 5.227 0 2.927-2.296 5.227-5.218 5.227Z"/><path fill="#F6B545" d="M52.696 31.532c4.07.105 7.304-3.241 7.304-7.214h-.104c-.522 0-.94.419-1.044.941-.208 1.464-.939 2.823-1.982 3.764-.835.836-1.983 1.359-3.235 1.568a.936.936 0 0 0-.94.941Z"/><path fill="#FFE27A" d="M52.695 17.105c-4.07-.105-7.304 3.24-7.304 7.213h.104c.522 0 .94-.418 1.044-.94.208-1.464.939-2.823 1.982-3.764.835-.836 1.983-1.36 3.235-1.568.522 0 .94-.418.94-.941Z"/><path fill="#F19920" d="M48.208 25.05c0-2.927 2.296-5.227 5.218-5.227 1.252 0 2.4.418 3.338 1.254-1.043-1.254-2.4-1.986-4.069-1.986-2.922 0-5.217 2.3-5.217 5.227 0 1.673.73 3.032 1.878 3.973-.73-.837-1.148-1.987-1.148-3.241Z"/><path fill="#FFCB5B" d="M55.826 27.56c-.104 0-.209 0-.313-.105a.506.506 0 0 1 0-.732c.626-.627.94-1.568.94-2.404 0-.314.208-.523.52-.523.314 0 .523.209.523.523 0 1.15-.418 2.3-1.148 3.136-.209.105-.418.105-.522.105Z"/><path fill="#F19920" d="M52.696 27.454c-.627 0-1.044-.418-1.044-1.045v-4.182c0-.627.417-1.045 1.044-1.045.626 0 1.043.418 1.043 1.045v4.182c0 .627-.417 1.045-1.043 1.045Z"/><path fill="#F19920" d="M56.557 30.486c-.73-2.614-2.61-4.704-5.01-5.645-.416-2.405-1.982-4.496-3.964-5.75-1.252 1.359-2.087 3.136-2.087 5.122 0 4.078 3.235 7.319 7.304 7.319 1.357.104 2.609-.314 3.757-1.046Z"/><path fill="#E78825" d="M49.356 28.291c-.73-.94-1.252-2.09-1.252-3.345 0-1.464.626-2.823 1.67-3.764-.21-.314-.418-.523-.627-.732-1.043.941-1.67 2.3-1.67 3.868 0 1.673.731 3.032 1.88 3.973ZM51.652 24.945v1.464c0 .627.417 1.045 1.043 1.045.626 0 1.044-.418 1.044-1.045v-.21a8.524 8.524 0 0 0-2.087-1.254Z"/><path fill="#F6B545" d="M56.556 30.486c-.209-.732-.417-1.359-.835-1.986-.835.627-1.878 1.045-3.026 1.045-2.922 0-5.217-2.3-5.217-5.227 0-1.568.626-2.927 1.67-3.868-.522-.523-1.044-.941-1.67-1.255-1.252 1.36-2.087 3.137-2.087 5.123 0 4.077 3.235 7.318 7.304 7.318 1.461 0 2.713-.418 3.86-1.15Z"/><path fill="#F19920" d="M56.244 29.546c-.73.523-1.67.836-2.61 1.045-.52.105-.938.523-.938 1.046 1.46 0 2.713-.419 3.86-1.15l-.312-.941Z"/><path fill="#F6B545" d="M43.304 33.727c4.034 0 7.304-3.276 7.304-7.318s-3.27-7.318-7.304-7.318C39.27 19.09 36 22.367 36 26.409s3.27 7.318 7.304 7.318Z"/><path fill="#F19920" d="M42.26 31.637c0 .731.105 1.359.314 2.09h.73c4.07 0 7.304-3.24 7.304-7.318 0-.732-.104-1.359-.313-2.09h-.73c-4.07 0-7.304 3.24-7.304 7.318Z"/><path fill="#FFCB5B" d="M43.304 19.09c-4.07 0-7.304 3.242-7.304 7.319s3.235 7.318 7.304 7.318c4.07 0 7.304-3.24 7.304-7.318 0-4.077-3.234-7.318-7.304-7.318Zm0 12.546c-2.921 0-5.217-2.3-5.217-5.227 0-2.927 2.296-5.227 5.217-5.227 2.922 0 5.218 2.3 5.218 5.227 0 2.927-2.296 5.227-5.218 5.227Z"/><path fill="#F6B545" d="M43.304 33.623c4.07.104 7.304-3.241 7.304-7.214h-.104c-.522 0-.94.418-1.044.941-.208 1.464-.939 2.823-1.982 3.764-.835.836-1.983 1.359-3.235 1.568a.936.936 0 0 0-.939.94Z"/><path fill="#FFE27A" d="M43.304 19.195C39.234 19.091 36 22.436 36 26.41h.104c.522 0 .94-.418 1.044-.94.208-1.465.939-2.824 1.982-3.764.835-.837 1.983-1.36 3.235-1.569.522 0 .94-.418.94-.94Z"/><path fill="#F19920" d="M38.817 27.14c0-2.927 2.296-5.227 5.218-5.227 1.252 0 2.4.419 3.339 1.255-1.044-1.255-2.4-1.986-4.07-1.986-2.922 0-5.217 2.3-5.217 5.227 0 1.673.73 3.032 1.878 3.973-.73-.837-1.148-1.987-1.148-3.241Z"/><path fill="#FFCB5B" d="M46.435 29.65c-.104 0-.209 0-.313-.104a.506.506 0 0 1 0-.732c.626-.627.94-1.568.94-2.405 0-.313.208-.522.52-.522.314 0 .523.209.523.522 0 1.15-.418 2.3-1.148 3.137-.209.104-.418.104-.522.104Z"/><path fill="#F19920" d="M43.304 29.546c-.626 0-1.044-.418-1.044-1.045v-4.182c0-.627.418-1.046 1.044-1.046.626 0 1.043.419 1.043 1.046V28.5c0 .627-.417 1.045-1.043 1.045Z"/><path fill="#F6B545" d="M48.105 24.422c.209.627.418 1.255.418 1.986 0 2.928-2.296 5.228-5.218 5.228-.313 0-.73 0-1.043-.105v.105c0 .731.104 1.359.313 2.09h.73c4.07 0 7.304-3.24 7.304-7.318 0-.732-.104-1.359-.313-2.09h-.73c-.522 0-.94 0-1.461.104Z"/><path fill="#F6B545" d="M48.521 40c4.034 0 7.305-3.277 7.305-7.319 0-4.041-3.27-7.318-7.305-7.318-4.034 0-7.304 3.277-7.304 7.318 0 4.042 3.27 7.318 7.304 7.318Z"/><path fill="#FFCB5B" d="M48.521 25.363c-4.07 0-7.304 3.241-7.304 7.319 0 4.077 3.235 7.318 7.304 7.318 4.07 0 7.305-3.241 7.305-7.319 0-4.077-3.235-7.318-7.305-7.318Zm0 12.546c-2.921 0-5.217-2.3-5.217-5.227 0-2.928 2.296-5.228 5.217-5.228 2.922 0 5.218 2.3 5.218 5.227 0 2.928-2.296 5.228-5.218 5.228Z"/><path fill="#F6B545" d="M48.521 39.895c4.07.105 7.304-3.24 7.304-7.213h-.104c-.522 0-.939.418-1.043.94-.209 1.464-.94 2.823-1.983 3.764-.835.836-1.982 1.36-3.235 1.568a.936.936 0 0 0-.939.941Z"/><path fill="#FFE27A" d="M48.521 25.468c-4.07-.104-7.304 3.241-7.304 7.214h.104c.522 0 .94-.418 1.044-.941.209-1.464.939-2.823 1.982-3.764.835-.836 1.983-1.359 3.235-1.568.522 0 .94-.418.94-.94Z"/><path fill="#F19920" d="M44.034 33.413c0-2.927 2.296-5.227 5.218-5.227 1.252 0 2.4.418 3.339 1.254-1.044-1.254-2.4-1.986-4.07-1.986-2.921 0-5.217 2.3-5.217 5.227 0 1.673.73 3.032 1.878 3.973-.73-.836-1.148-1.986-1.148-3.24Z"/><path fill="#FFCB5B" d="M51.651 35.923c-.104 0-.209 0-.313-.105a.506.506 0 0 1 0-.731c.626-.628.94-1.569.94-2.405 0-.314.208-.523.521-.523.313 0 .522.21.522.523 0 1.15-.418 2.3-1.148 3.136-.209.105-.417.105-.522.105Z"/><path fill="#F19920" d="M48.521 35.819c-.626 0-1.043-.419-1.043-1.046v-4.182c0-.627.417-1.045 1.043-1.045.626 0 1.044.418 1.044 1.045v4.182c0 .627-.418 1.046-1.044 1.046Z"/></svg>