<svg xmlns="http://www.w3.org/2000/svg" fill="none" viewBox="0 0 60 40"><path fill="#FFCD34" d="M55.78 0H4.22C1.889 0 0 1.948 0 4.352v31.296C0 38.052 1.889 40 4.219 40H55.78c2.33 0 4.218-1.948 4.218-4.352V4.352C60 1.948 58.111 0 55.781 0Z"/><path fill="#E69012" d="M55.78 0h-3.776c2.33 0 4.22 1.948 4.22 4.352v31.296c0 2.404-1.89 4.352-4.22 4.352h3.777c2.33 0 4.218-1.948 4.218-4.352V4.352C60 1.948 58.111 0 55.781 0Z"/><path fill="#4B5563" d="M0 9.833h60v7.518H0V9.833Z"/><path fill="#111827" d="M56.223 9.833H60v7.518h-3.776V9.833Z"/><path fill="#fff" d="M45.253 29.364v4.637c0 .36.282.65.63.65h7.15a.64.64 0 0 0 .63-.65v-4.637a.64.64 0 0 0-.63-.65h-7.15a.64.64 0 0 0-.63.65ZM23.693 29.364v4.637c0 .36.282.65.63.65h15.124a.64.64 0 0 0 .63-.65v-4.637a.64.64 0 0 0-.63-.65H24.322a.64.64 0 0 0-.63.65Z"/><path fill="#1F2937" d="M13.687 33.206H6.15c-.633 0-1.145-.529-1.145-1.181 0-.653.512-1.182 1.145-1.182h7.536c.633 0 1.145.529 1.145 1.182 0 .652-.512 1.181-1.145 1.181Z"/></svg>