<svg xmlns="http://www.w3.org/2000/svg" fill="none" viewBox="0 0 60 40"><path fill="#fff" fill-rule="evenodd" d="M55 40H5c-2.5 0-5-2.5-5-5V5c0-2.5 2.5-5 5-5h50c2.5 0 5 2.5 5 5v30c0 2.5-2.5 5-5 5Z" clip-rule="evenodd"/><path stroke="#069" stroke-opacity=".3" d="M55 39.5H5c-1.087 0-2.217-.549-3.084-1.416C1.05 37.217.5 36.087.5 35V5c0-1.087.549-2.217 1.416-3.084C2.783 1.049 3.913.5 5 .5h50c1.087 0 2.217.549 3.084 1.416C58.95 2.783 59.5 3.913 59.5 5v30c0 1.087-.549 2.217-1.416 3.084-.867.867-1.997 1.416-3.084 1.416Z"/><path fill="#069" d="M33.19 35c8.118 0 15.56-6.72 15.56-14.903C48.75 11.137 41.308 5 33.19 5h-6.96c-8.215 0-14.98 6.234-14.98 15.097C11.25 28.28 18.015 35 26.23 35h6.96Z"/><path fill="#fff" d="M29.323 28.084V11.819c3.19 1.267 5.51 4.383 5.51 8.085 0 3.701-2.224 6.915-5.51 8.181ZM17.63 20c0-3.604 2.223-6.818 5.509-8.084v16.266c-3.383-1.364-5.51-4.578-5.51-8.182ZM26.23 6.266c-7.538 0-13.627 6.137-13.627 13.734 0 7.598 6.089 13.734 13.627 13.734 7.539 0 13.628-6.137 13.628-13.734S33.769 6.266 26.23 6.266Z"/></svg>