<svg xmlns="http://www.w3.org/2000/svg" fill="none" viewBox="0 0 60 40"><rect width="60" height="40" x="1" y="1" fill="#fff" stroke="#000" stroke-opacity=".3" rx="5"/><path fill="#F27712" d="M33 41h23.076a5.053 5.053 0 0 0 3.465-1.317c.923-.853 1.448-2.017 1.459-3.234V31c-8.714 4.7-18.164 8.075-28 10Z"/><path fill="#000" d="M58.931 24.867h-2.095l-2.36-3.086h-.224v3.086h-1.71v-7.665h2.523c1.974 0 3.113.807 3.113 2.259 0 1.19-.712 1.957-1.993 2.199l2.746 3.207Zm-2.523-5.345c0-.747-.57-1.13-1.627-1.13h-.53v2.32h.489c1.099 0 1.668-.404 1.668-1.19Zm-9.847-2.32h4.842v1.29H48.27v1.715h3.011v1.312h-3.01v2.077h3.132v1.291h-4.842v-7.685Zm-5.493 7.867-3.703-7.887h1.872l2.34 5.164 2.36-5.164h1.83l-3.742 7.887H41.069Zm-15.482-.02c-2.604 0-4.639-1.755-4.639-4.035 0-2.219 2.075-4.014 4.68-4.014.732 0 1.342.141 2.095.464v1.775a3.066 3.066 0 0 0-2.136-.867c-1.628 0-2.869 1.17-2.869 2.642 0 1.554 1.22 2.663 2.95 2.663.773 0 1.363-.242 2.055-.847v1.775c-.773.323-1.424.444-2.136.444Zm-5.168-2.522c0 1.493-1.24 2.522-3.031 2.522-1.302 0-2.238-.444-3.032-1.453l1.12-.948c.386.686 1.037 1.03 1.85 1.03.774 0 1.323-.465 1.323-1.07 0-.343-.163-.605-.508-.807a7.128 7.128 0 0 0-1.18-.444c-1.608-.504-2.157-1.049-2.157-2.118 0-1.25 1.18-2.199 2.726-2.199.977 0 1.852.303 2.584.868l-.895 1.008a1.879 1.879 0 0 0-1.384-.605c-.732 0-1.26.363-1.26.847 0 .404.304.626 1.321.969 1.954.605 2.523 1.17 2.523 2.42v-.02Zm-8.402-5.325h1.709v7.685h-1.71v-7.685Zm-5.493 7.685H4v-7.685h2.523c2.767 0 4.68 1.573 4.68 3.832 0 1.15-.57 2.24-1.567 2.966-.855.605-1.811.887-3.134.887h.02Zm1.994-5.769c-.57-.444-1.221-.605-2.34-.605h-.468v5.083h.468c1.099 0 1.79-.201 2.34-.605a2.55 2.55 0 0 0 .935-1.956 2.44 2.44 0 0 0-.935-1.917Z"/><path fill="#F27712" d="M32.483 17c-2.238 0-4.07 1.775-4.07 3.974 0 2.34 1.75 4.095 4.07 4.095 2.278 0 4.069-1.775 4.069-4.034 0-2.26-1.77-4.035-4.07-4.035Z"/></svg>