<svg xmlns="http://www.w3.org/2000/svg" fill="none" viewBox="0 0 60 40"><path fill="#000" fill-rule="evenodd" d="M55 40H5c-2.5 0-5-2.5-5-5V5c0-2.5 2.5-5 5-5h50c2.5 0 5 2.5 5 5v30c0 2.5-2.5 5-5 5Z" clip-rule="evenodd"/><path fill="#FFCB05" d="M14.859 15.754a4.924 4.924 0 0 1 1.572-.255c2.4 0 4.403 1.719 4.861 4.003l3.402-.7c-.78-3.88-4.183-6.802-8.263-6.802-.936 0-1.832.153-2.673.437l1.1 3.317Z"/><path fill="#00A4E0" d="m10.845 26.869 2.3-2.622a5.012 5.012 0 0 1-1.673-3.748c0-1.49.648-2.828 1.674-3.743l-2.301-2.624A8.519 8.519 0 0 0 8 20.499a8.52 8.52 0 0 0 2.845 6.37Z"/><path fill="#EF4123" d="M21.292 21.502c-.46 2.283-2.461 4-4.859 4-.55 0-1.081-.09-1.574-.258l-1.101 3.321c.84.282 1.74.435 2.675.435 4.076 0 7.477-2.917 8.261-6.794l-3.402-.704Z"/><path fill="#fff" d="M27.67 24.356a6.068 6.068 0 0 1-.355-.689 5.088 5.088 0 0 1-.11-3.818c.5-1.375 1.455-2.425 2.69-2.962 1.553-.673 3.268-.542 4.756.348.945.547 1.614 1.39 2.123 2.585.064.153.12.315.178.455l-9.283 4.08Zm3.1-5.442c-1.104.477-1.672 1.52-1.553 2.742l4.668-2.027c-.804-.95-1.847-1.266-3.115-.715Zm3.696 4.41c-.002 0-.002.002-.002.002l-.097-.067c-.28.455-.713.826-1.261 1.066-1.044.457-2.01.34-2.706-.276l-.064.098s0-.002-.002-.002l-1.185 1.787c.295.207.61.38.94.52 1.308.548 2.647.521 3.966-.056.953-.417 1.702-1.052 2.212-1.858l-1.8-1.215ZM40.194 14.258v9.933l1.533.626-.87 2.047-1.691-.71a1.916 1.916 0 0 1-.832-.706c-.188-.29-.326-.693-.326-1.23v-9.96h2.186ZM44.162 21.662c0-.846.372-1.605.958-2.12l-1.572-1.767a5.188 5.188 0 0 0-1.737 3.883 5.19 5.19 0 0 0 1.732 3.887l1.57-1.767a2.818 2.818 0 0 1-.95-2.116ZM46.954 24.48c-.308 0-.608-.054-.885-.147l-.751 2.25a5.093 5.093 0 0 0 1.634.268c2.488.002 4.564-1.779 5.046-4.143l-2.307-.475a2.796 2.796 0 0 1-2.737 2.247ZM46.96 16.473a5.15 5.15 0 0 0-1.631.265l.744 2.25c.28-.092.577-.143.885-.143 1.352.002 2.48.97 2.735 2.258L52 20.632c-.473-2.37-2.55-4.156-5.04-4.159Z"/></svg>