<svg xmlns="http://www.w3.org/2000/svg" fill="none" viewBox="0 0 60 40"><rect width="60" height="40" fill="#164194" rx="5"/><path fill="#fff" d="M49.493 13.973c-.137-.004-.424-.014-.77.113-.123.503-1.391 5.64-1.889 7.351-.968-5.708-.74-7.422-2.48-7.465-.467-.01-.512.074-.77.114-.507 1.99-1.372 5.398-1.89 7.351-.989-6.67-1.108-7.468-2.905-7.468-.334 0-.245.03-.454.044-.714 1.441-1.552 2.616-2.475 3.576-.084.06-.173.12-.26.18a91.927 91.927 0 0 1-.763-2.554c-.15-.533-.39-1.251-1.909-1.251-.332 0-.711.005-.711.005-.288 1.347-.685 3.394-1.778 6.184a16.2 16.2 0 0 1-3.456.526 78.463 78.463 0 0 1-.143-4.813c0-3.355.876-4.73 2.862-4.97 1.661-.203 2.67.78 2.964.994.25-.43.444-1.144.03-1.83-.082-.136-.82-1.239-3.263-1.035-2.039.17-4.531 1.38-4.531 7.061 0 1.335.038 2.864.142 4.566a16.318 16.318 0 0 1-2.21-.315c-.323-1.247-.678-2.868-1.056-5.005-.093-.521-.358-1.42-1.817-1.42-.318 0-.764.005-.764.005-.526 1.615-1.014 3.074-1.528 4.346l-.065-.039a16.78 16.78 0 0 1-1.425-.993 1.983 1.983 0 0 0-.193.853 2 2 0 0 0 .995 1.728l-.048.01.035.02c-.613 1.227-1.293 2.201-2.127 2.868a4.866 4.866 0 0 1-2.943.988 4.897 4.897 0 1 1 0-9.793l.122.003c.06.001.122.004.18.007.07.006.137.01.205.017.08.008.16.02.241.03l.113.02c.106.018.214.041.318.067l.072.018c.118.031.232.067.346.107l.026.007c.504.18.97.439 1.382.763.175-.272.276-.596.276-.942 0-.282-.066-.548-.185-.783-.06-.118-.283-.478-.79-.743a4.022 4.022 0 0 0-.515-.227A6.793 6.793 0 0 0 5 18.773a6.795 6.795 0 0 0 6.794 6.795c1.44 0 2.772-.45 3.87-1.214l.004.007c1.107-.779 2.108-1.954 2.933-3.651a17.58 17.58 0 0 0 2.371.91c.474 2.058 1.103 3.683 2.167 3.682.738-.001 1.44-.576 1.44-.576-.242-.396-.659-.93-1.206-2.55.59.094 1.19.16 1.796.197.214 2.583.49 4.584 1.102 7.77.483.07 1.693-.571 1.693-1.912 0-.487-.495-1.756-.854-5.847.854-.039 1.69-.135 2.51-.29-.39.85-.837 1.76-1.362 2.724 0 0 .395.535 1.147.404.79-.136 1.548-1.275 2.351-3.67a18.034 18.034 0 0 0 2.524-1.02c.798 2.567 1.722 4.808 3.022 4.807.765 0 1.432-.58 1.432-.58-.408-.56-1.208-1.402-2.536-5.192.923-.78 1.777-1.72 2.529-2.85 1.048 4.175.89 8.384 2.598 8.693.22.04.719.012 1.105-.148.058-.954 1.634-7.542 1.634-7.542.889 2.607.63 7.686 2.46 7.686.843 0 1.048-.144 1.048-.144.026-.685 1.224-5.943 1.633-7.566.84 2.587 1.63 7.71 3.471 7.71.636 0 1.213-.198 1.62-.56-3.493-4.101-2.18-10.873-4.803-10.873ZM19.53 19.255l-.224-.105-.046-.021c.282-.788.533-1.66.748-2.627.195.984.376 2.092.574 3.183a16.828 16.828 0 0 1-1.052-.43Zm12.839.26c.239-.88.484-1.867.736-2.973.224.732.447 1.524.68 2.325-.46.238-.934.453-1.416.648Z"/></svg>