<svg xmlns="http://www.w3.org/2000/svg" fill="none" viewBox="0 0 60 40"><g clip-path="url(#a)"><path fill="#fff" d="M0 5a5 5 0 0 1 5-5h50a5 5 0 0 1 5 5v30a5 5 0 0 1-5 5H5a5 5 0 0 1-5-5V5Z"/><path stroke="#EFDF2B" stroke-opacity=".3" d="M55 40H5c-2.5 0-5-2.5-5-5V5c0-2.5 2.5-5 5-5h50c2.5 0 5 2.5 5 5v30c0 2.5-2.5 5-5 5Z" clip-rule="evenodd"/><path fill="#EFDF2B" d="M53.375 18.672v-.157h.063c.031 0 .062 0 .093.032.032 0 .032.03.032.062 0 .031 0 .031-.032.063 0 0-.062.03-.093.03h-.063v-.03Z"/><path fill="#EFDF2B" d="M53.375 18.484v.157h.063c.031 0 .093 0 .093-.032.032 0 .032-.03.032-.062 0-.031 0-.031-.032-.063 0 0-.03-.03-.093-.03h-.063v.03Zm.313.344.093.188h-.187a1.005 1.005 0 0 0-.125-.22c-.031-.03-.031-.03-.063-.03h-.03v.25h-.157v-.625h.281c.063 0 .125 0 .188.062.031.031.062.063.062.125 0 .031 0 .094-.031.125s-.063.063-.125.063c.031 0 .031.03.063.03l.03.032Z"/><path fill="#EFDF2B" d="m53.781 19.015-.093-.187a.067.067 0 0 0-.063-.063s-.031 0-.063-.03c.063 0 .094-.032.126-.063.03-.032.03-.063.03-.125 0-.063-.03-.094-.062-.125-.031-.032-.093-.063-.187-.063h-.282v.625h.157v-.25h.031c.031 0 .031 0 .063.031.03.032.062.094.124.22h.22v.03Zm.063-.656a.47.47 0 0 1 .125.344.47.47 0 0 1-.125.344.502.502 0 0 1-.344.156.501.501 0 0 1-.344-.156.47.47 0 0 1-.125-.344.47.47 0 0 1 .125-.344.502.502 0 0 1 .344-.156c.125.031.25.062.344.156Z"/><path fill="#EFDF2B" d="M53.968 18.703a.47.47 0 0 0-.125-.344.502.502 0 0 0-.343-.156.502.502 0 0 0-.344.156.47.47 0 0 0-.125.344c0 .125.031.25.125.344a.502.502 0 0 0 .344.156c.125 0 .25-.063.343-.156a.47.47 0 0 0 .125-.344Zm-.187-.5a.73.73 0 0 1 .219.219c.062.093.062.187.062.312a.747.747 0 0 1-.062.281.73.73 0 0 1-.219.22c-.094.062-.188.062-.281.062-.094 0-.219-.032-.313-.063a.73.73 0 0 1-.218-.219.504.504 0 0 1-.094-.28c0-.095.031-.22.093-.313a.73.73 0 0 1 .22-.22.528.528 0 0 1 .312-.093c.093 0 .218.031.281.094Zm-2.438 1.937c.032.188.063.344.063.532 0 .187-.031.343-.063.5a1.804 1.804 0 0 1-.156.437.684.684 0 0 1-.312.281 1.035 1.035 0 0 1-.469.125c-.188 0-.344-.03-.469-.093s-.218-.188-.312-.282a1.81 1.81 0 0 1-.157-.437c-.03-.156-.03-.344-.03-.5 0-.188 0-.344.03-.531a1.81 1.81 0 0 1 .157-.438.684.684 0 0 1 .312-.281c.125-.063.282-.125.469-.125.188 0 .344.031.469.125.125.062.218.187.312.281.094.094.125.25.157.406Z"/><path fill="#EFDF2B" d="M50.407 23.203c-.375 0-.72-.063-1.032-.188a2.238 2.238 0 0 1-.781-.5c-.219-.218-.375-.5-.5-.78a2.752 2.752 0 0 1-.188-1.032c0-.375.063-.719.188-1.063.031-.093.063-.156.094-.218.093-.22.25-.407.406-.594.219-.219.469-.406.781-.531a2.753 2.753 0 0 1 1.032-.188c.375 0 .718.063 1.03.188.313.125.563.28.813.53.219.22.375.5.5.813.125.313.188.657.188 1.063 0 .375-.063.719-.188 1.031-.125.313-.281.594-.5.813-.218.218-.5.406-.812.5a3.566 3.566 0 0 1-1.032.156Zm0-3.906c-.188 0-.344.03-.47.125-.124.062-.218.187-.312.28-.062.126-.125.25-.156.438s-.031.344-.031.532c0 .187 0 .343.031.5.031.156.094.312.156.437a.887.887 0 0 0 .313.281c.125.063.281.094.468.094.188 0 .344-.031.47-.125a.886.886 0 0 0 .312-.281 1.81 1.81 0 0 0 .156-.438 2.74 2.74 0 0 0 .063-.5c0-.187-.032-.343-.063-.53a1.81 1.81 0 0 0-.156-.438.684.684 0 0 0-.313-.282c-.125-.03-.281-.093-.468-.093Z"/><path fill="#EFDF2B" d="M47.062 21.86c-.063 0-.094-.032-.094-.063 0 0-.031-.031-.062-.094 0-.062-.032-.125-.032-.25v-2.125h.875l.407.063c-.032.062-.063.156-.094.218a2.803 2.803 0 0 0-.188 1.063c0 .375.063.719.188 1.031l-.281.125h-.032l-.093.031c-.063 0-.125.032-.157.032h-.187c-.125 0-.188 0-.25-.032Z"/><path fill="#EFDF2B" d="M47.344 23.11h-.375c-.219 0-.406 0-.594-.032a1.383 1.383 0 0 1-.5-.187 1.079 1.079 0 0 1-.375-.375c-.093-.156-.125-.375-.125-.625v-2.563h-.718c-.063 0-.032-.062-.032-.062v-1s0-.031.063-.031h.718v-1.313s0-.062.063-.062h1.406c.063 0 .063.062.063.062v1.313h.875c.062 0 .062.062.062.062v.969c0 .062-.062.062-.062.062h-.938v2.157c0 .093 0 .187.032.25 0 .062.03.093.062.093 0 0 .031.032.094.063.062.031.156.031.25.031h.187c.063 0 .125 0 .157-.031l.093-.031h.032v1.156c0 .062-.032.062-.032.062h-.062c-.094.032-.219.032-.344.032Zm-3.313-.094s0 .062-.062.062h-1.313a.067.067 0 0 1-.062-.062l-.281-4.75s0-.031.062-.031h1.844c.063 0 .063.062.063.062l-.25 4.719Zm-.718.312a.907.907 0 1 1-.002 1.814.907.907 0 0 1 .002-1.814Z"/><path fill="#EFDF2B" d="M42.626 23.047h-.407l-1.75-2.531 1.594-2.25h.281l.282 4.78c0-.03 0-.03 0 0Z"/><path fill="#EFDF2B" d="M38.656 23.078h-1.593c-.063 0-.032-.03-.032-.03l1.72-2.5-1.47-2.126-.125-.156s-.03-.031.032-.031h1.656c.062 0 .062.03.062.03l.72 1.063.718-1.062s.031-.031.062-.031H42c.063 0 .031.03.031.03l-1.593 2.25 1.75 2.532s0 .031-.032.031h-1.625c-.062 0-.093-.062-.093-.062l-.875-1.313-.875 1.313c.062 0 .03.062-.032.062Zm-3.093-5.25h-.844c-.063 0 0-.062 0-.062l.719-.875s.03-.031.093-.031h1.344c.063 0 0 .03 0 .03l-1.187.907s-.063.031-.125.031Z"/><path fill="#EFDF2B" d="M43.312 23.328a.907.907 0 1 0 .002 1.814.907.907 0 0 0-.002-1.814Zm2.188-.781c.093.156.218.281.375.375.156.094.312.156.5.187.187.032.375.032.593.032h.375c.125 0 .25-.032.375-.032h.063s.031 0 .031-.062V21.89l.282-.125c.124.312.28.562.5.78.218.22.468.407.78.5.313.126.657.188 1.032.188s.719-.062 1.031-.187c.313-.125.563-.281.813-.5.218-.219.375-.5.5-.813.125-.312.187-.656.187-1.03 0-.376-.062-.72-.187-1.063-.125-.313-.282-.594-.5-.813a2.445 2.445 0 0 0-.813-.531 2.753 2.753 0 0 0-1.031-.188c-.375 0-.719.063-1.031.188a1.936 1.936 0 0 0-.782.531 2.002 2.002 0 0 0-.406.594l-.406-.063s.063 0 .063-.062v-.969s0-.062-.063-.062h-.906v-1.313s0-.062-.063-.062h-1.406c-.063 0-.063.062-.063.062v1.313h-.718c-.063 0-.063.03-.063.03v1s0 .063.032.063h.718v2.594c.063.219.094.406.188.594Zm-6.75-2-1.719 2.5s-.031.031.031.031h1.594c.063 0 .094-.062.094-.062l.875-1.313.875 1.313s.031.062.093.062h1.625c.032 0 .032-.031.032-.031h.406s0 .062.063.062h1.312c.063 0 .063-.062.063-.062l.28-4.75s0-.063-.062-.063H42.47c-.063 0-.063.032-.063.032h-.281s0-.032-.032-.032H40.5c-.032 0-.063.032-.063.032l-.718 1.062-.72-1.062s-.03-.032-.062-.032h-1.75c-.031 0-.031.032-.031.032l.125.156 1.469 2.125Zm-4-2.719h.843a.137.137 0 0 0 .094-.031l1.188-.906s.031-.032 0-.032H35.53c-.063 0-.094.032-.094.032l-.718.875s-.032.062.03.062Zm1.562.531a2.317 2.317 0 0 0-1.062-.25c-.375 0-.688.063-1 .188a2.31 2.31 0 0 0-.782.531c-.218.219-.375.5-.5.813a2.707 2.707 0 0 0-.187 1c0 .375.063.718.188 1.03.124.313.28.595.5.813.218.22.468.407.78.532.313.125.657.187 1.032.187.531 0 1-.125 1.406-.375.188-.125.375-.281.5-.5.125-.219.25-.437.344-.75l.031-.094s0-.03-.031-.03h-1.25c-.063 0-.063.03-.063.03v.032a.172.172 0 0 1-.093.156c-.063.062-.125.125-.219.187-.156.125-.375.157-.594.157-.156 0-.312-.032-.437-.063a.647.647 0 0 1-.313-.187.647.647 0 0 1-.187-.313 1.164 1.164 0 0 1-.063-.375h3.25c.063 0 .063-.062.063-.062V20.734c0-.28-.032-.562-.094-.812-.094-.344-.219-.656-.438-.906a2.253 2.253 0 0 0-.78-.657Zm6.532-9.593c6.53 0 11.843 5.312 11.843 11.843 0 6.532-5.312 11.844-11.843 11.844C36.311 32.453 31 27.141 31 20.61c0-6.53 5.312-11.843 11.843-11.843ZM54 18.422a.73.73 0 0 0-.219-.219.504.504 0 0 0-.281-.094.603.603 0 0 0-.313.094.73.73 0 0 0-.218.219.528.528 0 0 0-.094.312c0 .094.031.22.093.282a.73.73 0 0 0 .22.218c.093.063.187.063.312.063a.747.747 0 0 0 .281-.063.73.73 0 0 0 .219-.218c.062-.094.062-.188.062-.282.032-.125 0-.25-.062-.312Z"/><path fill="#EFDF2B" d="M34.75 19.39a.907.907 0 0 1 .438-.093c.156 0 .281.03.375.062a.68.68 0 0 1 .25.156.943.943 0 0 1 .25.563H34.25c0-.063.032-.094.032-.156a.638.638 0 0 1 .156-.282.794.794 0 0 1 .312-.25Z"/><path fill="#EFDF2B" d="M35.594 19.36a1.168 1.168 0 0 0-.375-.063c-.188 0-.344.03-.438.093a.681.681 0 0 0-.281.22c-.063.093-.125.187-.156.28-.032.063-.032.125-.032.157h1.813a1.582 1.582 0 0 0-.25-.563c-.125-.031-.188-.094-.281-.125Zm-.344-1.25c.406 0 .75.062 1.063.25.312.155.562.374.75.655.187.282.343.563.437.907.063.25.094.53.094.812v.281s0 .063-.063.063h-3.25c0 .156.032.281.063.375.031.125.125.25.187.312.094.063.188.157.313.188s.281.062.437.062c.25 0 .438-.062.594-.156.094-.062.156-.125.219-.187a.685.685 0 0 1 .093-.157v-.03s0-.032.063-.032h1.25c.063 0 .031.031.031.031l-.031.094a4.177 4.177 0 0 1-.344.75 1.529 1.529 0 0 1-.5.5c-.375.25-.843.375-1.406.375-.375 0-.719-.063-1.031-.188a1.935 1.935 0 0 1-.782-.53c-.218-.22-.374-.5-.5-.813a2.752 2.752 0 0 1-.187-1.032c0-.343.063-.687.188-1 .124-.312.28-.593.5-.812.218-.219.468-.406.78-.531a2.873 2.873 0 0 1 1.032-.188Z"/><path fill="#000" d="M26.375 22.36c1.031 0 1.437-.626 1.437-1.063v-.781c-.312.218-.875.218-1.406.312-.5.094-.938.281-.938.844 0 .531.438.687.907.687Zm-1.625-.032a1.665 1.665 0 0 1-.125-.594c0-1.062.781-1.28 1.593-1.468.875-.157 1.594-.094 1.594-.688 0-.687-.562-.781-1.062-.781-.657 0-1.125.187-1.188.875h-.781c0-.219.031-.406.125-.594.281-.719 1.031-1 1.875-1 .844 0 1.781.188 1.781 1.281v2.47c0 .374 0 .53.25.53.063 0 .125 0 .25-.03v.593c-.125.094-.312.125-.562.125-.407 0-.657-.219-.657-.719-.437.5-1 .719-1.656.719-.656 0-1.187-.219-1.437-.719Zm-.5 0v.625h-.594c-.813 0-1.125-.156-1.125-1.031v-3h-.813v-.688h.813v-1.406h.781v1.406h.938v.688h-.938v2.906c0 .344.094.438.594.438h.344v.062Zm-6.125-1.5c-.032.813.437 1.563 1.468 1.563.657 0 1.094-.313 1.22-.938h.75c-.22 1.031-.97 1.594-2.032 1.594-1.5 0-2.219-1.031-2.25-2.469 0-1.406.938-2.469 2.219-2.469 1.687 0 2.187 1.563 2.125 2.688h-3.5v.031Zm1.343-2.031c-.812 0-1.28.625-1.343 1.344h2.718c-.062-.75-.625-1.344-1.375-1.344Zm-2.906-2.375h-.781v.937h.781v-.937Zm0 1.812v5.313c0 .844-.437 1.219-1.125 1.219-.125 0-.25 0-.406-.032v-.656h.313c.343 0 .437-.156.437-.656v-5.188h.781Zm-1.187-.125v.813c-1.25 0-1.719.719-1.719 1.906v2.094h-.781v-4.688h.719v1h.03c.407-.78.907-1.156 1.75-1.125Zm-5.656 4.25c1.03 0 1.437-.625 1.437-1.062v-.781c-.313.218-.875.218-1.406.312-.5.094-.938.281-.938.844 0 .531.438.687.907.687Zm2.218-.53c0 .374 0 .53.25.53.063 0 .125 0 .219-.03v.593c-.125.094-.313.125-.563.125-.406 0-.656-.219-.656-.719-.437.5-1 .719-1.656.719-.656 0-1.187-.219-1.437-.719a1.665 1.665 0 0 1-.125-.594c0-1.062.78-1.28 1.593-1.468.875-.157 1.594-.094 1.594-.688 0-.687-.563-.781-1.063-.781-.656 0-1.124.187-1.187.875h-.781c0-.219.031-.406.125-.594.281-.719 1.031-1 1.875-1 .844 0 1.781.188 1.781 1.281v2.47h.031Zm-4.343.5v.624H7c-.813 0-1.125-.156-1.125-1.031v-3h-.813v-.688h.813v-1.406h.781v1.406h.938v.688h-.938v2.906c0 .344.094.438.594.438h.344v.062Z"/><path fill="#EFDF2B" d="M53.375 18.484h.063c.031 0 .062 0 .093.032.032 0 .032.03.032.062 0 .031 0 .031-.032.063 0 0-.062.03-.093.03h-.063v-.187Z"/><path fill="#211C1E" d="M53.375 18.672h.063c.031 0 .093 0 .093-.031.032 0 .032-.032.032-.063s0-.031-.032-.062c0 0-.03-.032-.093-.032h-.063v.188Zm0 .094v.25h-.156v-.625h.281c.063 0 .125 0 .188.062.031.031.062.063.062.125 0 .031 0 .094-.031.125s-.063.063-.125.063c.031 0 .031.03.063.03.03 0 .03.032.062.063l.094.188h-.188c-.062-.125-.093-.188-.125-.219-.062-.031-.062-.062-.125-.062.032 0 .032 0 0 0Z"/><path fill="#EFDF2B" d="M53.375 19.015v-.25h.031c.032 0 .032 0 .063.032.031.03.062.093.125.218h.187l-.093-.187a.067.067 0 0 0-.063-.063s-.031 0-.063-.03c.063 0 .094-.032.126-.063.03-.032.03-.063.03-.125 0-.063-.03-.094-.062-.125-.031-.032-.093-.063-.187-.063h-.282v.625h.188v.031Zm-.219-.656a.502.502 0 0 1 .344-.156c.125 0 .25.062.344.156a.47.47 0 0 1 .125.344.47.47 0 0 1-.125.344.502.502 0 0 1-.344.156.501.501 0 0 1-.344-.156.47.47 0 0 1-.125-.344.47.47 0 0 1 .125-.344Z"/><path fill="#211C1E" d="M53.156 19.047a.502.502 0 0 0 .344.156c.125 0 .25-.063.343-.156a.47.47 0 0 0 .125-.344.47.47 0 0 0-.125-.344.502.502 0 0 0-.343-.156.502.502 0 0 0-.344.156.47.47 0 0 0-.125.344c0 .125.031.25.125.344Zm.031.187a.73.73 0 0 1-.218-.219.504.504 0 0 1-.094-.28c0-.095.031-.22.093-.313a.73.73 0 0 1 .22-.22.528.528 0 0 1 .312-.093c.093 0 .218.031.281.094a.73.73 0 0 1 .219.219c.062.093.062.187.062.312a.747.747 0 0 1-.062.281.73.73 0 0 1-.219.22c-.094.062-.188.062-.281.062-.094 0-.188-.032-.313-.063Z"/><path fill="#EFDF2B" d="M51.343 20.14c.032.188.063.344.063.532 0 .187-.031.344-.063.5a1.806 1.806 0 0 1-.156.437.684.684 0 0 1-.312.282 1.035 1.035 0 0 1-.469.125c-.188 0-.344-.032-.469-.094-.125-.063-.218-.188-.312-.281a1.808 1.808 0 0 1-.157-.438c-.03-.156-.03-.344-.03-.5 0-.187 0-.344.03-.531.032-.156.094-.313.157-.438a.684.684 0 0 1 .312-.28c.125-.063.282-.126.469-.126.188 0 .344.031.469.125.125.063.218.188.312.281.094.094.125.25.157.407Z"/><path fill="#211C1E" d="M50.407 23.203c-.375 0-.72-.063-1.032-.188a2.238 2.238 0 0 1-.781-.5c-.219-.218-.375-.5-.5-.78a2.752 2.752 0 0 1-.188-1.032c0-.375.063-.719.188-1.063.031-.093.063-.156.094-.218.093-.22.25-.407.406-.594.219-.219.469-.406.781-.531a2.753 2.753 0 0 1 1.032-.188c.375 0 .718.063 1.03.188.313.125.563.28.813.53.219.22.375.5.5.813.125.313.188.657.188 1.063 0 .375-.063.719-.188 1.031-.125.313-.281.594-.5.813-.218.218-.5.406-.812.5a3.566 3.566 0 0 1-1.032.156Zm-.782-1.594a.887.887 0 0 0 .313.281c.125.063.281.094.468.094.188 0 .344-.031.47-.125a.886.886 0 0 0 .312-.281 1.81 1.81 0 0 0 .156-.438 2.74 2.74 0 0 0 .063-.5c0-.187-.032-.343-.063-.53a1.81 1.81 0 0 0-.156-.438.684.684 0 0 0-.313-.282 1.035 1.035 0 0 0-.468-.125c-.188 0-.344.032-.47.125-.124.063-.218.188-.312.282-.062.125-.125.25-.156.437-.031.188-.031.344-.031.531 0 .188 0 .344.031.5.031.188.094.344.156.47Z"/><path fill="#EFDF2B" d="M46.968 21.828s-.031-.031-.062-.094c0-.062-.032-.125-.032-.25v-2.156h.875l.407.063c-.032.062-.063.156-.094.218a2.803 2.803 0 0 0-.188 1.063c0 .375.063.719.188 1.031l-.281.125h-.032l-.093.031c-.063 0-.125.032-.157.032h-.187c-.094 0-.188 0-.25-.032-.063-.03-.094-.03-.094-.03Z"/><path fill="#211C1E" d="M47.344 23.11h-.375c-.219 0-.406 0-.594-.032a1.383 1.383 0 0 1-.5-.187 1.079 1.079 0 0 1-.375-.375c-.093-.156-.125-.375-.125-.625v-2.563h-.718c-.063 0-.032-.062-.032-.062v-1s0-.031.063-.031h.718v-1.313s0-.062.063-.062h1.406c.063 0 .063.062.063.062v1.313h.875c.062 0 .062.062.062.062v.969c0 .062-.062.062-.062.062h-.938v2.157c0 .093 0 .187.032.25 0 .062.03.093.062.093 0 0 .031.032.094.063.062.031.156.031.25.031h.187c.063 0 .125 0 .157-.031l.093-.031h.032v1.156c0 .062-.032.062-.032.062h-.062c-.094.032-.219.032-.344.032Zm-3.313-.094s0 .062-.062.062h-1.313a.067.067 0 0 1-.062-.062l-.281-4.75s0-.031.062-.031h1.844c.063 0 .063.062.063.062l-.25 4.719Z"/><path fill="#C12A21" d="M43.312 23.328a.907.907 0 1 1 0 1.814.907.907 0 0 1 0-1.814Z"/><path fill="#EFDF2B" d="m42.22 23.016-1.75-2.531 1.593-2.25h.281l.282 4.75-.407.03c0 .032 0 0 0 0Z"/><path fill="#211C1E" d="m40.469 20.516 1.75 2.531s0 .031-.032.031h-1.624c-.063 0-.094-.062-.094-.062l-.875-1.313-.875 1.313s-.032.062-.094.062H37.03c-.062 0-.031-.03-.031-.03l1.719-2.5-1.47-2.126-.124-.156s-.031-.031.031-.031h1.656c.063 0 .063.03.063.03l.719 1.063.718-1.062s.032-.031.063-.031h1.594c.062 0 .031.03.031.03l-1.531 2.25Zm-3.594-3.625-1.188.906s-.03.031-.093.031h-.844c-.063 0 0-.062 0-.062l.719-.875s.03-.031.093-.031h1.344l-.031.03Z"/><path fill="#EFDF2B" d="M35.813 19.516a.943.943 0 0 1 .25.562H34.25c0-.062.032-.094.032-.156a.639.639 0 0 1 .156-.281.681.681 0 0 1 .281-.22.907.907 0 0 1 .438-.093c.156 0 .28.031.375.063.156 0 .218.062.28.125Z"/><path fill="#211C1E" d="M36.094 20.047a1.582 1.582 0 0 0-.25-.563c-.063-.062-.125-.125-.25-.156a1.165 1.165 0 0 0-.375-.063c-.188 0-.344.032-.438.094a.68.68 0 0 0-.281.219 1.269 1.269 0 0 0-.156.281c-.032.063-.032.125-.032.156h1.782v.032Zm.218-1.688c.313.156.563.375.75.656.188.282.344.563.438.907.063.25.094.53.094.812v.281s0 .063-.063.063h-3.25c0 .156.032.281.063.375.031.125.125.25.187.312.094.063.188.157.313.188s.281.062.437.062c.25 0 .438-.062.594-.156.094-.062.156-.125.219-.187a.685.685 0 0 1 .093-.157v-.03s0-.032.063-.032h1.25c.063 0 .031.031.031.031l-.031.094a4.177 4.177 0 0 1-.344.75 1.529 1.529 0 0 1-.5.5c-.375.25-.843.375-1.406.375-.375 0-.719-.063-1.031-.188a1.935 1.935 0 0 1-.782-.53c-.218-.22-.374-.5-.5-.813a2.752 2.752 0 0 1-.187-1.032c0-.343.063-.687.188-1 .124-.312.28-.593.5-.812.218-.219.468-.406.78-.531a2.707 2.707 0 0 1 1-.188c.438 0 .782.094 1.094.25Z"/><path fill="#000" d="M27.812 20.516c-.312.218-.875.218-1.406.312-.5.094-.938.281-.938.844 0 .5.438.687.907.687 1.031 0 1.437-.625 1.437-1.062v-.781Zm-1.594-.25c.875-.157 1.594-.094 1.594-.688 0-.687-.562-.781-1.062-.781-.657 0-1.125.187-1.188.875h-.781c0-.219.031-.406.125-.594.281-.719 1.031-1 1.875-1 .844 0 1.781.188 1.781 1.281v2.47c0 .374 0 .53.25.53.063 0 .125 0 .25-.03v.593c-.125.094-.312.125-.562.125-.407 0-.657-.219-.657-.719-.437.5-1 .719-1.656.719-.656 0-1.187-.219-1.437-.719a1.665 1.665 0 0 1-.125-.594c0-1.062.812-1.312 1.593-1.468Zm-2.906 1.562c0 .344.094.438.594.438h.344v.687h-.594c-.813 0-1.125-.156-1.125-1.031v-3h-.813v-.688h.813v-1.406h.781v1.406h.938v.688h-.938v2.906Zm-2.5-1.687c-.031-.75-.594-1.344-1.375-1.344-.812 0-1.281.625-1.344 1.344h2.72Zm-3.531.437c0-1.406.938-2.469 2.219-2.469 1.687 0 2.187 1.563 2.125 2.688h-3.5c-.032.812.437 1.562 1.468 1.562.657 0 1.094-.312 1.22-.937h.75c-.22 1.031-.97 1.594-2.032 1.594-1.469.03-2.188-1-2.25-2.438Zm-.719-4.156h-.781v.937h.781v-.937Zm0 1.812v5.313c0 .844-.437 1.219-1.125 1.219-.125 0-.25 0-.406-.032v-.656h.313c.343 0 .437-.156.437-.656v-5.188h.781Zm-1.187-.125v.813c-1.25 0-1.719.719-1.719 1.906v2.094h-.781v-4.688h.719v1h.03c.407-.78.907-1.156 1.75-1.125Zm-5.656 4.25c1.03 0 1.437-.625 1.437-1.062v-.781c-.313.218-.875.218-1.406.312-.5.094-.938.281-.938.844 0 .531.438.687.907.687Zm-1.75-.625c0-1.062.78-1.28 1.593-1.468.875-.157 1.594-.094 1.594-.688 0-.687-.563-.781-1.063-.781-.656 0-1.124.187-1.187.875h-.781c0-.219.031-.406.125-.594.281-.719 1.031-1 1.875-1 .844 0 1.781.188 1.781 1.281v2.47c0 .374 0 .53.25.53.063 0 .125 0 .219-.03v.593c-.125.094-.313.125-.563.125-.406 0-.656-.219-.656-.719-.438.5-1 .719-1.656.719-.656 0-1.188-.219-1.438-.719-.031-.156-.093-.375-.093-.594Zm-.375.594v.625H7c-.813 0-1.125-.156-1.125-1.031v-3h-.813v-.688h.813v-1.406h.781v1.406h.938v.688h-.938v2.906c0 .344.094.438.594.438h.344v.062Z"/></g><defs><clipPath id="a"><path fill="#fff" d="M0 5a5 5 0 0 1 5-5h50a5 5 0 0 1 5 5v30a5 5 0 0 1-5 5H5a5 5 0 0 1-5-5V5Z"/></clipPath></defs></svg>