<svg xmlns="http://www.w3.org/2000/svg" fill="none" viewBox="0 0 62 42"><rect width="60" height="40" x="1" y="1" fill="#fff" stroke="#3EB492" stroke-opacity=".3" rx="5"/><path fill="#003248" d="M59 31.065c0 2.23-1.306 3.35-3.911 3.35s-3.911-1.12-3.911-3.35V11.778c0-2.23 1.306-3.35 3.91-3.35 2.606 0 3.912 1.12 3.912 3.35v19.287Zm-9.808-2.768-6.44-6.934 6.44-6.89c.906-.973 1.36-1.885 1.36-2.732 0-.846-.408-1.62-1.216-2.319-.808-.699-1.669-1.052-2.59-1.052-.914 0-1.88.53-2.892 1.597l-8.328 8.775v-6.964c0-2.23-1.306-3.35-3.91-3.35-2.432 0-3.723.972-3.889 2.908 2.567 2.533 3.866 5.838 3.866 9.835 0 3.975-1.306 7.259-3.889 9.776v.125c0 2.23 1.307 3.35 3.912 3.35 2.604 0 3.91-1.12 3.91-3.35v-7.045l8.336 8.812c.996 1.053 1.963 1.575 2.892 1.575.928 0 1.797-.353 2.604-1.06.808-.706 1.216-1.472 1.216-2.311 0-.832-.46-1.745-1.382-2.746Z"/><path fill="#3EB492" d="M27.357 12.314c-.212-.228-.423-.457-.65-.67C24.163 9.222 20.826 8 16.787 8c-4.04 0-7.392 1.222-9.944 3.644C4.29 14.058 3 17.268 3 21.17c0 3.901 1.299 7.096 3.858 9.503 2.567 2.407 5.882 3.63 9.868 3.63 3.979 0 7.316-1.223 9.906-3.63.249-.235.49-.478.717-.729 2.107-2.311 3.179-5.256 3.179-8.774.007-3.556-1.065-6.523-3.171-8.856Zm-5.58 13.883c-1.253 1.34-2.937 2.017-4.998 2.017-2.061 0-3.745-.67-5.006-1.994-1.253-1.318-1.887-3.011-1.887-5.036 0-2.024.634-3.725 1.887-5.064 1.261-1.348 2.952-2.025 5.021-2.025s3.752.678 4.998 2.017c1.238 1.333 1.873 3.026 1.873 5.043-.008 2.01-.642 3.71-1.888 5.042Z"/></svg>