<svg xmlns="http://www.w3.org/2000/svg" fill="none" viewBox="0 0 60 40"><path fill="#fff" d="M0 6a6 6 0 0 1 6-6h48a6 6 0 0 1 6 6v28a6 6 0 0 1-6 6H6a6 6 0 0 1-6-6V6Z"/><path fill="url(#a)" d="M40.123 23.214h2.885c.083 0 .275-.027.357-.027.55-.11 1.017-.605 1.017-1.291 0-.66-.467-1.154-1.017-1.292-.082-.027-.247-.027-.357-.027h-2.885v2.637Z"/><path fill="url(#b)" d="M42.679 5a5 5 0 0 0-5 5v5.192h7.06c.165 0 .357 0 .495.028 1.593.082 2.774.906 2.774 2.335 0 1.126-.796 2.088-2.28 2.28v.055c1.62.11 2.857 1.017 2.857 2.418 0 1.51-1.373 2.5-3.187 2.5h-7.747v10.164h7.335a5 5 0 0 0 5-5V5H42.68Z"/><path fill="url(#c)" d="M44.025 17.885c0-.66-.467-1.1-1.017-1.182-.055 0-.192-.027-.275-.027h-2.61v2.417h2.61c.083 0 .248 0 .275-.027.55-.082 1.017-.522 1.017-1.181Z"/><path fill="url(#d)" d="M15.041 5a5 5 0 0 0-5 5v12.335c1.401.687 2.857 1.127 4.313 1.127 1.731 0 2.665-1.044 2.665-2.473v-5.824h4.286v5.797c0 2.252-1.401 4.093-6.154 4.093-2.885 0-5.137-.632-5.137-.632v10.522h7.335a5 5 0 0 0 5-5V5H15.04Z"/><path fill="url(#e)" d="M28.86 5a5 5 0 0 0-5 5v6.538c1.264-1.071 3.461-1.758 7.005-1.593 1.896.082 3.929.604 3.929.604v2.116c-1.017-.522-2.225-.99-3.791-1.1-2.693-.191-4.314 1.127-4.314 3.435 0 2.335 1.621 3.654 4.314 3.434 1.566-.11 2.774-.604 3.79-1.099v2.116s-2.005.521-3.928.604c-3.544.165-5.741-.522-7.005-1.593V35h7.335a5 5 0 0 0 5-5V5H28.86Z"/><path fill="#EDEDED" d="M6 1h48v-2H6v2Zm53 5v28h2V6h-2Zm-5 33H6v2h48v-2ZM1 34V6h-2v28h2Zm5 5a5 5 0 0 1-5-5h-2a7 7 0 0 0 7 7v-2Zm53-5a5 5 0 0 1-5 5v2a7 7 0 0 0 7-7h-2ZM54 1a5 5 0 0 1 5 5h2a7 7 0 0 0-7-7v2ZM6-1a7 7 0 0 0-7 7h2a5 5 0 0 1 5-5v-2Z"/><defs><linearGradient id="a" x1="37.674" x2="50.019" y1="21.899" y2="21.899" gradientUnits="userSpaceOnUse"><stop stop-color="#007940"/><stop offset=".229" stop-color="#00873F"/><stop offset=".743" stop-color="#40A737"/><stop offset="1" stop-color="#5CB531"/></linearGradient><linearGradient id="b" x1="37.674" x2="50.02" y1="19.974" y2="19.974" gradientUnits="userSpaceOnUse"><stop stop-color="#007940"/><stop offset=".229" stop-color="#00873F"/><stop offset=".743" stop-color="#40A737"/><stop offset="1" stop-color="#5CB531"/></linearGradient><linearGradient id="c" x1="37.674" x2="50.02" y1="17.881" y2="17.881" gradientUnits="userSpaceOnUse"><stop stop-color="#007940"/><stop offset=".229" stop-color="#00873F"/><stop offset=".743" stop-color="#40A737"/><stop offset="1" stop-color="#5CB531"/></linearGradient><linearGradient id="d" x1="10.035" x2="22.572" y1="19.974" y2="19.974" gradientUnits="userSpaceOnUse"><stop stop-color="#1F286F"/><stop offset=".475" stop-color="#004E94"/><stop offset=".826" stop-color="#0066B1"/><stop offset="1" stop-color="#006FBC"/></linearGradient><linearGradient id="e" x1="23.789" x2="35.965" y1="19.974" y2="19.974" gradientUnits="userSpaceOnUse"><stop stop-color="#6C2C2F"/><stop offset=".173" stop-color="#882730"/><stop offset=".573" stop-color="#BE1833"/><stop offset=".859" stop-color="#DC0436"/><stop offset="1" stop-color="#E60039"/></linearGradient></defs></svg>