<svg xmlns="http://www.w3.org/2000/svg" fill="none" viewBox="0 0 60 40"><path fill="#C41F24" d="M0 5a5 5 0 0 1 5-5h50a5 5 0 0 1 5 5v30a5 5 0 0 1-5 5H5a5 5 0 0 1-5-5V5Z"/><path fill="#fff" d="M47.827 14.08c-5-.527-7.323 3.014-7.144 5.954.09 1.657 1.25 2.486 3.215 2.562 1.16 0 2.143-.226 3.036-.905.358.83 1.161.679 1.965.679.268 0 .447-.076.357-.377-.535-2.035.268-3.919.626-5.878.267-1.809.267-1.734-2.055-2.035Zm-.446 2.864c-.179.753-.357 1.507-.625 2.26a4.02 4.02 0 0 1-.804 1.282c-.536.527-1.161.753-1.965.527-.803-.226-.893-.829-.893-1.432.09-.98.357-1.96 1.072-2.713a2.74 2.74 0 0 1 1.607-.98c1.34-.451 1.876-.15 1.608 1.056ZM35.95 10.916c.178 0 .357 0 .625.075.446.076 1.071.076.803.679-.178.452.09 1.28-1.16.904-1.072-.301-1.965.452-2.144 1.357-.09.3.09.376.357.376.179 0 .447-.075.625 0 .358.076 1.161-.301 1.072.452-.09.603 0 1.357-1.16 1.13-.983-.225-1.34.152-1.52 1.056-.356 2.11-.803 4.145-1.25 6.18-.267 1.431-1.518 2.336-2.947 2.562-.446.075-.803.15-.893-.377-.089-.377-.535-.754.268-1.055.715-.226 1.161-.754 1.25-1.432.447-2.11.894-4.22 1.34-6.255.09-.452.09-.754-.536-.678-.357 0-.714-.075-.535-.452.178-.377-.18-1.13.714-1.13.714 0 .893-.302 1.161-.754.536-1.809 1.875-2.638 3.93-2.638ZM20.678 22.446c-.446.301-.982.075-1.429.15-.446 0-.357-.226-.268-.452.268-1.206.536-2.487.804-3.692.09-.528.268-1.13-.625-1.282-.804-.15-1.697.302-1.875.98l-.804 3.844c-.09.527-1.34.98-1.876.602-.268-.15-.089-.452-.089-.602.268-1.13.536-2.261.714-3.316.09-.528.626-1.206-.535-1.432-.983-.151-1.787.301-1.965 1.13-.268 1.206-.536 2.487-.804 3.693-.09.377-.178.603-.714.603-1.34 0-1.34.075-1.072-1.055.09-1.809.893-3.542.625-5.276-.09-.376 1.429-.829 1.697-.452.268.377.447.226.804.151 1.16-.377 2.411-.452 3.483.15.357.227.625 0 .893-.075 1.071-.376 2.143-.603 3.304 0 1.34 1.055.893 2.337.625 3.618-.357.829-.625 1.733-.893 2.713Z"/><path fill="#fff" d="M29.252 17.02c-.179-.754-.983-1.206-2.233-1.357-2.232-.15-3.84.603-5.001 2.412-.357.226-.447.527-.447.904-.089.603.18 1.13.268 1.733.804 1.583 1.787 2.035 4.02 1.884 1.517-.075 1.875-.452 1.517-1.808-.536.15-.982.377-1.518.452-.893.15-1.786-.226-2.054-.904-.178-.452-.178-.754.625-.603a5.292 5.292 0 0 0 3.394-.452c1.16-.377 1.697-1.281 1.429-2.261Zm-2.144 1.055c-.535.377-1.25.452-1.964.452-.357 0-.715 0-.804-.226-.179-.301.179-.528.357-.678a2.189 2.189 0 0 1 2.143-.528c.268.076.536.15.536.377.179.301-.089.452-.268.603ZM38.718 14.232c1.787 0 1.787 0 1.519 1.508-.447 2.034-.893 3.994-1.34 6.028-.09.302 0 .679-.447.679-.625.075-1.25.15-1.875-.076-.268-.075-.09-.376 0-.527.357-1.809.804-3.617 1.161-5.426.09-.302.179-.528-.357-.603-.268 0-.804.075-.625-.377.178-.452-.179-1.206.803-1.206h1.161ZM40.861 10.011c.357.076.983-.15 1.161.151.179.377-.357.603-.625.904-.268.377-.715.603-.893.98-.536.754-1.34.603-2.143.603-.447 0-.268-.301-.18-.452.448-.603.894-1.206 1.34-1.809.358-.527.894-.301 1.34-.377ZM11.658 23.953s15.36 9.043 35.276.83c-7.323 4.596-20.54 9.344-35.276-.83Z"/></svg>