<svg xmlns="http://www.w3.org/2000/svg" fill="none" viewBox="0 0 60 40"><path fill="#FFCE00" d="M0 4a4 4 0 0 1 4-4h52a4 4 0 0 1 4 4v32a4 4 0 0 1-4 4H4a4 4 0 0 1-4-4V4Z"/><path fill="#FEFEFE" fill-rule="evenodd" d="M41.807 23.579c-1.65 1.482-3.46 2.804-5.324 4.002-3.876 2.49-8.198 4.596-12.492 6.265-1.42.552-3.103.871-4.52.133-.932-.485-1.545-1.328-1.87-2.31-.241-.727-.345-1.583-.48-2.342-1.099-6.139-.625-13.298.611-19.422.307-1.519 1.03-3.57 2.643-4.114.775-.262 1.652-.247 2.446-.08.26.056.49.134.737.226 5.284 1.966 10.012 4.422 14.455 7.906 1.259.987 2.638 2.012 3.794 3.113.754.719 1.452 1.533 1.638 2.59.051.29.062.58.04.873-.09 1.166-.713 2.457-1.678 3.16Z" clip-rule="evenodd"/><path fill="#FFB700" fill-rule="evenodd" d="M18.627 31.328c.384 1.161 1.536 2.84 4.968 1.507 4.96-1.927 12.37-5.456 17.529-10.104 0 0 1.154-.802 1.275-2.395.122-1.593-1.119-2.55-5.058-5.64-3.877-3.04-8.22-5.53-14.164-7.743a3.713 3.713 0 0 0-.583-.18c-.41-.087-1.18-.19-1.875.045-1.006.34-1.63 1.828-1.927 3.302-.284 1.403-2.123 10.546-.608 19.016.107.597.26 1.64.443 2.192Z" clip-rule="evenodd"/><path fill="#FFDF77" fill-rule="evenodd" d="M19.293 8.457c-.173.592-.319 1.36-.399 2.353l.003-.027c1.007-.342 2.44-.474 4.471-.224 6.49.8 13.155 4.459 16.767 6.657l.978.581a18.568 18.568 0 0 0-.901-.805l-.07-.059-.035-.03-.218-.18-.037-.031-.076-.063-.038-.031-.04-.032-.077-.064-.04-.032-.08-.065-.04-.033-.083-.066-.041-.033-.085-.068-.042-.034-.043-.034-.043-.035-.044-.035-.044-.035-.088-.07-.045-.036-.045-.036-.046-.036-.046-.036-.093-.074-.047-.037-.047-.037-.04-.032-.007-.006-.048-.037-.049-.039-.048-.038-.008-.006-.041-.032-.05-.04-.05-.038-.023-.019-.026-.02-.05-.04-.051-.04-.04-.031-.011-.01-.052-.04-.051-.04-.052-.041-.005-.003-.048-.038-.053-.042-.053-.041-.02-.017-.033-.025-.054-.043-.054-.042-.038-.03-.017-.013-.055-.043-.055-.043-.056-.044c-3.877-3.04-8.22-5.531-14.164-7.743a3.71 3.71 0 0 0-.583-.18c-.41-.087-1.18-.19-1.875.044l-.04.015-.01.004a1.44 1.44 0 0 0-.04.016l-.007.002a1.406 1.406 0 0 0-.039.017l-.004.002a1.643 1.643 0 0 0-.039.02l-.01.004a1.34 1.34 0 0 0-.037.02l-.008.004a2.023 2.023 0 0 0-.034.019l-.006.004a1.747 1.747 0 0 0-.037.022l-.01.006a1.452 1.452 0 0 0-.036.023l-.007.005-.033.023-.007.005a2.184 2.184 0 0 0-.035.025l-.01.008a1.891 1.891 0 0 0-.035.027l-.002.002-.036.03-.006.004a1.56 1.56 0 0 0-.035.03l-.007.007-.033.03-.002.002-.001.001-.034.033-.008.008a3.81 3.81 0 0 0-.034.033l-.004.005-.031.032-.006.007-.032.035-.008.008-.032.037-.004.006-.029.034-.007.008-.03.038-.008.01-.03.038-.001.002-.003.004a4.054 4.054 0 0 0-.026.036l-.009.011-.028.039-.008.013-.029.041-.42.784Zm.558-.612a2.291 2.291 0 0 0-.035.027l.035-.027Zm-.389.4-.03.037.03-.038Zm-.076.104-.028.042.028-.042Zm-.03.047-.006.007-.029.046-.004.007a5.16 5.16 0 0 0-.028.045l-.002.002v.002l-.029.047-.004.007-.028.049-.005.008-.022.04-.007.013-.025.046-.007.012-.024.046-.002.004-.003.006-.023.045-.005.01a6.99 6.99 0 0 0-.024.048l-.006.013a6.774 6.774 0 0 0-.024.05v.003h-.001l-.024.05-.006.015-.023.05-.005.011.365-.682Zm.082-.18-.024.05.024-.05Zm-.082.183V8.4v-.001Z" clip-rule="evenodd"/><path fill="#FFCE00" fill-rule="evenodd" d="M18.897 10.783c1.007-.342 2.44-.475 4.471-.224 6.49.8 13.155 4.459 16.767 6.656-3.023 8.74-16.285 14.996-16.285 14.996-1.587-1.587-3.117-3.06-4.59-14-.449-3.327-.504-5.715-.363-7.428Z" clip-rule="evenodd"/><path fill="#000" d="M23.182 15.693c.264-.816.54-1.627.807-2.44h6.396c1.078-.001 2.198.278 3.04.98.652.515 1.046 1.298 1.198 2.105.331 1.73-.164 3.627-1.392 4.907-1.107 1.194-2.711 1.82-4.309 1.984-1.365.125-2.736.024-4.101-.033-.393 1.59-.712 3.198-1.082 4.794-1.03-.045-2.06-.106-3.09-.125.5-2.512 1.083-5.008 1.587-7.52 1.704-.02 3.408-.004 5.112-.008.005.524.003 1.049.003 1.573 1.432-1.214 2.825-2.47 4.247-3.698-1.056-1.327-2.13-2.64-3.173-3.979-.143.479-.276.96-.393 1.446-1.616.023-3.233-.002-4.85.014Z"/></svg>