<svg xmlns="http://www.w3.org/2000/svg" fill="none" viewBox="0 0 62 42"><path fill="#fff" fill-rule="evenodd" stroke="#253B80" stroke-opacity=".3" d="M56 41H6c-2.5 0-5-2.5-5-5V6c0-2.5 2.5-5 5-5h50c2.5 0 5 2.5 5 5v30c0 2.5-2.5 5-5 5Z" clip-rule="evenodd"/><path fill="#253B80" d="M24.123 16.863h-2.978a.42.42 0 0 0-.269.097.4.4 0 0 0-.14.243l-1.204 7.44a.236.236 0 0 0 .056.195.249.249 0 0 0 .19.085h1.421a.42.42 0 0 0 .27-.097.4.4 0 0 0 .139-.244l.325-2.007a.4.4 0 0 1 .14-.244.42.42 0 0 1 .268-.096h.943c1.962 0 3.094-.925 3.39-2.758.133-.802.006-1.432-.38-1.873-.423-.485-1.174-.74-2.17-.74Zm.344 2.718c-.163 1.04-.98 1.04-1.77 1.04h-.448l.315-1.944a.24.24 0 0 1 .084-.146.252.252 0 0 1 .161-.058h.206c.538 0 1.045 0 1.307.299.157.178.204.443.145.809Zm8.559-.034H31.6c-.06 0-.117.02-.162.058a.24.24 0 0 0-.083.146l-.064.389-.1-.141c-.308-.437-.997-.583-1.684-.583-1.576 0-2.922 1.163-3.184 2.794-.136.814.057 1.592.531 2.135.435.499 1.057.707 1.797.707 1.27 0 1.974-.796 1.974-.796l-.064.386a.237.237 0 0 0 .056.195.247.247 0 0 0 .189.085h1.284a.42.42 0 0 0 .27-.096.4.4 0 0 0 .14-.245l.77-4.755a.236.236 0 0 0-.056-.194.247.247 0 0 0-.188-.085Zm-1.988 2.704c-.138.794-.784 1.327-1.61 1.327-.413 0-.744-.13-.957-.375-.21-.243-.29-.59-.224-.976.129-.787.786-1.337 1.599-1.337.404 0 .734.13.95.378.218.25.304.599.242.983Zm9.584-2.704h-1.434a.425.425 0 0 0-.342.177l-1.977 2.836-.838-2.725a.404.404 0 0 0-.15-.208.423.423 0 0 0-.247-.08h-1.408a.253.253 0 0 0-.203.1.238.238 0 0 0-.033.22l1.579 4.513-1.485 2.041a.238.238 0 0 0 .074.347.253.253 0 0 0 .129.035h1.431a.424.424 0 0 0 .34-.173l4.767-6.703a.238.238 0 0 0-.075-.345.255.255 0 0 0-.128-.035Z"/><path fill="#179BD7" d="M45.367 16.863h-2.979a.42.42 0 0 0-.268.097.401.401 0 0 0-.14.243l-1.205 7.44a.236.236 0 0 0 .057.195.247.247 0 0 0 .188.084h1.529a.294.294 0 0 0 .188-.067.28.28 0 0 0 .097-.17l.342-2.11a.4.4 0 0 1 .14-.244.42.42 0 0 1 .269-.096h.942c1.962 0 3.094-.925 3.39-2.758.134-.802.006-1.432-.38-1.873-.423-.485-1.173-.74-2.17-.74Zm.344 2.718c-.163 1.04-.98 1.04-1.77 1.04h-.448l.316-1.944a.24.24 0 0 1 .083-.146.251.251 0 0 1 .161-.058h.206c.538 0 1.045 0 1.308.299.156.178.203.443.144.809Zm8.558-.034h-1.425a.25.25 0 0 0-.161.058.239.239 0 0 0-.084.146l-.063.389-.1-.141c-.309-.437-.997-.583-1.684-.583-1.576 0-2.922 1.163-3.184 2.794-.136.814.057 1.592.53 2.135.436.499 1.057.707 1.797.707 1.27 0 1.974-.796 1.974-.796l-.063.386a.236.236 0 0 0 .056.195.247.247 0 0 0 .19.085h1.284a.42.42 0 0 0 .268-.097.401.401 0 0 0 .14-.244l.771-4.755a.236.236 0 0 0-.057-.195.248.248 0 0 0-.189-.084Zm-1.988 2.704c-.136.794-.784 1.327-1.609 1.327-.413 0-.745-.13-.957-.375-.211-.243-.29-.59-.224-.976.13-.787.786-1.337 1.598-1.337.405 0 .734.13.951.378.218.25.304.599.241.983Zm3.67-5.184-1.223 7.576a.234.234 0 0 0 .057.195.247.247 0 0 0 .188.084h1.229a.41.41 0 0 0 .409-.34l1.205-7.44a.236.236 0 0 0-.056-.194.248.248 0 0 0-.188-.085h-1.377a.253.253 0 0 0-.16.058.24.24 0 0 0-.084.146Z"/><path fill="#253B80" d="m7.165 26.368.227-1.41-.507-.01H4.462l1.684-10.4a.133.133 0 0 1 .047-.082.14.14 0 0 1 .09-.032h4.085c1.356 0 2.291.275 2.78.818.23.254.375.52.446.813.074.307.075.674.003 1.122l-.006.032v.287l.23.126c.174.087.332.203.463.345.196.218.323.494.377.822.055.337.037.739-.054 1.193a4.132 4.132 0 0 1-.502 1.35 2.805 2.805 0 0 1-.794.849c-.303.21-.664.369-1.07.47-.395.1-.845.151-1.339.151h-.318a.98.98 0 0 0-.621.223.932.932 0 0 0-.324.563l-.024.127-.402 2.484-.019.091c-.004.029-.013.043-.025.053a.069.069 0 0 1-.042.015H7.165Z"/><path fill="#179BD7" d="M14.037 17.253a6.757 6.757 0 0 1-.042.233c-.538 2.695-2.381 3.625-4.735 3.625H8.06a.578.578 0 0 0-.575.48l-.614 3.792-.173 1.074a.291.291 0 0 0 .07.24.305.305 0 0 0 .232.106h2.126a.508.508 0 0 0 .505-.42l.021-.106.4-2.474.026-.136a.507.507 0 0 1 .505-.42h.318c2.06 0 3.672-.815 4.143-3.172.197-.985.095-1.807-.426-2.385a2.027 2.027 0 0 0-.582-.437Z"/><path fill="#222D65" d="M13.473 17.033a4.347 4.347 0 0 0-.524-.113 6.814 6.814 0 0 0-1.056-.075H8.691a.519.519 0 0 0-.332.12.494.494 0 0 0-.172.3l-.681 4.203-.02.123a.563.563 0 0 1 .196-.344.592.592 0 0 1 .38-.136H9.26c2.354 0 4.196-.932 4.735-3.626.016-.08.03-.157.042-.233a2.902 2.902 0 0 0-.564-.219Z"/><path fill="#253B80" d="M8.187 17.266a.493.493 0 0 1 .172-.301.517.517 0 0 1 .332-.12h3.202c.38 0 .733.025 1.056.076.22.033.435.084.645.15.16.051.307.112.443.182.16-.996-.001-1.674-.554-2.288-.609-.676-1.709-.965-3.116-.965H6.284a.58.58 0 0 0-.577.48L4.004 24.988a.333.333 0 0 0 .08.275.35.35 0 0 0 .266.12h2.522l.633-3.913.682-4.203Z"/></svg>