<svg width="60" height="40" fill="none" xmlns="http://www.w3.org/2000/svg"><rect width="60" height="40" rx="4" /><g clip-path="url(#a)"><path d="M30.091 39.838c10.957 0 19.838-8.882 19.838-19.838C49.93 9.044 41.048.163 30.091.163 19.135.163 10.253 9.044 10.253 20s8.882 19.838 19.838 19.838Z" fill="url(#b)"/><path d="M32.841 24.24h-5.3a.301.301 0 0 1 0-.602h5.271c.2-.042 1.593-.394 1.656-2.028.061-1.62-.868-1.782-1.018-1.798h-3.402c-1.364-.227-1.65-1.454-1.61-2.106-.008-1.695 1.423-2.454 2.183-2.619a.3.3 0 0 1 .064-.007h4.772a.301.301 0 0 1 0 .602H30.72c-.231.059-1.692.493-1.68 2.03v.023c-.004.053-.066 1.266 1.081 1.476h3.357c.017 0 1.679.126 1.591 2.422a2.682 2.682 0 0 1-2.177 2.603.31.31 0 0 1-.05.004ZM37.194 17.262a78.35 78.35 0 0 0-.428 2.105l6.371-.053c.084-.519.267-1.745.267-2.507 0-.697-.837-1.025-1.024-1.09h-3.434c-1.1 0-1.684 1.374-1.752 1.545Zm5.319 6.835h-4.841a.28.28 0 0 1-.032-.002c-.638-.068-1.852-.512-1.88-1.704-.028-1.267.82-5.117.857-5.28a.308.308 0 0 1 .011-.04c.03-.079.742-1.949 2.318-1.949h3.482c.028 0 .056.004.082.012.061.017 1.49.444 1.49 1.673 0 1.033-.303 2.78-.316 2.854a.298.298 0 0 1-.291.247l-6.737.056c-.17.958-.311 1.918-.3 2.413.021.923 1.182 1.105 1.334 1.124h4.823a.298.298 0 0 1 0 .596Z" fill="#fff" stroke="#fff" stroke-width=".3"/><path d="M20.206 22.133c.607 1.16 1.542 1.334 1.68 1.354l2.998-.086c1.042-.337 1.42-1.438 1.464-1.573l.825-5.063c.086-.564-.774-1.168-1.128-1.165a908.382 908.382 0 0 1-2.772.005c-.216 0-.372-.001-.487-.008-.504.087-1.402.893-1.68 1.644-.053.236-.458 2.456-.9 4.892ZM18.9 28a.3.3 0 0 1-.294-.353s.475-2.638.953-5.277a1971.654 1971.654 0 0 1 .882-4.826c.045-.238.074-.395.108-.498l-.005-.002c.336-.925 1.385-1.917 2.157-2.04A324.52 324.52 0 0 0 26.113 15h.001c.289-.007 1.833.581 1.653 1.81l-.003.033-.831 5.101a.308.308 0 0 1-.008.033c-.018.064-.454 1.57-1.906 2.009a.277.277 0 0 1-.077.012l-3.061.088a.182.182 0 0 1-.037-.001c-.048-.005-1.015-.108-1.793-1.095-.33 1.822-.659 3.648-.86 4.764A.298.298 0 0 1 18.9 28Z" fill="#fff"/><path d="M18.899 28a.3.3 0 0 1-.294-.353s.475-2.638.953-5.277a1971.654 1971.654 0 0 1 .882-4.826c.045-.238.074-.395.108-.498l-.005-.002c.336-.925 1.385-1.917 2.157-2.04A324.52 324.52 0 0 0 26.113 15h.001c.289-.007 1.833.581 1.653 1.81l-.003.033-.831 5.101a.308.308 0 0 1-.008.033c-.018.064-.454 1.57-1.906 2.009a.277.277 0 0 1-.077.012l-3.061.088a.182.182 0 0 1-.037-.001c-.048-.005-1.015-.108-1.793-1.095-.33 1.822-.659 3.648-.86 4.764A.298.298 0 0 1 18.9 28m1.307-5.867c.607 1.16 1.542 1.334 1.68 1.354l2.998-.086c1.042-.337 1.42-1.438 1.464-1.573l.825-5.063c.086-.564-.774-1.168-1.128-1.165a908.382 908.382 0 0 1-2.772.005c-.216 0-.372-.001-.487-.008-.504.087-1.402.893-1.68 1.644-.053.236-.458 2.456-.9 4.892Z" stroke="#fff" stroke-width=".3"/><path d="M14.124 14.95c.462 0 .836-.399.836-.89 0-.493-.374-.892-.836-.892-.46 0-.835.399-.835.891s.374.891.835.891ZM13.28 11.246a.885.885 0 0 0-.567-.84c-.278.503-.535 1.02-.77 1.548.14.113.313.183.502.183.462 0 .835-.4.835-.891ZM11.594 14.06c0-.243-.091-.461-.237-.622-.172.49-.325.99-.459 1.497.395-.071.696-.435.696-.876ZM14.24 25.808c.462 0 .836-.399.836-.891s-.374-.891-.835-.891c-.462 0-.836.399-.836.89 0 .493.374.892.836.892ZM11.29 24.917c0-.372-.26-.676-.595-.727.095.44.204.875.328 1.304a.75.75 0 0 0 .267-.577ZM13.276 27.823c0-.492-.374-.891-.835-.891a.83.83 0 0 0-.748.5c.173.427.36.847.562 1.258a.78.78 0 0 0 .186.024c.461 0 .835-.399.835-.89ZM14.695 22.147h-1.676c-.108-.213-.42-.579-.79-.579-.462 0-.836.418-.836.91 0 .492.374.909.835.909.372 0 .683-.175.791-.6H14.903l1.757-3.195h2.71v-.426h-4.442l-1.826-3.194h-2.447c-.043.211-.083.424-.12.638h2.301l1.495 2.556h-4.065c-.006.141-.01.283-.013.426h5.895l-1.453 2.555Z" fill="#FDB813"/><path d="M21.55 12.458h.895s.263.077.216.386l-.17 1.189h-.942s-.417-.154-.2-.602c0 0 .196-.24.37-.24l.863.03M24.267 12.458h-.895s-.31.154-.387.556c0 0-.208.587.04 1.019l.103.023h.842M24.785 11.736l-.13.722-.29 1.614" stroke="#fff" stroke-width=".2" stroke-miterlimit="10"/><path d="M24.6 12.758s.108-.212.293-.3c0 0 .676-.066.795.104 0 0 .136.066.128.259l-.209 1.212" stroke="#fff" stroke-width=".2" stroke-miterlimit="10"/></g><defs><radialGradient id="b" cx="0" cy="0" r="1" gradientUnits="userSpaceOnUse" gradientTransform="matrix(0 24.8375 -24.8386 0 30.091 15)"><stop stop-color="#065EA6"/><stop offset="1" stop-color="#023F72"/></radialGradient><clipPath id="a"><path fill="#fff" transform="translate(10)" d="M0 0h40.089v40H0z"/></clipPath></defs></svg>