<svg xmlns="http://www.w3.org/2000/svg" fill="none" viewBox="0 0 62 42"><path fill="#fff" fill-rule="evenodd" stroke="#3E5B9C" stroke-opacity=".2" d="M56 41H6c-2.5 0-5-2.5-5-5V6c0-2.5 2.5-5 5-5h50c2.5 0 5 2.5 5 5v30c0 2.5-2.5 5-5 5Z" clip-rule="evenodd"/><path fill="#3E5B9C" d="m33.483 20.15.204.11c.604.31 1.21.19 1.63-.338.115-.146.21-.312.292-.478.127-.255.237-.518.345-.78a.239.239 0 0 0-.001-.17c-.997-2.301-1.997-4.6-2.996-6.9-.018-.04-.033-.082-.054-.134.043-.004.074-.01.105-.01.44 0 .88 0 1.321-.002.077 0 .12.02.148.093.633 1.619 1.27 3.235 1.902 4.854.075.192.126.394.188.59.01.03.022.058.062.088.012-.04.023-.08.037-.118.214-.616.418-1.236.646-1.848.44-1.187.894-2.37 1.347-3.552.016-.043.071-.1.109-.1.449-.008.898-.005 1.347-.004.011 0 .023.006.052.014-.015.041-.027.082-.043.12-1.133 2.789-2.264 5.577-3.4 8.364-.288.705-.763 1.245-1.517 1.5-.74.252-1.446.153-2.113-.238-.03-.018-.066-.082-.056-.106.143-.318.293-.632.445-.955ZM32.796 17.636v1.17c-.25.002-.498.017-.745.004a3.315 3.315 0 0 1-.995-.198c-.813-.305-1.274-.892-1.426-1.716a3.997 3.997 0 0 1-.06-.7c-.006-1.169-.003-2.337-.003-3.506 0-.178 0-.179-.186-.179h-.648c-.057 0-.108.002-.107-.078.002-.32 0-.64 0-.984h.214c.208 0 .416-.005.624.002.108.004.142-.027.142-.136-.005-.8-.003-1.598-.003-2.398v-.156h1.33v.137c0 .803.002 1.607-.003 2.41 0 .112.033.145.147.143.478-.005.956-.002 1.434-.002h.158v1.054c-.044.003-.092.008-.14.008-.486 0-.972.003-1.459-.002-.109-.001-.14.03-.14.137.004 1.157-.001 2.313.007 3.47.001.19.031.389.087.572.196.642.717.91 1.344.947.14.008.28.001.428.001ZM22.478 15.328c-.005.332.064.64.19.931.35.806.991 1.25 1.865 1.376.926.134 1.734-.156 2.464-.696.033-.024.064-.05.11-.085l.572.988c-.211.138-.413.287-.63.41a4.335 4.335 0 0 1-2.51.559c-1.777-.133-3.104-1.257-3.406-2.929-.21-1.163-.019-2.264.761-3.212.546-.664 1.272-1.04 2.13-1.17.677-.104 1.344-.069 1.978.203.844.36 1.351 1.01 1.613 1.856.16.518.2 1.048.149 1.586-.017.173-.017.173-.193.173h-4.9c-.062 0-.123.006-.193.01Zm3.893-1.01c.036-.253-.066-.695-.229-.98-.338-.588-.87-.843-1.547-.83-.873.018-1.51.405-1.89 1.179a1.682 1.682 0 0 0-.183.63h3.85ZM18.983 18.808h-1.356v-6.125c0-.171 0-.171-.177-.172h-.71V11.45h.71c.177 0 .174 0 .18-.172.01-.374.06-.743.2-1.094.32-.791.95-1.202 1.777-1.36.365-.07.733-.086 1.103-.05.101.01.152.037.149.154-.01.327-.004.655-.004.998l-.154-.01c-.438-.03-.858.02-1.217.29-.39.295-.494.712-.5 1.167-.002.092.067.076.122.076.465.002.931.001 1.397.001.187 0 .187 0 .187.186 0 .251-.003.503.002.755.002.095-.032.124-.13.123-.474-.004-.948.002-1.422-.004-.125-.002-.16.03-.16.155.004 1.993.003 3.985.003 5.978v.166ZM10.575 13.249l-.573-.991c.25-.134.486-.277.735-.391A4.736 4.736 0 0 1 13 11.456c.37.02.732.088 1.076.23.774.32 1.22.902 1.386 1.692.052.248.077.505.078.759.007 1.5.003 3.002.003 4.503v.165h-1.248v-1.378c-.028.035-.05.055-.063.079-.388.693-.97 1.144-1.771 1.27-.912.143-1.747-.037-2.416-.704-.332-.331-.495-.744-.526-1.204-.08-1.183.582-1.813 1.465-2.173a5.322 5.322 0 0 1 1.641-.368c.476-.034.954-.043 1.43-.058.093-.003.141-.026.129-.126-.023-.188-.021-.382-.066-.565-.16-.653-.647-.951-1.32-.996-.759-.05-1.437.182-2.07.57l-.154.097Zm3.137 2.014-.003-.025c-.432.04-.867.068-1.297.125a2.423 2.423 0 0 0-1.011.349c-.383.247-.552.597-.497 1.038.05.407.283.7.664.862.602.254 1.184.19 1.7-.203.677-.517.933-1.233.939-2.051 0-.078-.04-.097-.11-.096-.128.002-.256 0-.385 0ZM4.128 16.854c.314.272.651.484 1.033.623.482.175.976.259 1.486.132.238-.059.45-.17.602-.366.24-.307.225-.698-.07-.954a2.448 2.448 0 0 0-.58-.369c-.44-.2-.894-.372-1.338-.562a3.69 3.69 0 0 1-.988-.604c-.835-.73-.778-2.166.243-2.828a2.996 2.996 0 0 1 1.388-.456c.716-.065 1.41.017 2.06.327.208.098.395.238.586.366.027.019.047.09.033.117-.16.303-.326.602-.491.901l-.025.036a2.638 2.638 0 0 0-1.05-.525c-.423-.103-.851-.14-1.277-.011-.396.12-.633.398-.65.745a.646.646 0 0 0 .202.505c.222.224.507.348.794.469.465.194.936.376 1.395.582.373.168.708.396.961.719.638.812.43 2.01-.453 2.621a2.806 2.806 0 0 1-1.342.473c-.917.093-1.777-.074-2.568-.541-.19-.113-.362-.257-.538-.392-.027-.02-.05-.086-.037-.106.202-.301.411-.598.624-.902ZM44.992 8.621c2.929.118 5.517 1.047 7.768 2.858 2.472 1.988 4.015 4.554 4.61 7.67.13.683.144 1.388.215 2.082.018.18-.031.26-.236.258a190.55 190.55 0 0 0-3.052 0c-.194 0-.243-.07-.252-.257-.156-3.518-1.802-6.142-4.816-7.917-1.192-.701-2.498-1.08-3.883-1.175-.353-.024-.354-.025-.354-.367V8.621ZM48.705 21.468H42v-5.233l6.705 5.233Z"/><path fill="#5A9DC9" d="M44.992 34.288c2.929-.118 5.517-1.047 7.768-2.858 2.472-1.988 4.015-4.554 4.61-7.67.13-.683.144-1.388.215-2.082.018-.18-.031-.26-.236-.259-1.017.01-2.035.008-3.052.002-.194-.002-.243.068-.252.256-.156 3.518-1.802 6.142-4.816 7.916-1.192.702-2.498 1.08-3.883 1.176-.353.024-.354.025-.354.367v3.152ZM48.705 21.44H42v5.234l6.705-5.234Z"/><path fill="#5A9ECA" d="M34.93 29.57c.483-.974 1.037-1.871 1.557-2.787.644-1.135 1.297-2.266 1.944-3.4.038-.065.08-.09.16-.089.49.004.982.005 1.473 0 .133-.002.117.034.064.12-1.264 2.053-2.526 4.108-3.789 6.163-.603.982-1.207 1.964-1.812 2.945-.375.608-.843 1.135-1.507 1.462-.943.465-1.865.379-2.759-.14-.067-.039-.085-.065-.034-.138.204-.29.4-.585.596-.88.036-.054.057-.08.132-.035.552.325 1.102.296 1.642-.029.307-.185.538-.444.73-.734.205-.31.4-.627.604-.936.041-.062.03-.114.016-.173l-1.104-4.603c-.231-.963-.461-1.927-.696-2.89-.026-.107-.011-.136.111-.133.432.008.864.007 1.296 0 .106-.002.148.024.17.126.27 1.331.55 2.661.82 3.993.122.602.272 1.198.347 1.808l.04.35ZM23.303 25.3c-.198-.776-.65-1.386-1.421-1.728-1.262-.56-2.984-.323-4.005.984-.034.043-.051.104-.132.126.154-.43.211-.863.307-1.289.022-.098-.012-.099-.09-.098-.4.002-.8.003-1.2-.001-.086-.001-.115.026-.129.105-.058.323-.124.646-.187.968l-.915 4.656-.837 4.256-.194 1.005c.479 0 .942-.001 1.406.001.067 0 .08-.028.09-.084.225-1.157.454-2.313.68-3.47.049-.25.086-.503.129-.754.042.007.04.04.05.061.256.517.667.87 1.22 1.066.852.3 1.697.237 2.52-.1 1.05-.43 1.798-1.173 2.29-2.152.57-1.133.732-2.323.418-3.552Zm-2.065 3.43c-.452.627-1.043 1.069-1.837 1.213-1.121.203-1.988-.39-2.116-1.485-.148-1.274.258-2.38 1.242-3.258.525-.468 1.158-.696 1.887-.606.66.08 1.103.43 1.34 1.027.13.329.158.673.157.881-.031.894-.222 1.601-.673 2.228ZM31.057 25.473c-.017-1.032-.58-1.757-1.609-2.037-.775-.212-1.555-.174-2.332-.01a6.18 6.18 0 0 0-1.672.61c-.043.023-.113.032-.087.109l.391 1.115a5.67 5.67 0 0 1 .912-.437c.606-.223 1.226-.354 1.878-.252.376.06.694.212.856.57.167.37.124.754.065 1.138-.012.076-.067.056-.112.056-.55-.004-1.1.015-1.646.08-.77.09-1.521.245-2.223.577-.89.42-1.506 1.045-1.644 2.038-.124.893.3 1.676 1.16 2.023 1.086.438 2.102.273 3.04-.397.319-.228.586-.507.831-.815-.106.448-.178.902-.277 1.35-.02.094.01.099.089.098.377-.003.755-.01 1.132.003.15.006.185-.049.21-.175.266-1.345.54-2.689.807-4.034.106-.533.24-1.06.231-1.61Zm-1.81 2.016c-.232.963-.72 1.762-1.606 2.296-.397.239-.833.335-1.302.268-.405-.059-.748-.216-.9-.606-.157-.402-.079-.787.19-1.127.296-.372.723-.544 1.173-.669.598-.166 1.212-.211 1.83-.232h.545c.054-.001.085.003.07.07Z"/></svg>