<svg xmlns="http://www.w3.org/2000/svg" fill="none" viewBox="0 0 60 40"><path fill="#83C13C" fill-rule="evenodd" d="M5.455 0A5.455 5.455 0 0 0 0 5.455V24.32h37.56V0H5.454Z" clip-rule="evenodd"/><path fill="#85DAE6" fill-rule="evenodd" d="M0 25.464v9.08a5.455 5.455 0 0 0 5.264 5.452h7.323l-.722-19.163L10.627 17 0 25.464Z" clip-rule="evenodd"/><path fill="#4F8CCC" d="M9.389 17.931 0 20.025v6.182l9.389-8.276Z"/><path fill="#CBBAB2" fill-rule="evenodd" d="M60 34.82A5.455 5.455 0 0 1 54.552 40H18.379L3 27.644 35.332 0h19.22A5.455 5.455 0 0 1 60 5.18v29.64Z" clip-rule="evenodd"/><path fill="#DFCDC6" d="M3.353 28.276 6.403 40h12.375L3.353 28.276Z"/><path fill="#6B5C56" d="M21.787 9.724s1.468 1.51.294 12.38c1.321-4.68 4.844-12.229 6.46-9.813 0 .603-1.762 9.812-1.762 9.812s1.614.453 1.761-1.207c.147-1.661 3.524-9.21 5.579-9.21.587 0 .587 1.51-.587 7.398-.294 1.812.88 5.435 3.963.755.588-.906.294-.755.294-.755v-.453s-2.496 3.623-2.936 1.51c-.147-.302 0-.755 0-1.208.88-4.227 2.349-7.85-.147-8.303-.587 0-2.055 0-4.991 5.284.293-3.623.88-6.492-3.23-4.68 2.79-3.322 4.698-5.133 10.423-7.096-4.55 1.208-10.423 3.472-13.36 9.964-.44-3.02-1.027-3.321-1.76-4.378ZM7.254 27.84h2.643l-.734 3.774c-.44.15-.734.302-1.175.302-.44.15-.734.15-1.174.15-.881 0-1.615-.301-2.056-.754-.44-.453-.734-1.208-.734-2.114 0-.906.147-1.811.587-2.566.294-.755.881-1.359 1.468-1.812.588-.453 1.322-.604 2.203-.604.44 0 .734 0 1.028.151.293 0 .734.151 1.027.302l-.44 1.057c-.587-.302-1.175-.453-1.762-.453s-1.028.151-1.468.453c-.44.302-.734.755-1.028 1.359a4.276 4.276 0 0 0-.44 1.962c0 .604.146 1.057.44 1.51.294.302.734.453 1.321.453.44 0 .734 0 1.028-.151l.44-1.963H6.96l.294-1.056ZM14.448 26.028h.587l-.294 1.208h-.587c-.44 0-.734.151-1.175.604-.44.453-.587.906-.734 1.51l-.587 2.566h-1.175l1.175-5.737h.88l-.146 1.057c.294-.453.587-.755.881-.906.587-.15.881-.302 1.175-.302ZM16.943 26.18l-.587 3.17c-.147.452-.147.754-.147 1.056 0 .453.147.755.587.755.294 0 .44-.15.734-.302.294-.15.44-.453.588-.906.146-.302.293-.754.44-1.358l.44-2.416h1.175L19 31.916h-.881l.146-1.057c-.293.453-.587.755-.88.906-.294.151-.588.302-1.028.302-.44 0-.734-.151-1.028-.453-.294-.302-.44-.604-.44-1.208v-.604c0-.15.146-.453.146-.603l.588-3.02h1.321ZM23.109 32.067c-.587 0-1.028-.302-1.322-.906 0 .302 0 .604-.146.906l-.44 2.416h-1.175l1.762-8.304h.88l-.146.906c.587-.755 1.174-1.057 1.762-1.057.44 0 .88.151 1.174.604.294.302.44.906.44 1.51 0 .755-.146 1.359-.293 1.963-.294.603-.587 1.056-1.028 1.51-.587.301-1.028.452-1.468.452Zm.734-4.982c-.294 0-.587.151-.88.453-.294.302-.441.604-.735 1.057-.147.453-.294.906-.294 1.358 0 .302.147.604.294.755.147.151.44.302.734.302a.805.805 0 0 0 .734-.453c.294-.302.44-.604.587-1.056.147-.453.147-.906.147-1.36.147-.754-.146-1.056-.587-1.056ZM31.477 28.293c0 .755-.147 1.359-.44 1.962-.294.604-.588 1.057-1.028 1.36-.44.301-.881.452-1.468.452-.588 0-1.175-.15-1.615-.604-.44-.453-.588-.906-.588-1.66 0-.755.147-1.36.294-1.963.294-.604.587-1.057 1.028-1.359.44-.302.88-.453 1.468-.453.587 0 1.175.151 1.615.604.587.453.734 1.057.734 1.66Zm-1.174 0c0-.302-.147-.604-.294-.906a1.106 1.106 0 0 0-.734-.302c-.294 0-.587.151-.881.302-.294.302-.44.604-.587 1.057-.147.453-.147.906-.147 1.358 0 .453.147.755.293.906.147.151.44.302.735.302.293 0 .587-.15.88-.302.294-.302.441-.603.588-1.056 0-.302.147-.906.147-1.36ZM52.617 18.631c0 1.057-.293 1.812-1.027 2.416-.734.604-1.615.905-2.937.905-1.027 0-1.908-.15-2.496-.603v-1.661c.881.453 1.615.755 2.496.755.734 0 1.175-.151 1.615-.453.44-.302.588-.755.588-1.208 0-.302-.147-.604-.294-.906-.147-.302-.587-.604-1.175-1.056-.44-.302-.88-.604-1.174-.906-.294-.302-.44-.604-.587-.906-.147-.302-.147-.755-.147-1.057 0-.604.147-1.208.44-1.66a3.501 3.501 0 0 1 1.322-1.208 3.974 3.974 0 0 1 1.908-.453c1.028 0 1.909.302 2.79.755l-.587 1.358c-.734-.453-1.469-.603-2.203-.603-.587 0-.88.15-1.321.452-.294.302-.44.604-.44 1.208 0 .302 0 .453.146.604 0 .151.147.302.294.453.147.151.44.453 1.028.755.734.453 1.321.906 1.615 1.359 0 .603.147 1.207.147 1.66Z"/><path fill="#6B5C56" d="M46.891 15.008c0 1.358-.293 2.566-.734 3.774-.44 1.057-1.027 1.963-1.908 2.416-.734.603-1.762.905-2.79.905-1.32 0-2.202-.302-2.936-1.056-.734-.755-1.027-1.812-1.027-3.02 0-1.359.293-2.566.734-3.623a6.823 6.823 0 0 1 1.908-2.566c.734-.604 1.762-.906 2.79-.906 1.174 0 2.202.302 2.789 1.056.734.604 1.174 1.661 1.174 3.02Zm-4.11-2.718c-.734 0-1.322.302-1.762.755-.587.453-1.028 1.208-1.321 1.963a8.769 8.769 0 0 0-.44 2.717c0 .906.146 1.51.586 1.963.44.453.881.755 1.615.755s1.322-.302 1.762-.755c.587-.453.88-1.208 1.175-1.963.293-.906.44-1.811.44-2.868 0-.906-.147-1.51-.587-1.963-.147-.302-.734-.604-1.468-.604ZM38.23 31.916h-3.964l1.615-7.7h3.964l-.293 1.208h-2.79l-.294 2.114h2.496l-.146 1.056h-2.496l-.44 2.416h2.789l-.44.906ZM45.277 26.48c0 .907-.294 1.51-.88 1.963-.441.453-1.322.604-2.35.604h-.587l-.588 2.869h-1.174l1.615-7.7h1.762c.734 0 1.321.151 1.762.453.293.604.44 1.057.44 1.812Zm-3.524 1.662h.44c.588 0 1.029-.151 1.469-.453.294-.302.44-.604.44-1.208 0-.453-.146-.604-.293-.755-.147-.151-.44-.302-.881-.302h-.587l-.588 2.718ZM48.066 31.916l-.588-6.341c0 .453-.147 1.057-.293 1.812l-.881 4.529h-1.175l1.615-7.7h1.615l.588 6.039 3.083-6.039h1.762l-1.615 7.7h-1.175l.881-4.53.44-1.811-3.23 6.34h-1.027ZM10.925 18.631c0 1.057-.294 1.812-1.028 2.416-.734.604-1.615.905-2.937.905-1.027 0-1.908-.15-2.496-.603v-1.661c.881.453 1.615.755 2.496.755.734 0 1.175-.151 1.615-.453.44-.302.588-.755.588-1.208 0-.302-.147-.604-.294-.906-.147-.302-.587-.604-1.175-1.056-.44-.302-.88-.604-1.174-.906-.294-.302-.44-.604-.587-.906-.147-.302-.147-.755-.147-1.057 0-.604.147-1.208.44-1.66a3.501 3.501 0 0 1 1.322-1.208 3.974 3.974 0 0 1 1.908-.453c1.028 0 1.909.302 2.79.755l-.587 1.358c-.734-.453-1.469-.603-2.203-.603-.587 0-.88.15-1.321.452-.294.302-.44.604-.44 1.208 0 .302 0 .453.146.604 0 .151.147.302.294.453.147.151.44.453 1.028.755.734.453 1.321.906 1.615 1.359 0 .603.147 1.207.147 1.66ZM20.906 15.008c0 1.358-.293 2.566-.734 3.774-.44 1.057-1.027 1.963-1.908 2.416-.734.603-1.762.905-2.79.905-1.32 0-2.202-.302-2.936-1.056-.734-.755-1.027-1.812-1.027-3.02 0-1.359.293-2.566.734-3.623a6.82 6.82 0 0 1 1.908-2.566c.881-.604 1.762-.906 2.79-.906 1.174 0 2.202.302 2.789 1.056.88.604 1.174 1.661 1.174 3.02Zm-3.963-2.718c-.735 0-1.322.302-1.762.755-.587.453-1.028 1.208-1.321 1.963a8.769 8.769 0 0 0-.44 2.717c0 .906.146 1.51.587 1.963.44.453.88.755 1.614.755.734 0 1.322-.302 1.762-.755.587-.453.88-1.208 1.175-1.963.293-.906.44-1.811.44-2.868 0-.906-.147-1.51-.587-1.963-.147-.302-.734-.604-1.468-.604Z"/></svg>