<svg xmlns="http://www.w3.org/2000/svg" fill="none" viewBox="0 0 60 40"><path fill="#016FD0" d="M55.786 0H4.285C1.958 0 .07 1.945.07 4.345v31.248c0 2.4 1.887 4.345 4.214 4.345h51.5c2.329 0 4.215-1.945 4.215-4.345V4.345C60 1.945 58.114 0 55.786 0Z"/><path fill="#0157A0" d="M55.715.062h-3.772c2.328 0 4.214 1.945 4.214 4.344v31.249c0 2.4-1.886 4.345-4.214 4.345h3.772c2.328 0 4.214-1.946 4.214-4.345V4.406c0-2.399-1.886-4.344-4.214-4.344Z"/><path fill="#4B5563" d="M0 9.878h59.93v7.508H0V9.878Z"/><path fill="#111827" d="M56.157 9.878h3.772v7.508h-3.772V9.878Z"/><path fill="#fff" d="M45.2 29.38v4.63c0 .358.281.648.629.648h7.142c.348 0 .63-.29.63-.648v-4.63a.639.639 0 0 0-.63-.648H45.83a.639.639 0 0 0-.629.648ZM23.665 29.38v4.63c0 .358.282.648.629.648H39.4c.348 0 .629-.29.629-.648v-4.63a.639.639 0 0 0-.629-.648H24.294a.639.639 0 0 0-.629.648Z"/><path fill="#1F2937" d="M13.67 33.217H6.145c-.632 0-1.144-.529-1.144-1.18 0-.652.512-1.18 1.144-1.18h7.527c.632 0 1.144.528 1.144 1.18 0 .651-.512 1.18-1.144 1.18Z"/></svg>