<svg viewBox="0 0 24 16" fill="none" xmlns="http://www.w3.org/2000/svg"><path fill-rule="evenodd" clip-rule="evenodd" d="M22 16H2c-1 0-2-1-2-2V2c0-1 1-2 2-2h20c1 0 2 1 2 2v12c0 1-1 2-2 2Z" fill="#1434CB"/><path d="m9.353 4.125-2.88 6.872h-1.88L3.176 5.513c-.086-.337-.16-.461-.422-.604C2.326 4.677 1.62 4.46 1 4.325l.042-.2h3.025c.385 0 .732.257.82.7l.749 3.977 1.849-4.677h1.868Zm2.54 0-1.47 6.872H8.646l1.47-6.872h1.777Zm4.823 4.628c.007-1.813-2.508-1.913-2.491-2.724.006-.246.24-.508.754-.575.255-.033.957-.06 1.753.308l.312-1.458A4.793 4.793 0 0 0 15.38 4c-1.758 0-2.994.933-3.004 2.271-.011.99.883 1.541 1.556 1.87.693.337.925.554.922.854-.005.461-.553.665-1.063.673-.894.014-1.412-.242-1.826-.434l-.323 1.506c.416.19 1.183.356 1.977.365 1.868 0 3.09-.923 3.096-2.352Zm4.64 2.244H23l-1.436-6.872h-1.517a.809.809 0 0 0-.757.504l-2.667 6.368h1.867l.37-1.027h2.28l.216 1.027Zm-1.984-2.435.936-2.58.538 2.58h-1.474Zm-5.204 4.326h-.722v.672h.808v.203h-1.051v-1.865h1.01v.202h-.767v.59h.722v.198Zm.46-1.09h.243v1.965h-.244v-1.965Zm.857 1.34c.005.329.213.464.459.464.175 0 .282-.03.371-.069l.044.174a1.092 1.092 0 0 1-.448.086c-.412 0-.659-.274-.659-.678s.238-.72.628-.72c.44 0 .554.383.554.629 0 .05-.003.086-.009.113h-.94Zm.714-.175c.002-.152-.064-.393-.338-.393-.249 0-.354.224-.374.393h.712Zm1.56.753a.94.94 0 0 1-.385.077c-.404 0-.667-.274-.667-.683 0-.413.282-.714.72-.714.144 0 .27.036.337.072l-.055.185a.598.598 0 0 0-.282-.064c-.308 0-.473.23-.473.507 0 .31.199.5.464.5.139 0 .23-.033.3-.063l.04.183Zm.683-1.614v.321h.348v.186h-.348v.722c0 .166.047.26.182.26a.451.451 0 0 0 .142-.017l.01.186a.668.668 0 0 1-.215.033.348.348 0 0 1-.263-.102c-.066-.075-.094-.194-.094-.352v-.73h-.208v-.186h.208v-.249l.238-.072Zm.688.74c0-.159-.002-.294-.01-.419h.212l.012.266h.008c.06-.18.21-.293.373-.293.025 0 .045.002.067.005v.23c-.025-.006-.05-.006-.083-.006-.172 0-.294.128-.327.31a.729.729 0 0 0-.008.114v.714h-.244v-.922Zm2.158.24c0 .495-.346.711-.666.711-.36 0-.642-.266-.642-.689 0-.445.296-.708.664-.708.384 0 .644.279.644.686Zm-1.06.014c0 .293.166.515.404.515.233 0 .407-.22.407-.52 0-.228-.113-.513-.401-.513-.285 0-.41.266-.41.518Zm1.433-.31c0-.141-.002-.252-.01-.363h.215l.014.222h.006a.496.496 0 0 1 .442-.25c.186 0 .474.111.474.57v.798h-.244v-.772c0-.216-.08-.396-.31-.396a.351.351 0 0 0-.326.249.347.347 0 0 0-.017.113v.806h-.244v-.977Z" fill="#fff"/></svg>