<svg viewBox="0 0 24 16" fill="none" xmlns="http://www.w3.org/2000/svg"><path fill-rule="evenodd" clip-rule="evenodd" d="M22 16H2c-1 0-2-1-2-2V2c0-1 1-2 2-2h20c1 0 2 1 2 2v12c0 1-1 2-2 2Z" fill="#1434CB"/><path d="m9.594 5.123-2.619 6.744H5.267L3.978 6.485c-.078-.331-.146-.453-.384-.593-.388-.227-1.03-.44-1.594-.573l.038-.196h2.75c.35 0 .666.252.746.687l.68 3.903 1.681-4.59h1.699Zm2.309 0-1.336 6.744H8.95l1.337-6.744h1.616Zm4.384 4.542c.007-1.78-2.28-1.878-2.264-2.673.005-.242.218-.5.685-.565.232-.032.87-.058 1.594.302l.283-1.431A4.075 4.075 0 0 0 15.074 5c-1.598 0-2.722.916-2.73 2.229-.011.97.802 1.512 1.413 1.836.63.33.842.542.839.837-.005.453-.503.653-.967.66-.813.014-1.284-.237-1.66-.426l-.293 1.479c.378.187 1.075.35 1.797.357 1.698 0 2.809-.905 2.814-2.307Zm4.219 2.202H22l-1.305-6.744h-1.38c-.31 0-.571.195-.687.494l-2.425 6.25H17.9l.336-1.008h2.074l.196 1.008Zm-1.804-2.39.85-2.532.49 2.532h-1.34Z" fill="#fff"/></svg>