<svg xmlns="http://www.w3.org/2000/svg" viewBox="0 0 500 500">
  <path fill="#ED6E25" d="M134.056 167.079a2.227 2.227 0 0 0-3.035-.806 2.195 2.195 0 0 0-.811 3.01 2.232 2.232 0 0 0 3.035.799 2.182 2.182 0 0 0 .811-3.003Zm-7.724-.612a1.976 1.976 0 0 0-.731 2.71 2.016 2.016 0 0 0 2.735.724 1.97 1.97 0 0 0 .731-2.704 2.002 2.002 0 0 0-2.729-.724m-4.721.181a1.745 1.745 0 0 0-.65 2.404 1.78 1.78 0 0 0 2.429.643 1.747 1.747 0 0 0 .65-2.404 1.785 1.785 0 0 0-2.423-.643m-.731-1.243a1.567 1.567 0 0 0 .58-2.148 1.599 1.599 0 0 0-2.179-.581 1.57 1.57 0 0 0-.58 2.148 1.592 1.592 0 0 0 2.172.574m-6.275-2.522a1.344 1.344 0 0 0-.506 1.848 1.378 1.378 0 0 0 1.867.493 1.337 1.337 0 0 0 .499-1.841 1.357 1.357 0 0 0-1.86-.494m-2.286 4.322a1.108 1.108 0 0 0-.412 1.529c.318.537.999.718 1.542.412s.731-.992.419-1.529a1.144 1.144 0 0 0-1.549-.412Zm2.504 4.309a.901.901 0 0 0-.33 1.242.921.921 0 0 0 1.254.337.914.914 0 0 0 .338-1.248.923.923 0 0 0-1.262-.331Zm12.109-6.564a1.774 1.774 0 0 0 .662-2.441 1.812 1.812 0 0 0-2.466-.656 1.785 1.785 0 0 0-.662 2.442 1.818 1.818 0 0 0 2.46.662m-5.908-4.204a1.73 1.73 0 0 0 2.354.618 1.688 1.688 0 0 0 .618-2.322 1.709 1.709 0 0 0-2.341-.618 1.692 1.692 0 0 0-.625 2.322m-1.998-2.878a1.544 1.544 0 0 0-2.098-.556 1.523 1.523 0 0 0-.568 2.079c.43.731 1.367.98 2.097.562a1.517 1.517 0 0 0 .562-2.085m-5.42 3.272a1.428 1.428 0 0 0 .53-1.967 1.458 1.458 0 0 0-1.985-.531 1.425 1.425 0 0 0-.531 1.967c.4.687 1.286.93 1.979.524m-3.59 3.366c.618-.349.824-1.13.474-1.742a1.291 1.291 0 0 0-1.76-.468 1.265 1.265 0 0 0-.469 1.742 1.287 1.287 0 0 0 1.755.468Zm-1.024 3.142a1.052 1.052 0 0 0-1.442-.381c-.512.287-.681.93-.387 1.43.293.499.942.674 1.442.387a1.04 1.04 0 0 0 .387-1.436Zm1.161 4.846a.892.892 0 0 0-1.224-.325.888.888 0 0 0-.331 1.218.902.902 0 0 0 1.224.324.874.874 0 0 0 .331-1.211m2.33 3.229a.805.805 0 0 0-.3 1.111.824.824 0 0 0 1.118.3.814.814 0 0 0 .306-1.111.822.822 0 0 0-1.124-.294m4.877 1.386a.694.694 0 0 0-.256.95c.194.33.625.443.955.249a.686.686 0 0 0 .256-.949.701.701 0 0 0-.961-.25m4.871-1.198a.587.587 0 1 0 .593 1.011.59.59 0 0 0 .219-.805.594.594 0 0 0-.812-.206Zm10.054-10.954a1.976 1.976 0 0 0 .731-2.723c-.549-.961-1.78-1.28-2.748-.73a1.972 1.972 0 0 0-.73 2.723 2.008 2.008 0 0 0 2.747.73Zm-2.585-4.378a1.897 1.897 0 0 0 .7-2.598 1.926 1.926 0 0 0-2.623-.699 1.892 1.892 0 0 0-.7 2.604 1.93 1.93 0 0 0 2.623.7m-3.94-3.372a1.714 1.714 0 0 0 .637-2.336 1.74 1.74 0 0 0-2.361-.631 1.706 1.706 0 0 0-.637 2.336 1.745 1.745 0 0 0 2.361.631Zm-4.747-1.75a1.618 1.618 0 0 0 .599-2.216 1.643 1.643 0 0 0-2.235-.593 1.61 1.61 0 0 0-.593 2.216 1.629 1.629 0 0 0 2.229.593Zm-5.077-.143a1.43 1.43 0 0 0 .53-1.973 1.461 1.461 0 0 0-1.991-.531c-.7.4-.937 1.286-.531 1.979a1.467 1.467 0 0 0 1.992.525Zm-4.253-.231a1.38 1.38 0 0 0-1.873-.499 1.361 1.361 0 0 0-.505 1.86c.38.65 1.217.874 1.879.5.655-.375.88-1.205.499-1.861Zm-4.396 4.89c.58-.331.774-1.062.443-1.636a1.217 1.217 0 0 0-1.655-.437 1.193 1.193 0 0 0-.443 1.642c.337.574 1.08.774 1.655.437m-3.703 2.254a1.113 1.113 0 0 0-.419 1.53 1.138 1.138 0 0 0 1.543.412c.543-.306.73-.993.418-1.529a1.132 1.132 0 0 0-1.542-.413Zm.536 5.44a.998.998 0 0 0-1.348-.362.97.97 0 0 0-.356 1.336.979.979 0 0 0 1.342.356.974.974 0 0 0 .362-1.33Zm-.436 4.577a.894.894 0 0 0-.325 1.23.895.895 0 0 0 1.236.325.893.893 0 0 0 .331-1.224.907.907 0 0 0-1.242-.331Zm2.567 4.415a.768.768 0 0 0-.281 1.056.781.781 0 0 0 1.055.287.77.77 0 0 0 .287-1.055.778.778 0 0 0-1.061-.281m3.872 3.26a.696.696 0 0 0-.256.961.702.702 0 0 0 .961.256.69.69 0 0 0 .256-.955.71.71 0 0 0-.968-.256m4.79 1.805a.585.585 0 0 0-.219.799.59.59 0 0 0 .806.212.584.584 0 0 0 .218-.799.593.593 0 0 0-.805-.219m5.195-.031a.585.585 0 0 0-.218.799.597.597 0 0 0 .805.219.583.583 0 0 0 .219-.806.591.591 0 0 0-.806-.212Zm4.597-1.642a.537.537 0 0 0-.2.736c.15.262.487.344.743.2a.544.544 0 0 0 .206-.743.558.558 0 0 0-.749-.2m3.884-3.128a.447.447 0 0 0-.162.612.453.453 0 0 0 .618.156.44.44 0 0 0 .162-.606.448.448 0 0 0-.612-.168" style="stroke-width:1" transform="translate(-1578.383 -2340.94) scale(15.454)"/>
</svg>