<svg xmlns="http://www.w3.org/2000/svg" viewBox="0 0 500 500">
  <path d="M242 3h-19l-6 11-5 10-11 2-17 4-31 12c-2 1-2 1-3-1l-9-17-9-17H83c9 19 19 38 30 56l26 44 18 35-7 9-9 10-5 7c-5 8-8 14-10 22-2 7-3 8-7 12l-5 4-1 9-1 22c0 16 0 16 8 23l4 6v9c-1 11-2 16-5 23l-2 4 2 5c4 8 5 15 2 31l-1 8 1 3h-1c-1-2-1-2-4 9-4 11-9 26-13 33l-2 9c3 25 16 56 32 82 9 14 8 13 9 8l2-33 1-27 3-4c21-32 29-44 29-46l-2-17-2-16c0-2 0-3 3-4 5-2 4-2 7 12v9l6 4 7 5c1 0 1 4-1 29l-4 58-3 34v3l3-1c41-27 79-57 115-90l10-11 7 1c8 2 27 0 33-1 8-2 12-4 15-7 4-4 4-6-3-24-8-18-17-43-18-51-3-9-2-9 4 1l10 16c7 10 17 19 28 25 5 2 14 5 21 5h4l-7-7c-7-7-12-14-16-22-3-7-4-7-6-7-4-1-4 0 0 6 3 6 2 6-2 0l-4-6h-10l-2-3-8-8c-3-3-3-3-6-3h-4c0-1 0-2 4-2h5l5 5 4 4-2-4-13-36c1-2 1 0 4 8l14 35c1 2 2 2 4 2l3-1-6-13-10-21-6-12-1-6c0-2 1-1 3 5l5 11c2 4 2 1 0-8-5-12-8-24-7-25l11 38c0 3 3 8 7 18 7 13 7 13 10 13h3l-3-9c-10-29-12-41-13-92l-1-43c-5-59-21-100-48-125-8-7-16-14-25-19-11-5-23-9-35-11l5-10 6-9h-33Zm24 5-40 68-12 22a3623 3623 0 0 1-39 64l-41-72-23-38 1-2 4 2 4 7 3 4c16 32 33 63 52 94l32-51 23-40 16-29 14-23 1-3h-33l-8 13-21 38c-21 35-23 40-25 39-9-14-17-28-24-44l-14-25-9-17h-16l-15 1 14 26 2 3h17l15 28 22 40 6 12h7l19-33c14-22 20-33 19-35-1-1-1-4 1-6 3-3 10-1 10 3 0 3-4 7-6 7l-3 1-15 25-18 32-5 10c3 3 2 7-1 9-1 2-2 2-4 2-3 0-4 0-6-2-2-3-3-6-1-9l1-5-40-74-2-3h-19l-1-3-9-18-9-15h39l5 11 13 23 10 18 11 19 8 14 5-10 11-18 32-57c1-3 1-3 6-3h36Zm-1 26c1 20 2 40 1 60l-1 1V34Zm10 29-1 34-2-34V28s3 4 3 35Zm-14 6-1 25-2-34V32c1-3 2 7 3 37Zm24-34-1 11c-2 9-2 9 1 11s3 3 3 5c0 3 4 7 5 5l4-14 3-13v1l-11 45 3-15-3-2c-2-2-2-3-2-5 0-3-1-3-4-5-2-3-3-3-2-5l4-22v3Zm-88 10c1 3 0 4-1 1-2-3-2-3 0-3l1 2Zm-6 3c2 5 2 11 1 11 0 0-4-13-3-14s2 0 2 3Zm118-1-3 13-9 26a5649 5649 0 0 0 12-39Zm-56 20 3 27c-2-1-2-3-5-30-3-14-3-16-2-17l2-1 2 21Zm-66-12c2 7 2 10 1 10l-3-9-2-8c2-1 2 0 4 7Zm-18-2 5 16 4 13-9-29Zm11 7c4 10 5 14 3 14l-8-24h1l4 10Zm135-9-2 6-1 8 2 1 3-5c3-7 3-8 4-6l-6 16-6 8 5-11-2-2-2-3 5-14v2Zm12 10-8 19-12 26c-3 7-3 7-4 6s0-3 3-10l21-41Zm-86 9 3 9v6l-1 5v2l-1-3-2-3c-2-2-2-4-1-6V69c-1-4 0-6 1-6l1 7Zm91 6-1 3-11 19c-10 16-12 20-12 17l20-38c0-4 1-4 3-4l1 3Zm-96 4c2 12 2 14 1 14l-4-20c1-1 2 0 3 6Zm98 10-6 10c1 2-1 5-3 5l-6 8-6 7c-2 0-1-2 4-8l5-8c-1-2 1-6 3-6l7-9 7-9-5 10Zm-103-1c1 4 1 7-1 6l-2-11c1-2 2 0 3 5Zm116 3-4 5-24 27c0 1 0 3-2 1-1-1 0-2 5-7 23-27 25-29 25-26Zm-82 7c18 5 31 12 44 24 12 12 23 31 28 46 1 5 1 5-1 4-10-16-24-28-40-37-7-3-8-4-10-8-3-5-3-5-14-7-7-2-19-2-29 0-9 2-17 4-17 7l6-1c10-5 23-6 33-5s16 3 18 6l1 3-6-2c-10-2-29-2-37 0-15 4-24 9-33 17l-6 5-1-10v-13l9-14 6-10 7-3 12-3 30 1Zm87 7-9 9-14 14-5 4c-2 0 5-8 21-22l7-5Zm4 10Zm3 14-16 7 13-8h3v1Zm-83 3c22 5 44 21 56 41 24 38 29 85 13 127l-6-4c-5-5-5-5-4-7 8-11 11-36 7-48-3-6-7-11-13-14l-38-15c-33-12-43-15-81-33l-26-12-5-2 4-4 2-4h16l6-5c6-6 13-12 19-15l6-2 10 4c14 6 28 14 42 22 16 10 16 10 20 19l4 8 7 2 17 6c0-1-8-6-18-9-4-1-4-2-10-11-2-7-3-7-12-13-15-10-32-19-49-26l-7-3 17-4 23 2Zm88 13-26 12-1-1 25-12 2 1Zm-202 1c1 3 0 3-5 7-8 9-15 20-19 32l-5 4-4 3 1-2c6-17 17-32 31-45l1 1Zm203 10c0 1-3 2-16 5-8 2-10 2-10 1l20-6h6Zm-190 12c48 21 96 41 145 60 11 4 15 7 17 14 2 6 4 12 1 22-2 12-4 18-7 23-3 3-3 3-2 0s0-9-2-11c-3-3-6-5-27-12-32-13-37-14-40-14l-75 25-2 1v12l2 19 2 6-10 10-9 11c-1 2-1 2-10-12l-6-9 2-6 3-12c1-6 1-20-1-22-1-2-32-25-34-25-1 0-1 2 1 4l1 4v3l-3-4-3-5c-1-3 0-40 1-43l11-10 40-31 5 2Zm192 0v3h-5l-13-2-7-1 11-1 14 1Zm-16 9 8 1c2-2 5-1 6 0 1 3 1 4-1 5-3 1-5 1-5-1l-8-3-8-3c0-1 1-1 8 1Zm6 10 12 7-11-4-13-6c0-2 1-1 12 3Zm-4 10 6 5 10 9c0 1-1 1-12-8-7-6-9-9-8-9l4 3Zm12 36 5 9c0 2 0 2-8-9-6-9-9-14-5-9l8 9Zm0 13 5 12-13-22c0-2 0-2 8 10Zm-236 13-1 36c1 4 8 16 15 21l4 5v6l-2 29-2 33-1 21-4 69c0 2-9-11-14-24-11-20-19-47-19-57 0-5 2-5 2-1 5 19 12 37 20 55 6 12 6 13 6 9l1-21v-17c-1-1 0-22 2-22l2-8 3-47 1-16-4-5-6-6-2-3-1 6c-1 9-2 8-2-3l-3-12-2-7 1-4c3-7 4-15 5-28l1-12v3Zm149 6-4 13-4 13h1l6-13 4-12 13 6 15 5-5 14c-7 18-11 28-11 31l17 52 2 8-3 4c-8 13-37 35-76 64l-22 15-7 4 2-17c2-20 2-22 0-22l-3 19-1 22v2c39-26 76-55 110-87l3-4-4-13-15-47 15-43h3c1 1 1 1-4 13-6 17-9 25-9 29s3 15 4 14l6-4c5-4 5-5 3-5l-2-1c0-2 1-2 7-1 2 0 2 0 2 2l-2 8-2-2v-3l-6 5-6 5 15 40 1 4-7 7c-36 38-77 70-121 98l3-42 8-112c0-12 2-13 5-13 9-3 46-20 49-24 3-2 6-9 12-26l2-7c2-1 6 0 6 1Zm60 33 6 9c6 22 13 45 23 67l-13-10-13-10c-3-2-3-2-12-36l-5-22 4-2 4-2 6 6Zm-16 2 14 52 17 14 16 14v3c-2 1-2 1-3-1l-16-15-16-11a395 395 0 0 1-12-56Zm-9 4 1 4c0 1-3 2-5 1l1-3c1-3 1-3 3-2Zm-186 29 4 8c3 2 4 4 4 5l-5-3-3-4-1 4 1 5c3 3 1 8-1 7h-3c-1 0-2 2-1 3 1 2 0 3-2 10-2 8-2 8-3 7-1-3-1-4 1-11l3-9 1-2 1-9 2-9c1-5 2-6 2-2Zm188 12-1 3c-2 0-4-2-3-3h4Zm-198 34 11 22c0 4-3 12-4 12l-6-11-8-13 2-7 2-6 3 3Zm-7 11-1 4h-1v-3c1-3 2-3 2-1Z"/>
  <path d="M240 104v7l2 6 2-1-1-6c0-5-1-6-2-6h-1Zm-7 1v5c1 8 2 9 3 9 2 0 2 0 1-5l-2-9h-2Zm-8 2 3 12c1 2 2 3 3 1l-1-12-2-2-3 1Zm-69 75-22 17c-10 8-10 8-10 16l1 7v2l-2-2v21l18 13 18 16c3 3 3 3 3 15-1 11-1 12-4 17l-2 8 10 15 1 3 7-9 7-8-2-6-2-6c-2 0-2 1 0 7l1 4-2 3-5 6-4 3 1-25V173l-12 9Zm-14 36 2 3c-1 2 0 3 11 21l11 15-1 1-29-38c0-5 2-5 6-2Z"/>
  <path d="m258 223-1 15v6l-23 8-40 14c-19 6-18 5-18 21l1 9 1-9c0-10 0-11 2-13 1-1 10-5 41-16l41-13 25 9c42 15 42 15 45 20l1 3 1-2c1-10 2-19 1-22 0-4-3-10-5-12-2-4-3-1-1 2 3 5 5 10 4 20l-1 7-2-2-5-3-64-22-1-15-1-15c-1-1-1 2-1 10Z"/>
  <path d="m305 238 10 6 11 4v-1c0-2 0-2-13-7l-8-2Zm-1 11c0 1 2 2 10 4l11 4v-2l-20-8-1 2Zm-15 27v1l13 5 1-1c0-1-1-2-6-4l-7-3-1 2Zm-2 6c-1 3 0 4 5 6l7 3 1-2-6-4-7-3Zm-50 62-8 4-8 2v15l1 17c2 4 8 9 13 13 5 3 5 3 7 1l14-11 2-4v-31l-5-1-9-4c-5-2-5-2-7-1Zm7 3 9 5 3 1v27l-2 3-7 7c-8 6-7 5-13 1l-9-8c-2-3-2-3-3-17v-13l7-3 11-5 4 2Z"/>
  <path d="m235 357-3 2 3 7 5 6 7-13-4-2-4-2-4 2Z"/>
  <path d="M225 370c1 10 1 10 4 13l6 6 5 3 4-3 7-6c2-3 2-3 2-13v-8l-8 10-5 10-6-11-8-9-1 8Zm-111 16 8 14-5-12-3-2Z"/>
</svg>