<svg viewBox="0 0 202 45" xmlns="http://www.w3.org/2000/svg">
<path d="M36.0781 7.93899H38.3494L38.4756 10.715C39.0434 9.70556 39.8005 8.94846 40.7469 8.44373C41.6933 7.8759 42.7658 7.62354 43.9015 7.62354C44.9109 7.68663 45.8573 7.8759 46.7406 8.19136C47.5608 8.56991 48.3179 9.07464 48.9488 9.70556C49.5797 10.3365 50.0214 11.1567 50.3368 12.0399C50.6523 12.9232 50.8416 13.9958 50.8416 15.1314C50.8416 16.2671 50.6523 17.2765 50.3368 18.2229C50.0214 19.1693 49.5166 19.9264 48.9488 20.5573C48.3179 21.1882 47.6239 21.693 46.7406 22.0715C45.8573 22.4501 44.9109 22.5762 43.8384 22.5762C42.8289 22.5762 41.8195 22.3239 40.81 21.8822C39.8005 21.4406 39.0434 20.6835 38.4125 19.674V29.0116H36.0781V7.93899ZM43.6491 20.3049C45.1002 20.3049 46.2359 19.8633 47.1192 18.9169C48.0024 18.0337 48.4441 16.7087 48.4441 15.0683C48.4441 13.3649 48.0024 12.103 47.1192 11.2198C46.2359 10.3365 45.1002 9.89483 43.6491 9.89483C42.892 9.89483 42.198 10.021 41.6302 10.2734C40.9993 10.5257 40.4945 10.9043 40.0529 11.3459C39.6113 11.7876 39.2958 12.3554 39.0434 12.9863C38.7911 13.6172 38.6649 14.3112 38.6649 15.0683C38.6649 15.8254 38.7911 16.4564 39.0434 17.1504C39.2958 17.7813 39.6113 18.3491 40.0529 18.7907C40.4945 19.2324 40.9993 19.6109 41.6302 19.8633C42.2611 20.1788 42.892 20.3049 43.6491 20.3049Z" fill="black"/>
<path d="M56.7729 22.1977H54.4385V1.94531H56.7729V22.1977Z" fill="black"/>
<path d="M73.0501 22.1977L72.987 19.674C72.6715 20.1787 72.3561 20.5573 71.9775 20.9358C71.599 21.3144 71.1573 21.5667 70.7157 21.8191C70.274 22.0715 69.7693 22.2607 69.2646 22.3238C68.7598 22.45 68.2551 22.5131 67.7504 22.5131C66.7409 22.5131 65.7945 22.3238 64.8482 22.0084C63.9649 21.6298 63.1447 21.1882 62.5138 20.4942C61.8828 19.8633 61.315 19.0431 60.9365 18.1598C60.5579 17.2134 60.3687 16.204 60.3687 15.0052C60.3687 13.8065 60.5579 12.7339 60.9365 11.7875C61.315 10.8412 61.8198 10.0841 62.5138 9.45315C63.2078 8.82224 63.9649 8.3175 64.8482 8.00205C65.7314 7.68659 66.6778 7.49731 67.6873 7.49731C68.8229 7.49731 69.8324 7.74968 70.7788 8.19132C71.7251 8.63296 72.4191 9.39006 72.987 10.3995V7.81277H75.3214V22.1346H73.0501V22.1977ZM67.8135 9.8317C67.1195 9.8317 66.4254 9.95789 65.7945 10.2103C65.1636 10.4626 64.5958 10.7781 64.1541 11.2197C63.7125 11.6614 63.334 12.2292 63.0816 12.8601C62.8292 13.5541 62.703 14.2481 62.703 15.1314C62.703 15.9516 62.8292 16.6456 63.0816 17.2765C63.334 17.9074 63.7125 18.4753 64.1541 18.9169C64.5958 19.3585 65.1636 19.7371 65.7945 19.9894C66.4254 20.2418 67.1195 20.368 67.8135 20.368C68.9491 20.368 69.9586 20.1156 70.7157 19.6109C71.4728 19.1062 72.0406 18.4122 72.4822 17.6551C72.8608 16.898 73.0501 16.0147 73.0501 15.1314C73.0501 14.185 72.8608 13.3648 72.4822 12.6077C72.1037 11.8506 71.5359 11.1566 70.7157 10.6519C69.9586 10.0841 69.0122 9.8317 67.8135 9.8317Z" fill="black"/>
<path d="M91.6625 20.3682C90.9054 21.1253 90.0852 21.6931 89.2019 22.0717C88.3186 22.4502 87.3722 22.5764 86.3628 22.5764C85.3533 22.5764 84.3438 22.3871 83.4606 22.0717C82.5773 21.7562 81.7571 21.2515 81.0631 20.6205C80.3691 19.9896 79.8643 19.2325 79.4858 18.2862C79.1072 17.3398 78.918 16.2672 78.918 15.1316C78.918 13.9328 79.1072 12.9234 79.4858 11.977C79.8643 11.0306 80.4322 10.2735 81.0631 9.64261C81.7571 9.01169 82.5142 8.50696 83.4606 8.1915C84.3438 7.87604 85.3533 7.68677 86.3628 7.68677C87.3722 7.68677 88.2555 7.87604 89.1388 8.1915C89.959 8.57005 90.7792 9.07478 91.5994 9.83188L90.0852 11.4092C89.5804 10.9044 89.0126 10.5259 88.3817 10.3366C87.7508 10.0842 87.1199 9.95807 86.489 9.95807C85.795 9.95807 85.1009 10.0842 84.47 10.3366C83.8391 10.589 83.2713 10.9044 82.8296 11.3461C82.388 11.7877 82.0095 12.3555 81.7571 12.9865C81.5047 13.6174 81.3785 14.3745 81.3785 15.1947C81.3785 16.0149 81.5047 16.772 81.7571 17.466C82.0095 18.0969 82.388 18.6647 82.8927 19.1063C83.3344 19.548 83.9022 19.8634 84.5331 20.1158C85.164 20.3682 85.795 20.4944 86.489 20.4944C87.183 20.4944 87.8139 20.3682 88.5079 20.1158C89.1388 19.8634 89.7697 19.4849 90.2745 18.9802L91.6625 20.3682Z" fill="black"/>
<path d="M107.183 19.9895C106.426 20.8728 105.479 21.5037 104.344 21.9453C103.208 22.387 102.072 22.5762 101 22.5762C99.9271 22.5762 98.9177 22.387 97.9713 22.0715C97.0249 21.693 96.2678 21.2513 95.5738 20.5573C94.8798 19.9264 94.3751 19.1062 93.9965 18.1598C93.618 17.2135 93.4287 16.204 93.4287 15.0053C93.4287 13.9327 93.618 12.9232 93.9965 12.0399C94.3751 11.1567 94.8798 10.3365 95.5107 9.70556C96.1417 9.07464 96.9618 8.50682 97.8451 8.19136C98.7284 7.81281 99.7379 7.62354 100.81 7.62354C101.883 7.62354 102.892 7.81281 103.839 8.12827C104.785 8.44373 105.542 8.94846 106.236 9.64247C106.867 10.3365 107.372 11.2198 107.687 12.2292C108.003 13.3018 108.066 14.5005 107.94 15.8885H95.7631C95.8262 16.5825 96.0155 17.2135 96.2678 17.7813C96.5833 18.3491 96.9618 18.7907 97.4035 19.1693C97.8451 19.5478 98.4129 19.8633 98.9808 20.0526C99.6117 20.2419 100.243 20.368 100.937 20.368C101.315 20.368 101.757 20.3049 102.198 20.2419C102.64 20.1788 103.082 20.0526 103.46 19.9264C103.839 19.8002 104.217 19.6109 104.596 19.3586C104.974 19.1062 105.227 18.8538 105.479 18.6015L107.183 19.9895ZM105.732 13.9327C105.668 12.5447 105.227 11.4721 104.344 10.7781C103.46 10.0841 102.325 9.70556 100.937 9.70556C100.306 9.70556 99.7379 9.76865 99.17 9.95792C98.6022 10.1472 98.0975 10.3996 97.6558 10.715C97.2142 11.0936 96.8357 11.4721 96.5202 12.0399C96.2047 12.5447 96.0155 13.1756 95.8893 13.8696H105.732V13.9327Z" fill="black"/>
<path d="M115.259 7.87586H119.675V9.89479H115.259V17.7181C115.259 18.5383 115.448 19.2323 115.764 19.7371C116.079 20.2418 116.647 20.4942 117.53 20.4942C117.846 20.4942 118.161 20.4311 118.54 20.3049C118.855 20.1787 119.171 20.0525 119.549 19.9263L120.243 21.8822C119.297 22.3238 118.414 22.5762 117.467 22.5762C115.89 22.6393 114.754 22.1976 114.06 21.3775C113.366 20.4942 112.988 19.2954 112.988 17.7181V9.89479H110.022V7.87586H112.862V4.02727L115.259 3.7749V7.87586Z" fill="black"/>
<path d="M121.82 15.0684C121.82 13.9959 122.009 12.9864 122.388 12.0401C122.766 11.0937 123.271 10.3366 123.965 9.64257C124.596 9.01165 125.416 8.44383 126.299 8.12837C127.183 7.74982 128.192 7.56055 129.265 7.56055C130.337 7.56055 131.347 7.74982 132.23 8.12837C133.176 8.50692 133.933 9.01165 134.627 9.64257C135.321 10.2735 135.826 11.0937 136.205 12.0401C136.583 12.9864 136.773 13.9959 136.773 15.0684C136.773 16.141 136.583 17.1505 136.205 18.0968C135.826 19.0432 135.321 19.8003 134.627 20.4312C133.933 21.0621 133.176 21.63 132.23 21.9454C131.284 22.324 130.337 22.5133 129.265 22.5133C128.192 22.5133 127.183 22.324 126.299 21.9454C125.416 21.5669 124.596 21.0621 123.965 20.4312C123.271 19.8003 122.766 18.9801 122.388 18.0968C122.009 17.2136 121.82 16.2041 121.82 15.0684ZM134.312 15.0684C134.312 14.2483 134.186 13.5542 133.933 12.9233C133.681 12.2924 133.302 11.7246 132.861 11.283C132.419 10.8413 131.851 10.4628 131.284 10.2104C130.653 9.95803 130.022 9.83184 129.265 9.83184C128.508 9.83184 127.877 9.95803 127.246 10.2104C126.615 10.4628 126.11 10.8413 125.668 11.283C125.227 11.7246 124.848 12.2924 124.596 12.9233C124.343 13.5542 124.217 14.3113 124.217 15.0684C124.217 15.8255 124.343 16.5196 124.596 17.2136C124.848 17.8445 125.227 18.4123 125.668 18.8539C126.11 19.2956 126.615 19.6741 127.246 19.9265C127.877 20.1789 128.508 20.3051 129.265 20.3051C130.022 20.3051 130.653 20.1789 131.284 19.9265C131.914 19.6741 132.482 19.2956 132.924 18.8539C133.366 18.4123 133.744 17.8445 133.997 17.2136C134.186 16.5826 134.312 15.8886 134.312 15.0684Z" fill="black"/>
<path d="M140.368 7.93899H142.639L142.766 10.715C143.333 9.70556 144.091 8.94846 145.037 8.44373C145.983 7.8759 147.056 7.62354 148.192 7.62354C149.201 7.68663 150.147 7.8759 151.031 8.19136C151.851 8.56991 152.608 9.07464 153.239 9.70556C153.87 10.3365 154.311 11.1567 154.627 12.0399C154.942 12.9232 155.132 13.9958 155.132 15.1314C155.132 16.2671 154.942 17.2765 154.627 18.2229C154.311 19.1693 153.807 19.9264 153.239 20.5573C152.608 21.1882 151.914 21.693 151.031 22.0715C150.147 22.4501 149.201 22.5762 148.128 22.5762C147.119 22.5762 146.109 22.3239 145.1 21.8822C144.091 21.4406 143.333 20.6835 142.703 19.674V29.0116H140.368V7.93899ZM147.939 20.3049C149.39 20.3049 150.526 19.8633 151.409 18.9169C152.292 18.0337 152.734 16.7087 152.734 15.0683C152.734 13.3649 152.292 12.103 151.409 11.2198C150.526 10.3365 149.39 9.89483 147.939 9.89483C147.182 9.89483 146.488 10.021 145.92 10.2734C145.289 10.5257 144.785 10.9043 144.343 11.3459C143.901 11.7876 143.586 12.3554 143.333 12.9863C143.081 13.6172 142.955 14.3112 142.955 15.0683C142.955 15.8254 143.081 16.4564 143.333 17.1504C143.586 17.7813 143.901 18.3491 144.343 18.7907C144.785 19.2324 145.289 19.6109 145.92 19.8633C146.551 20.1788 147.245 20.3049 147.939 20.3049Z" fill="black"/>
<path d="M170.337 22.1977L170.274 19.674C169.959 20.1787 169.643 20.5573 169.265 20.9358C168.886 21.3144 168.444 21.5667 168.003 21.8191C167.561 22.0715 167.056 22.2607 166.552 22.3238C166.047 22.45 165.542 22.5131 165.037 22.5131C164.028 22.5131 163.082 22.3238 162.135 22.0084C161.252 21.6298 160.432 21.1882 159.801 20.4942C159.17 19.8633 158.602 19.0431 158.224 18.1598C157.845 17.2134 157.656 16.204 157.656 15.0052C157.656 13.8065 157.845 12.7339 158.224 11.7875C158.602 10.8412 159.107 10.0841 159.801 9.45315C160.495 8.82224 161.252 8.3175 162.135 8.00205C163.019 7.68659 163.965 7.49731 164.974 7.49731C166.11 7.49731 167.12 7.74968 168.066 8.19132C169.012 8.63296 169.706 9.39006 170.274 10.3995V7.81277H172.608V22.1346H170.337V22.1977ZM165.101 9.8317C164.407 9.8317 163.713 9.95789 163.082 10.2103C162.451 10.4626 161.883 10.7781 161.441 11.2197C161 11.6614 160.621 12.2292 160.369 12.8601C160.116 13.5541 159.99 14.2481 159.99 15.1314C159.99 15.9516 160.116 16.6456 160.369 17.2765C160.621 17.9074 161 18.4753 161.441 18.9169C161.883 19.3585 162.451 19.7371 163.082 19.9894C163.713 20.2418 164.407 20.368 165.101 20.368C166.236 20.368 167.246 20.1156 168.003 19.6109C168.76 19.1062 169.328 18.4122 169.769 17.6551C170.148 16.898 170.337 16.0147 170.337 15.1314C170.337 14.185 170.148 13.3648 169.769 12.6077C169.391 11.8506 168.823 11.1566 168.003 10.6519C167.246 10.0841 166.236 9.8317 165.101 9.8317Z" fill="black"/>
<path d="M181.063 29.0117H178.476L181.505 22.0085L175.7 7.93907H178.413L181.252 15.3208L182.83 19.4217L184.344 15.3208L187.498 7.87598H190.085L181.063 29.0117Z" fill="black"/>
<path d="M121.126 40.4938C121.378 40.0521 121.504 39.5474 121.504 38.8534C121.504 38.2225 121.378 37.7808 121.126 37.3392C120.873 36.9606 120.495 36.7714 119.99 36.7714C119.548 36.7714 119.17 36.9606 118.854 37.2761C118.539 37.5915 118.35 38.1594 118.35 38.8534C118.35 39.4212 118.413 39.7998 118.539 40.1783C118.791 40.8092 119.296 41.1247 119.99 41.1247C120.432 41.1247 120.873 40.9354 121.126 40.4938ZM117.403 33.8691H118.35V36.7714C118.539 36.519 118.791 36.2666 119.107 36.1404C119.422 36.0143 119.738 35.9512 120.053 35.9512C120.747 35.9512 121.378 36.2035 121.82 36.7083C122.261 37.213 122.514 37.907 122.514 38.8534C122.514 39.7367 122.324 40.4938 121.883 41.1247C121.441 41.7556 120.81 42.008 120.053 42.008C119.612 42.008 119.233 41.8818 118.918 41.6925C118.728 41.5663 118.539 41.377 118.35 41.1247V41.8818H117.466V33.8691H117.403Z" fill="black"/>
<path d="M126.804 36.0774H127.876C127.75 36.4559 127.435 37.2761 126.993 38.6011C126.615 39.6105 126.362 40.3676 126.11 40.9985C125.542 42.4496 125.163 43.3329 124.911 43.6484C124.659 43.9638 124.28 44.1531 123.712 44.1531C123.586 44.1531 123.46 44.1531 123.397 44.1531C123.334 44.1531 123.208 44.1531 123.144 44.09V43.2067C123.334 43.2698 123.46 43.2698 123.523 43.2698C123.586 43.2698 123.649 43.2698 123.712 43.2698C123.902 43.2698 124.028 43.2698 124.091 43.2067C124.154 43.1436 124.217 43.0806 124.28 43.0175C124.28 43.0175 124.343 42.8282 124.469 42.5758C124.596 42.3235 124.659 42.1342 124.722 42.008L122.577 36.1405H123.649L125.163 40.8093L126.804 36.0774Z" fill="black"/>
<path d="M139.107 38.6643C139.107 37.7179 138.791 37.0239 138.16 36.5191C137.529 36.0775 136.772 35.8251 135.826 35.8251C135.384 35.8251 135.006 35.8882 134.627 36.0144C134.248 36.1406 133.87 36.3299 133.554 36.5191C133.239 36.7715 132.987 37.0239 132.797 37.4024C132.608 37.781 132.419 38.1595 132.356 38.6643H139.107ZM140.116 42.7652C139.611 43.333 138.98 43.7747 138.16 44.0901C137.403 44.3425 136.646 44.5318 135.889 44.5318C135.132 44.5318 134.438 44.4056 133.807 44.1532C133.176 43.9009 132.608 43.5854 132.166 43.1438C131.725 42.7021 131.346 42.1343 131.094 41.5034C130.842 40.8725 130.715 40.1784 130.715 39.3583C130.715 38.6012 130.842 37.9702 131.094 37.3393C131.346 36.7084 131.725 36.2037 132.166 35.762C132.608 35.3204 133.176 34.9418 133.744 34.7526C134.375 34.5002 135.069 34.374 135.763 34.374C136.52 34.374 137.214 34.5002 137.845 34.6895C138.476 34.9418 139.043 35.2573 139.485 35.6989C139.927 36.1406 140.242 36.7715 140.495 37.4655C140.684 38.1595 140.747 38.9797 140.684 39.9261H132.356C132.419 40.3677 132.545 40.8094 132.734 41.1879C132.924 41.5665 133.176 41.8819 133.491 42.1343C133.807 42.3867 134.185 42.5759 134.564 42.7652C135.006 42.8914 135.447 42.9545 135.889 42.9545C136.141 42.9545 136.457 42.9545 136.772 42.8914C137.088 42.8283 137.34 42.7652 137.655 42.639C137.908 42.5128 138.16 42.3867 138.413 42.2605C138.665 42.1343 138.854 41.945 139.043 41.7557L140.116 42.7652Z" fill="black"/>
<path d="M142.766 34.6265L144.343 38.3489L145.983 42.576L147.624 38.412L149.201 34.6265H151.031L146.867 44.2795H145.1L140.999 34.6265H142.766Z" fill="black"/>
<path d="M159.612 38.6643C159.612 37.7179 159.296 37.0239 158.665 36.5191C158.097 36.0775 157.277 35.8251 156.331 35.8251C155.889 35.8251 155.511 35.8882 155.132 36.0144C154.753 36.1406 154.375 36.3299 154.059 36.5191C153.744 36.7715 153.492 37.0239 153.302 37.4024C153.113 37.781 152.924 38.1595 152.861 38.6643H159.612ZM160.558 42.7652C160.053 43.333 159.422 43.7747 158.602 44.0901C157.845 44.3425 157.088 44.5318 156.331 44.5318C155.574 44.5318 154.88 44.4056 154.249 44.1532C153.618 43.9009 153.05 43.5854 152.608 43.1438C152.167 42.7021 151.788 42.1343 151.536 41.5034C151.283 40.8725 151.157 40.1784 151.157 39.3583C151.157 38.6012 151.283 37.9702 151.536 37.3393C151.788 36.7084 152.104 36.2037 152.608 35.762C153.05 35.3204 153.618 34.9418 154.186 34.7526C154.817 34.5002 155.511 34.374 156.205 34.374C156.962 34.374 157.656 34.5002 158.287 34.6895C158.917 34.9418 159.485 35.2573 159.927 35.6989C160.369 36.1406 160.684 36.7715 160.936 37.4655C161.126 38.1595 161.189 38.9797 161.126 39.9261H152.798C152.861 40.3677 152.987 40.8094 153.176 41.1879C153.365 41.5665 153.618 41.8819 153.933 42.1343C154.249 42.3867 154.627 42.5759 155.006 42.7652C155.447 42.8914 155.826 42.9545 156.331 42.9545C156.583 42.9545 156.899 42.9545 157.214 42.8914C157.529 42.8283 157.782 42.7652 158.097 42.639C158.35 42.5128 158.665 42.3867 158.854 42.2605C159.107 42.1343 159.296 41.945 159.485 41.7557L160.558 42.7652Z" fill="black"/>
<path d="M164.532 36.0144C164.911 35.3835 165.352 34.9418 165.857 34.7526C166.425 34.5002 166.93 34.374 167.497 34.374C167.939 34.374 168.318 34.4371 168.696 34.5633C169.075 34.6895 169.453 34.8788 169.769 35.1311L169.012 36.5191C168.759 36.3299 168.507 36.2037 168.192 36.0775C167.939 36.0144 167.624 35.9513 167.308 35.9513C166.93 35.9513 166.551 36.0144 166.173 36.1406C165.857 36.2668 165.542 36.456 165.289 36.7084C165.037 36.9608 164.848 37.2762 164.658 37.5917C164.532 37.9702 164.406 38.3488 164.406 38.7904V44.2163H162.766V34.6264H164.28L164.532 36.0144Z" fill="black"/>
<path d="M175.131 34.5632H178.16V35.9513H175.131V41.1879C175.131 41.7557 175.257 42.1973 175.447 42.5759C175.636 42.8913 176.078 43.0806 176.645 43.0806C176.898 43.0806 177.087 43.0175 177.339 42.9544C177.592 42.8913 177.781 42.7652 178.033 42.7021L178.538 44.027C177.907 44.3424 177.276 44.4686 176.645 44.4686C175.573 44.4686 174.816 44.2163 174.311 43.6484C173.806 43.0806 173.554 42.2604 173.554 41.1879V35.8882H171.598V34.5002H173.554V31.9134L175.194 31.7241V34.5632H175.131Z" fill="black"/>
<path d="M187.309 38.6643C187.309 37.7179 186.993 37.0239 186.362 36.5191C185.795 36.0775 184.974 35.8251 184.028 35.8251C183.586 35.8251 183.208 35.8882 182.829 36.0144C182.451 36.1406 182.072 36.3299 181.757 36.5191C181.441 36.7715 181.189 37.0239 181 37.4024C180.81 37.781 180.621 38.1595 180.558 38.6643H187.309ZM188.255 42.7652C187.75 43.333 187.119 43.7747 186.299 44.0901C185.542 44.3425 184.785 44.5318 184.028 44.5318C183.271 44.5318 182.577 44.4056 181.946 44.1532C181.315 43.9009 180.747 43.5854 180.306 43.1438C179.864 42.7021 179.485 42.1343 179.233 41.5034C178.981 40.8725 178.854 40.1784 178.854 39.3583C178.854 38.6012 178.981 37.9702 179.233 37.3393C179.485 36.7084 179.864 36.2037 180.306 35.762C180.747 35.3204 181.315 34.9418 181.883 34.7526C182.514 34.5002 183.208 34.374 183.902 34.374C184.659 34.374 185.353 34.5002 185.984 34.6895C186.615 34.9418 187.183 35.2573 187.624 35.6989C188.066 36.1406 188.381 36.7715 188.634 37.4655C188.823 38.1595 188.886 38.9797 188.823 39.9261H180.495C180.558 40.3677 180.684 40.8094 180.873 41.1879C181.063 41.5665 181.315 41.8819 181.631 42.1343C181.946 42.3867 182.325 42.5759 182.703 42.7652C183.145 42.8914 183.586 42.9545 184.028 42.9545C184.28 42.9545 184.596 42.9545 184.911 42.8914C185.227 42.8283 185.479 42.7652 185.795 42.639C186.047 42.5128 186.362 42.3867 186.552 42.2605C186.804 42.1343 186.993 41.945 187.183 41.7557L188.255 42.7652Z" fill="black"/>
<path d="M199.107 43.0177C198.602 43.5224 198.034 43.901 197.404 44.1534C196.773 44.4057 196.142 44.5319 195.448 44.5319C194.754 44.5319 194.06 44.4057 193.492 44.2165C192.861 43.9641 192.356 43.6486 191.852 43.207C191.41 42.7653 191.031 42.2606 190.779 41.6297C190.527 40.9988 190.4 40.3048 190.4 39.4846C190.4 38.6644 190.527 37.9704 190.779 37.3395C191.031 36.7086 191.41 36.2038 191.852 35.7622C192.293 35.3205 192.861 35.0051 193.492 34.7527C194.123 34.5003 194.754 34.4373 195.511 34.4373C196.205 34.4373 196.836 34.5634 197.404 34.8158C197.971 35.0682 198.539 35.4467 199.044 35.8884L197.971 36.9609C197.656 36.6455 197.214 36.3931 196.836 36.2038C196.394 36.0776 195.952 35.9515 195.511 35.9515C195.006 35.9515 194.564 36.0145 194.123 36.2038C193.681 36.3931 193.303 36.5824 192.987 36.8978C192.672 37.2133 192.419 37.5918 192.23 38.0335C192.041 38.4751 191.978 38.9799 191.978 39.4846C191.978 40.0524 192.041 40.5571 192.23 40.9988C192.419 41.4404 192.672 41.819 192.987 42.1344C193.303 42.4499 193.681 42.6392 194.123 42.8284C194.564 42.9546 195.006 43.0808 195.448 43.0808C195.889 43.0808 196.394 43.0177 196.836 42.8284C197.277 42.6392 197.656 42.3868 198.034 42.0713L199.107 43.0177Z" fill="black"/>
<path d="M200.684 35.2573V35.5096H200.936C200.999 35.5096 200.999 35.5096 201.062 35.4466L201.125 35.3835C201.125 35.3204 201.125 35.3204 201.062 35.3204C201.062 35.3204 200.999 35.2573 200.936 35.2573H200.684ZM200.936 35.6358L201.188 35.8882V35.9513H200.999L200.747 35.6358H200.621V35.9513H200.494V35.1311H200.873C200.936 35.1311 200.999 35.1311 200.999 35.1942C201.062 35.1942 201.062 35.2573 201.125 35.2573C201.125 35.3204 201.188 35.3204 201.188 35.3835C201.188 35.4466 201.188 35.4466 201.188 35.5096C201.188 35.5727 201.125 35.5727 201.125 35.6358C201.062 35.5727 200.999 35.6358 200.936 35.6358ZM200.179 35.5096C200.179 35.5727 200.179 35.6989 200.242 35.762C200.242 35.8251 200.305 35.8882 200.368 35.9513C200.431 36.0144 200.494 36.0775 200.557 36.0775C200.621 36.1406 200.747 36.1406 200.81 36.1406C200.936 36.1406 200.999 36.1406 201.062 36.0775C201.125 36.0144 201.188 36.0144 201.251 35.9513C201.315 35.8882 201.315 35.8251 201.378 35.762C201.378 35.6989 201.441 35.5727 201.441 35.5096C201.441 35.4466 201.441 35.3204 201.378 35.2573C201.378 35.1942 201.315 35.1311 201.251 35.068C201.188 35.0049 201.125 34.9418 201.062 34.9418C200.999 34.8787 200.873 34.8787 200.81 34.8787C200.684 34.8787 200.621 34.8787 200.557 34.9418C200.494 35.0049 200.431 35.0049 200.368 35.068C200.305 35.1311 200.242 35.1942 200.242 35.2573C200.179 35.3204 200.179 35.4466 200.179 35.5096ZM200.81 34.6895C200.936 34.6895 201.062 34.6895 201.125 34.7525C201.251 34.8156 201.315 34.8787 201.378 34.9418C201.441 35.0049 201.504 35.1311 201.504 35.1942C201.567 35.3204 201.567 35.3835 201.567 35.5096C201.567 35.6358 201.567 35.6989 201.504 35.8251C201.441 35.9513 201.441 36.0144 201.378 36.0775C201.315 36.1406 201.251 36.2037 201.125 36.2667C200.999 36.3298 200.936 36.3298 200.81 36.3298C200.684 36.3298 200.557 36.3298 200.494 36.2667C200.368 36.2037 200.305 36.1406 200.242 36.0775C200.179 36.0144 200.116 35.8882 200.116 35.8251C200.053 35.6989 200.053 35.6358 200.053 35.5096C200.053 35.3835 200.053 35.3204 200.116 35.1942C200.179 35.068 200.179 35.0049 200.242 34.9418C200.305 34.8787 200.368 34.8156 200.494 34.7525C200.557 34.7525 200.684 34.6895 200.81 34.6895Z" fill="black"/>
<path d="M30.9671 14.0587C30.3992 13.0493 29.0743 12.7338 28.0648 13.3016C27.0554 13.8695 26.7399 15.1313 27.3078 16.1408C27.8756 17.1502 29.2005 17.4657 30.21 16.8979C31.2194 16.33 31.5349 15.0051 30.9671 14.0587Z" fill="black"/>
<path d="M23.6488 13.4279C22.7655 13.9326 22.45 15.0683 22.9548 16.0146C23.4595 16.8979 24.6582 17.2134 25.5415 16.7087C26.4248 16.2039 26.7402 15.0683 26.2355 14.1219C25.7308 13.2386 24.532 12.9232 23.6488 13.4279Z" fill="black"/>
<path d="M19.1687 13.6171C18.3485 14.0588 18.0961 15.0682 18.5378 15.8884C18.9794 16.7086 20.052 16.961 20.8091 16.5193C21.6293 16.0777 21.8816 15.0682 21.44 14.2481C20.9984 13.4279 19.9889 13.1755 19.1687 13.6171Z" fill="black"/>
<path d="M18.4747 12.4813C19.1687 12.0397 19.421 11.1564 19.0425 10.4624C18.6008 9.7684 17.7176 9.51604 16.9605 9.89459C16.2665 10.3362 16.0141 11.2195 16.3926 11.9135C16.8343 12.6075 17.7806 12.8599 18.4747 12.4813Z" fill="black"/>
<path d="M12.5442 10.0839C11.9133 10.4624 11.724 11.2195 12.0395 11.8504C12.4181 12.4814 13.1752 12.6706 13.8061 12.2921C14.437 11.9135 14.6263 11.1564 14.3108 10.5255C13.9323 9.8946 13.1752 9.70533 12.5442 10.0839Z" fill="black"/>
<path d="M10.3995 14.1218C9.89474 14.4373 9.70547 15.0682 10.0209 15.5729C10.3364 16.0777 10.9673 16.2669 11.472 15.9515C11.9768 15.636 12.166 15.0051 11.8506 14.5004C11.5351 14.0587 10.9042 13.8695 10.3995 14.1218Z" fill="black"/>
<path d="M12.7336 18.2228C12.292 18.4752 12.1658 18.9799 12.4182 19.4216C12.6705 19.8632 13.1753 19.9894 13.6169 19.737C14.0586 19.4847 14.1847 18.9799 13.9324 18.5383C13.7431 18.1597 13.1753 17.9705 12.7336 18.2228Z" fill="black"/>
<path d="M24.2159 12.0397C25.0361 11.5981 25.2885 10.5255 24.8468 9.70533C24.3421 8.88514 23.3326 8.63277 22.5125 9.07441C21.6923 9.51605 21.4399 10.5886 21.8815 11.4088C22.3863 12.229 23.3957 12.4814 24.2159 12.0397Z" fill="black"/>
<path d="M18.6013 8.06493C19.0429 8.82202 20.0524 9.07439 20.8095 8.63275C21.5666 8.19111 21.819 7.18164 21.3773 6.42454C20.9357 5.66744 19.9262 5.41508 19.1691 5.85672C18.4751 6.29836 18.1596 7.24473 18.6013 8.06493Z" fill="black"/>
<path d="M16.7716 5.28914C16.393 4.59514 15.5098 4.34277 14.8158 4.78441C14.1217 5.16296 13.8694 6.04624 14.311 6.74025C14.6896 7.43426 15.6359 7.68662 16.2669 7.24498C16.8978 6.86643 17.1501 5.98315 16.7716 5.28914Z" fill="black"/>
<path d="M11.598 8.44351C12.2289 8.06496 12.4812 7.24476 12.1027 6.55076C11.7241 5.91984 10.9039 5.66747 10.2099 6.04602C9.57902 6.42457 9.32665 7.24476 9.7052 7.93877C10.0838 8.56969 10.967 8.82205 11.598 8.44351Z" fill="black"/>
<path d="M8.19127 11.598C8.7591 11.2825 8.94837 10.5254 8.63292 9.95762C8.31746 9.3898 7.56036 9.20052 6.99253 9.51598C6.42471 9.83144 6.23543 10.5885 6.55089 11.1564C6.86635 11.7242 7.62345 11.9135 8.19127 11.598Z" fill="black"/>
<path d="M7.2448 14.5633C6.99243 14.0586 6.36152 13.9324 5.85678 14.1848C5.35205 14.4371 5.22587 15.0681 5.47823 15.5097C5.7306 16.0144 6.36152 16.1406 6.86625 15.8882C7.37098 15.6359 7.49717 15.0681 7.2448 14.5633Z" fill="black"/>
<path d="M8.31748 19.1691C8.06512 18.7906 7.56038 18.6013 7.18183 18.8537C6.80328 19.106 6.61401 19.6108 6.86637 19.9893C7.11874 20.3679 7.62347 20.5572 8.00202 20.3048C8.44367 20.0524 8.56985 19.5477 8.31748 19.1691Z" fill="black"/>
<path d="M10.5258 22.1976C10.1472 22.3868 10.021 22.8916 10.2734 23.2701C10.4627 23.6487 10.9674 23.7749 11.3459 23.5225C11.7245 23.3332 11.8507 22.8285 11.6614 22.4499C11.409 22.1345 10.9043 22.0083 10.5258 22.1976Z" fill="black"/>
<path d="M15.1313 23.5225C14.8159 23.7118 14.6897 24.0903 14.879 24.4058C15.0682 24.7213 15.4468 24.8474 15.7623 24.6582C16.0777 24.4689 16.2039 24.0903 16.0146 23.7749C15.8884 23.4594 15.4468 23.3332 15.1313 23.5225Z" fill="black"/>
<path d="M19.7365 22.3868C19.4841 22.513 19.3579 22.8916 19.5472 23.1439C19.6734 23.3963 20.0519 23.5225 20.3043 23.3332C20.5567 23.207 20.6828 22.8285 20.4936 22.5761C20.3674 22.3237 20.0519 22.2606 19.7365 22.3868Z" fill="black"/>
<path d="M29.2639 12.0397C30.1472 11.535 30.4626 10.3362 29.9579 9.45296C29.4531 8.56967 28.2544 8.25422 27.3711 8.75895C26.4247 9.26368 26.1724 10.4624 26.6771 11.3457C27.1818 12.229 28.3806 12.5444 29.2639 12.0397Z" fill="black"/>
<path d="M26.8027 7.87559C27.686 7.37086 27.9383 6.2983 27.4967 5.41502C26.992 4.53174 25.8563 4.27937 25.0361 4.7841C24.1528 5.28883 23.9005 6.36139 24.4052 7.24467C24.8468 8.06486 25.9825 8.38032 26.8027 7.87559Z" fill="black"/>
<path d="M23.081 4.72109C23.8381 4.27945 24.1535 3.26999 23.7119 2.51289C23.2702 1.75579 22.2608 1.44033 21.5037 1.94506C20.7466 2.3867 20.4311 3.39617 20.8728 4.15327C21.3144 4.91037 22.3239 5.16273 23.081 4.72109Z" fill="black"/>
<path d="M18.6012 3.0178C19.3583 2.57616 19.6107 1.62978 19.169 0.935775C18.7274 0.178675 17.781 -0.0736909 17.0239 0.36795C16.2668 0.809591 16.0144 1.75597 16.4561 2.44997C16.8977 3.20707 17.8441 3.45944 18.6012 3.0178Z" fill="black"/>
<path d="M13.8061 2.8915C14.437 2.51295 14.6894 1.69276 14.3108 0.998755C13.9323 0.367839 13.1121 0.115473 12.4181 0.494022C11.7241 0.872572 11.5348 1.69276 11.9134 2.38677C12.2919 3.08078 13.1121 3.27005 13.8061 2.8915Z" fill="black"/>
<path d="M9.76881 2.7022C9.39026 2.07128 8.63316 1.882 8.00224 2.19746C7.37133 2.57601 7.18205 3.33311 7.49751 3.96403C7.87606 4.59494 8.63316 4.78422 9.26408 4.40567C9.89499 4.09021 10.1474 3.33311 9.76881 2.7022Z" fill="black"/>
<path d="M5.60426 7.30782C6.17208 6.99236 6.36136 6.29835 6.0459 5.73053C5.73044 5.22579 5.03643 5.03652 4.46861 5.35198C3.90078 5.66744 3.71151 6.36144 4.02697 6.92927C4.34242 7.434 5.03643 7.62328 5.60426 7.30782Z" fill="black"/>
<path d="M2.13434 9.45305C1.6296 9.76851 1.44033 10.3994 1.75579 10.9042C2.07124 11.4089 2.70216 11.5982 3.20689 11.2827C3.71163 10.9673 3.9009 10.3363 3.58544 9.8316C3.26998 9.32687 2.63907 9.13759 2.13434 9.45305Z" fill="black"/>
<path d="M2.63902 14.6267C2.38665 14.1851 1.81883 14.0589 1.37719 14.3112C0.935545 14.5636 0.809362 15.1314 1.06173 15.5731C1.31409 16.0147 1.88192 16.1409 2.32356 15.8885C2.70211 15.6362 2.89138 15.0683 2.63902 14.6267Z" fill="black"/>
<path d="M2.19746 18.9168C1.81891 19.1692 1.62963 19.6739 1.882 20.0524C2.13437 20.4941 2.6391 20.6203 3.08074 20.3679C3.52238 20.1155 3.64856 19.6108 3.3962 19.2323C3.14383 18.8537 2.6391 18.7275 2.19746 18.9168Z" fill="black"/>
<path d="M4.65797 23.1439C4.27942 23.3332 4.21633 23.7748 4.4056 24.1533C4.59488 24.5319 5.03652 24.595 5.41507 24.4057C5.79362 24.2164 5.9198 23.7748 5.66743 23.3962C5.41507 23.0177 4.97342 22.9546 4.65797 23.1439Z" fill="black"/>
<path d="M8.31737 26.2354C8.00191 26.4247 7.87573 26.8032 8.065 27.1187C8.25428 27.4342 8.63283 27.5603 8.94829 27.3711C9.26375 27.1818 9.38993 26.8032 9.20065 26.4878C9.01138 26.1723 8.63283 26.0461 8.31737 26.2354Z" fill="black"/>
<path d="M12.797 27.9388C12.5446 28.065 12.4185 28.4435 12.6077 28.6959C12.7339 28.9483 13.1125 29.0744 13.3648 28.8852C13.6172 28.759 13.7434 28.3804 13.5541 28.1281C13.4279 27.8757 13.1125 27.7495 12.797 27.9388Z" fill="black"/>
<path d="M17.7179 27.8758C17.4655 28.002 17.3394 28.3806 17.5286 28.6329C17.6548 28.8853 18.0334 29.0115 18.2857 28.8222C18.5381 28.696 18.6643 28.3175 18.475 28.0651C18.3488 27.8127 18.0334 27.7497 17.7179 27.8758Z" fill="black"/>
<path d="M22.0712 26.3616C21.8188 26.4878 21.7558 26.8033 21.8819 27.0556C22.0081 27.308 22.3236 27.3711 22.5759 27.2449C22.8283 27.1187 22.8914 26.8033 22.7652 26.5509C22.639 26.2985 22.3236 26.1724 22.0712 26.3616Z" fill="black"/>
<path d="M25.7939 23.3962C25.6046 23.5224 25.5415 23.7748 25.6677 23.964C25.7939 24.1533 26.0462 24.2164 26.2355 24.0902C26.4248 23.964 26.4879 23.7117 26.3617 23.5224C26.2355 23.3331 25.9832 23.27 25.7939 23.3962Z" fill="black"/>
</svg>
