<svg xmlns="http://www.w3.org/2000/svg" fill="none" viewBox="0 0 60 40"><path fill="#E0E0E0" fill-rule="evenodd" d="M55 40H5c-2.5 0-5-2.5-5-5V5c0-2.5 2.5-5 5-5h50c2.5 0 5 2.5 5 5v30c0 2.5-2.5 5-5 5Z" clip-rule="evenodd"/><path fill="#DEE1E6" d="M42.498 12.561H15.492v2.76h27.006v-2.76ZM41.592 15.321H16.398v16.723h25.194V15.321Z"/><path fill="#fff" d="M17.77 17.783h-2.746v11.799h2.747v-11.8Z"/><path fill="#DEE1E6" d="M17.77 17.783h-1.372v11.799h1.373v-11.8Z"/><path fill="#fff" d="M14.18 17.29v-1.476c0-.273.206-.493.459-.493h3.516c.253 0 .458.22.458.492v1.478c0 .272-.205.492-.458.492h-3.516c-.253 0-.458-.22-.458-.492Z"/><path fill="#DEE1E6" d="M18.156 15.321h-1.788v2.462h1.788c.253 0 .457-.22.457-.492v-1.478c0-.272-.204-.492-.457-.492Z"/><path fill="#fff" d="M14.18 31.552v-1.477c0-.273.206-.493.459-.493h3.516c.253 0 .458.22.458.492v1.478c0 .272-.205.492-.458.492h-3.516c-.253 0-.458-.22-.458-.492Z"/><path fill="#DEE1E6" d="M18.156 29.582h-1.788v2.462h1.788c.253 0 .457-.22.457-.492v-1.477c0-.273-.204-.493-.457-.493Z"/><path fill="#fff" d="M42.473 17.783h-2.746v11.799h2.746v-11.8Z"/><path fill="#DEE1E6" d="M42.471 17.783H41.1v11.799h1.373v-11.8Z"/><path fill="#fff" d="M38.883 17.29v-1.476c0-.273.205-.493.458-.493h3.516c.253 0 .458.22.458.492v1.478c0 .272-.205.492-.458.492h-3.516c-.253 0-.458-.22-.458-.492Z"/><path fill="#DEE1E6" d="M42.858 15.321H41.07v2.462h1.787c.253 0 .458-.22.458-.492v-1.478c0-.272-.205-.492-.458-.492Z"/><path fill="#fff" d="M38.883 31.552v-1.477c0-.273.205-.493.458-.493h3.516c.253 0 .458.22.458.492v1.478c0 .272-.205.492-.458.492h-3.516c-.253 0-.458-.22-.458-.492Z"/><path fill="#DEE1E6" d="M42.858 29.582H41.07v2.462h1.787c.253 0 .458-.22.458-.492v-1.477c0-.273-.205-.493-.458-.493ZM12.99 32.536v1.478c0 .272.221.492.493.492h31.023c.272 0 .492-.22.492-.492v-1.478a.492.492 0 0 0-.492-.492H13.483a.492.492 0 0 0-.492.492Z"/><path fill="#FF7E7E" d="M26.218 25.17v6.874h5.417V25.17a2.708 2.708 0 1 0-5.417 0Z"/><path fill="#EF3D3D" d="M31.636 25.171v6.874H26.22v-1.117h1.26a1.937 1.937 0 0 0 1.935-1.94v-4.935c0-.595-.192-1.142-.517-1.59h.03a2.707 2.707 0 0 1 2.708 2.708Z"/><path fill="#fff" d="M44.323 12.561H13.667l15.328-9.57 15.328 9.57Z"/><path fill="#DEE1E6" d="M44.322 12.56H13.668l3.034-1.896c15.284 1.216 17.747-2.31 18.042-4.082l9.578 5.978Z"/><path fill="#DEE1E6" d="M28.994 10.303a2.216 2.216 0 1 0 0-4.432 2.216 2.216 0 0 0 0 4.432Z"/><path fill="#4DABF4" d="M36.944 18.692v9.58h-3.045v-9.58a1.52 1.52 0 0 1 1.523-1.523c.843 0 1.522.68 1.522 1.523Z"/><path fill="#1D7BD5" d="M36.946 18.701v9.58h-3.043v-.88h.738c.67 0 1.217-6.725 1.217-7.4v-2.117c0-.237-.055-.473-.148-.68a1.527 1.527 0 0 1 1.236 1.497Z"/><path fill="#4DABF4" d="M24.089 18.692v9.58h-3.045v-9.58c0-.855.694-1.522 1.522-1.522.844 0 1.523.678 1.523 1.522Z"/><path fill="#1D7BD5" d="M24.09 18.69v9.581h-3.043v-.881h.739c.67 0 1.216-6.725 1.216-7.4v-2.117c0-.236-.054-.473-.147-.68a1.527 1.527 0 0 1 1.235 1.498Z"/><path fill="#000" d="M44.508 31.553h-.7v-1.477c0-.507-.369-.926-.842-.98V18.272a.98.98 0 0 0 .842-.98v-1.477c0-.502-.36-.91-.817-.975v-1.787h1.34a.49.49 0 0 0 .196-.94l-15.27-9.54a.498.498 0 0 0-.522 0l-15.329 9.569a.498.498 0 0 0-.212.556c.06.212.251.355.473.355h1.33v1.777h-.36c-.522 0-.95.439-.95.985v1.477c0 .508.374.926.847.98v10.824a.974.974 0 0 0-.847.98v1.477h-.202a.981.981 0 0 0-.985.985v1.477c0 .542.438.985.985.985h31.023a.988.988 0 0 0 .984-.985v-1.477a.985.985 0 0 0-.984-.985Zm-5.132 0-.034-1.477h3.482l-.005 1.477h-3.443Zm-8.233 0h-4.432v-6.382a2.22 2.22 0 0 1 2.216-2.216 2.22 2.22 0 0 1 2.216 2.216v6.382Zm-2.216-9.582a3.204 3.204 0 0 0-3.2 3.2v6.382h-6.624v-1.477c0-.507-.369-.926-.842-.98V18.272a.98.98 0 0 0 .842-.98v-1.477h19.289v1.477c0 .503.369.921.842.98v10.824c-.473.054-.842.473-.842.98v1.477h-6.264v-6.382c0-1.768-1.438-3.2-3.2-3.2ZM15.52 18.277h1.757v10.814H15.52V18.277Zm24.7 0h1.762v10.814H40.22V18.277Zm2.605-2.462-.005 1.477h-3.443l-.034-1.477h3.482ZM28.996 3.573l13.606 8.495H15.386l13.61-8.495Zm-13.015 9.48h26.025v1.777H15.981v-1.777Zm2.138 2.762v1.477h-3.447l-.035-1.477h3.482Zm-3.482 14.26h3.482v1.51l-3.492.012.01-1.521Zm29.87 3.94H13.486v-1.477h31.023v1.477Z"/><path fill="#000" d="M28.997 10.797a2.713 2.713 0 0 0 2.708-2.708 2.71 2.71 0 0 0-2.708-2.708 2.707 2.707 0 0 0-2.709 2.708 2.71 2.71 0 0 0 2.709 2.708Zm0-4.431c.95 0 1.723.773 1.723 1.723 0 .95-.773 1.724-1.723 1.724-.95 0-1.724-.773-1.724-1.724 0-.95.774-1.723 1.724-1.723Zm4.904 22.4h3.044c.27 0 .492-.221.492-.492V18.69a2.02 2.02 0 0 0-2.014-2.014c-1.087 0-2.014.88-2.014 2.014v9.583c0 .27.217.492.492.492Zm.493-10.075c0-.6.487-1.03 1.029-1.03.566 0 1.03.464 1.03 1.03v9.09h-2.06v-9.09Zm-11.828-2.014a2.017 2.017 0 0 0-2.014 2.014v9.583c0 .27.221.492.492.492h3.048c.271 0 .493-.221.493-.492V18.69a2.02 2.02 0 0 0-2.02-2.014ZM23.6 27.781h-2.063v-9.09a1.032 1.032 0 0 1 2.063 0v9.09Z"/></svg>