<svg xmlns="http://www.w3.org/2000/svg" fill="none" viewBox="0 0 60 41"><rect width="60" height="40" y=".738" fill="#F36E21" rx="4"/><path fill="#fff" d="m20.438 10.85 4.612 19.275h-4.012l-.6-3.225h-3.825l-.788 3.225H12l4.425-19.275h4.012Zm-.6 13.275-1.613-8.438-1.2 8.438h2.813ZM35.25 11.262v3.226c-.188-.038-.375-.113-.638-.15-.262-.038-.525-.075-.825-.075-.225 0-.45 0-.712.037a3.983 3.983 0 0 0-.713.15c-.562.15-1.125.45-1.687.9-.525.45-.938 1.088-1.238 1.95-.15.375-.225.825-.337 1.313a10.229 10.229 0 0 0-.113 1.537v.975c.15 1.387.563 2.663 1.313 3.825.75 1.163 1.875 1.725 3.45 1.725.225 0 .45 0 .675-.038.225-.037.487-.075.75-.15v3.376c-.3.15-.6.224-.938.3a5.09 5.09 0 0 1-1.087.112c-.338 0-.675-.037-1.05-.075-.375-.075-.713-.15-1.088-.225-1.275-.413-2.475-1.238-3.6-2.475-1.125-1.238-1.875-2.887-2.287-5.025-.038-.338-.075-.638-.113-.975-.037-.3-.037-.637-.037-.938 0-1.462.225-2.774.637-4.012.45-1.238.938-2.213 1.5-2.963.6-.75 1.275-1.35 1.988-1.8.75-.45 1.5-.75 2.25-.9.225-.037.487-.075.712-.112.225-.037.45-.037.675-.037.413 0 .825.037 1.238.112.525.188.9.3 1.275.412ZM40.463 10.85v7.612h3.787V10.85h3.825v19.275h-3.637V22.1h-4.013v8.025h-3.787V10.85h3.825Z"/></svg>