<svg xmlns="http://www.w3.org/2000/svg" fill="none" viewBox="0 0 62 42"><rect width="60" height="40" x="1" y="1" fill="#fff" stroke="#FF4713" stroke-opacity=".3" rx="5"/><path fill="#FF4713" d="M57.965 12.415c0-1.33-.964-2.407-2.203-2.407L6.252 10c-1.239 0-2.245 1.077-2.245 2.408L4 22.496h53.965v-10.08Z"/><path fill="#383A86" d="m18.896 13.016 1.523-1.174 1.884 1.824 2.033-1.847 1.134 1.197-2.437 3.56 4.54 5.944h-2.798l-2.507-3.402-1.339 1.002h-2.025v-1.01l-1.282 1.032h-4.3v-1.091l-1.26 1.084H9.838l-.27-.748h-.92l-.744.748h-2.33l2.28-7.187 1.41-1.196 4.058 6.94v-5.684l1.467-1.174.644 5.84 3.47 1.234-.006-5.892Zm9.244 2.206a.465.465 0 0 0-.454.478v1.646c0 .261.206.47.454.47h1.438c.247 0 .446-.209.446-.47V15.7c0-.269-.206-.478-.447-.478H28.14Zm-1.714-1.892 1.232-1.04c.24-.246.574-.396.935-.396h3.598c.744 0 1.353.636 1.346 1.428v4.255c0 .531-.276 1.002-.694 1.25l-1.091.926a1.31 1.31 0 0 1-.999.464h-3.59c-.36 0-.704-.15-.957-.418a1.47 1.47 0 0 1-.397-1.01v-4.255c0-.501.241-.95.617-1.204Zm14.498.89-.417.344c.148.037.29.112.417.217v-.561Zm9.718 1.01a.453.453 0 0 0-.446.47v1.653c0 .262.205.471.453.471h1.438c.248 0 .446-.21.446-.471v-1.645c0-.262-.198-.479-.446-.479h-1.445Zm-1.714-1.893 1.232-1.047c.241-.246.574-.396.935-.403h3.599c.743 0 1.352.643 1.352 1.428v4.255c0 .538-.283 1.002-.694 1.249l-1.098.927a1.322 1.322 0 0 1-.998.464h-3.598c-.744 0-1.353-.643-1.353-1.429v-4.217l-.772.643-.872.007v3.762l-1.388 1.166h-2.047v-4.935H41.28c.084.202.134.441.141.725v1.346c0 .666-.234 1.13-.666 1.384l-1.083.867c-.12.15-.27.277-.454.366l-.035.03a2.31 2.31 0 0 1-.864.15c-.517 0-2.508.045-3.223.045-.715 0-1.43-.606-1.43-1.22v-.702l1.09-.972c-.623-.15-1.09-.718-1.09-1.182v-1.637c0-.36.12-.703.382-.95a.783.783 0 0 1 .12-.097l1.254-1.032c.255-.255.666-.434 1.26-.434h3.5c.602 0 .92.336 1.09.733l1.148-.785 6.509.007v1.488Z"/><path fill="#fff" fill-rule="evenodd" d="M20.41 11.84v7.111h2.027V17.09l.269-.494 4.512 5.93h2.79l-5.46-7.12 2.436-3.566h-2.65l-1.897 2.468V11.84H20.41Zm-5.63 0v7.134h4.3v-2.468h-2.19V11.84h-2.11Zm-4.526 1.87-.56 2.968h1.084l-.524-2.969Zm-.992-1.945h2.097l2.11 7.186h-2.223l-.27-.747H9.524l-.22.747h-2.33l2.288-7.186Z" clip-rule="evenodd"/><path fill="#fff" fill-rule="evenodd" d="M29.69 14.092h1.438c.247 0 .453.216.453.47v1.653a.463.463 0 0 1-.453.471H29.69c-.248 0-.454-.216-.454-.478v-1.645c0-.262.199-.471.454-.471Zm-1.098-2.206h3.59c.752 0 1.354.643 1.354 1.428v4.255c0 .793-.61 1.428-1.353 1.428l-3.598-.007c-.744 0-1.353-.636-1.346-1.429v-4.255c-.007-.777.602-1.42 1.353-1.42Zm13.833-.015v2.183h2.188v4.928h2.047v-4.935l2.267.007v-2.183h-6.502Zm9.767 2.22h1.438c.248 0 .446.21.446.48v1.652a.457.457 0 0 1-.446.47h-1.438c-.248 0-.453-.216-.453-.478V14.57c.007-.269.205-.478.453-.478Zm-1.09-2.198h3.597c.744 0 1.353.643 1.346 1.428l.007 4.255c0 .793-.609 1.429-1.353 1.429h-3.598c-.75 0-1.353-.636-1.353-1.429v-4.255c-.007-.792.602-1.435 1.353-1.428Zm-10.923.015h-3.498c-1.113 0-1.587.628-1.587 1.346v1.638c0 .53.623 1.219 1.388 1.219h2.43c.325 0 .672.209.672.628 0 .419-.113.852-.722.845h-1.275c-.467 0-.503-.554-.503-.554h-1.983v.71c0 .614.715 1.22 1.43 1.22.716 0 2.706-.045 3.223-.045 1.049 0 1.672-.546 1.672-1.623v-1.346c0-1.024-.645-1.436-1.296-1.436h-2.642c-.319 0-.404-.261-.404-.635s.135-.628.63-.628c.525 0 .886.014 1.247.014.404 0 .475.539.475.539h2.025c-.014 0 .135-1.892-1.282-1.892Z" clip-rule="evenodd"/><path fill="#383A86" d="m58 24.006-54-.008v5.661c0 1.287.985 2.334 2.21 2.334L55.868 32C57.093 32 58 30.96 58 29.674v-5.668Z"/><path fill="#fff" d="M9.347 25.27v1.115h-.843l-.007 4.457H7.073l.008-4.457h-.843V25.27h3.11Zm1.218 2.775H9.283v-.307c0-.351.043-.628.12-.815.079-.194.242-.359.482-.508.241-.15.553-.217.942-.225.46 0 .808.082 1.049.247.233.165.375.366.425.613.05.24.07.74.07 1.496v2.288H11.04v-.404a.89.89 0 0 1-.326.367.885.885 0 0 1-.475.12c-.24 0-.46-.068-.658-.203-.199-.134-.298-.433-.298-.897v-.374c0-.344.057-.576.163-.695.106-.12.369-.27.786-.434.447-.18.688-.3.723-.359.028-.06.05-.187.05-.381 0-.24-.015-.397-.05-.464a.199.199 0 0 0-.073-.083.184.184 0 0 0-.104-.03c-.092 0-.149.03-.17.09-.021.06-.036.218-.036.472l-.007.486Zm.432.62c-.22.165-.347.3-.382.412-.036.112-.05.269-.05.47 0 .24.014.39.043.457.028.067.092.105.177.105.085 0 .142-.03.17-.083.028-.052.042-.194.042-.426v-.934Zm3.202-2.392-.057.598c.199-.434.489-.658.864-.688v1.608c-.248 0-.432.037-.552.104a.414.414 0 0 0-.14.117.443.443 0 0 0-.08.167c-.028.12-.042.404-.042.846v1.802h-1.367l.007-4.562 1.367.008Zm2.564-.008-.007 3.612c0 .426-.007.71-.029.86a.774.774 0 0 1-.155.396.83.83 0 0 1-.347.255c-.142.052-.362.082-.652.082h-.531v-.726c.163 0 .255-.022.276-.06.021-.037.028-.269.028-.687l.007-3.732h1.41Zm0-1.002v.725h-1.41v-.725h1.41Zm3.584 3.358h-1.77v.987c0 .21.013.336.042.396.028.06.085.09.17.09.106 0 .17-.038.205-.12.035-.082.05-.232.05-.456v-.598h1.296v.336c0 .284-.021.501-.057.65-.035.15-.12.315-.248.487-.127.172-.29.3-.489.389-.198.09-.446.127-.743.127a2.17 2.17 0 0 1-.765-.127 1.23 1.23 0 0 1-.517-.352 1.386 1.386 0 0 1-.255-.486c-.05-.172-.071-.433-.071-.777v-1.332c0-.396.057-.717.163-.942.106-.232.283-.404.524-.53.24-.128.517-.188.836-.188.382 0 .7.075.949.217.248.15.425.344.524.591.1.247.149.583.149 1.032l.007.606Zm-1.374-.74v-.337c0-.24-.014-.389-.036-.456a.163.163 0 0 0-.061-.08.15.15 0 0 0-.095-.025c-.092 0-.155.03-.177.09-.02.06-.035.217-.035.47v.337h.404Zm3.265-2.237v.718h.368v.726h-.368l-.007 2.445c0 .3.014.464.042.501.029.037.156.052.383.052v.733h-.553c-.311 0-.53-.015-.665-.037a.735.735 0 0 1-.355-.18.648.648 0 0 1-.19-.329c-.022-.12-.036-.411-.036-.867l.007-2.318h-.298v-.726h.298v-.718h1.374Zm1.884 2.378H22.84v-.306c0-.352.043-.628.12-.815.078-.195.241-.36.482-.509.24-.15.552-.224.942-.224.46 0 .808.082 1.048.247a.991.991 0 0 1 .425.613c.05.24.071.74.071 1.495v2.289h-1.332v-.404a.889.889 0 0 1-.325.366.884.884 0 0 1-.475.12c-.24 0-.46-.067-.659-.202-.198-.134-.297-.434-.297-.897v-.374c0-.344.057-.576.163-.696.106-.127.368-.269.786-.433.446-.18.687-.3.723-.36.035-.06.05-.186.05-.38 0-.24-.015-.397-.05-.464a.193.193 0 0 0-.075-.08.18.18 0 0 0-.103-.025c-.092 0-.148.03-.17.09-.02.06-.035.217-.035.47l-.007.48Zm.432.621c-.22.165-.347.3-.382.411-.036.113-.05.27-.057.472 0 .239.014.388.042.456.029.067.093.104.185.104.085 0 .141-.03.17-.082.028-.052.035-.194.042-.426v-.935Zm6.17-3.402-.008 5.57H29.35v-.328c-.134.134-.269.239-.41.314a.964.964 0 0 1-.454.104.923.923 0 0 1-.552-.171.743.743 0 0 1-.298-.397c-.042-.15-.064-.389-.064-.733v-2.138c0-.352.022-.599.071-.748.043-.15.142-.277.305-.39a.947.947 0 0 1 .566-.164c.17 0 .326.03.468.09.141.06.269.157.382.277v-1.294l1.36.008Zm-1.368 2.153c0-.164-.014-.276-.042-.336-.029-.06-.085-.09-.17-.09-.078 0-.135.03-.163.075-.029.052-.043.164-.043.344v2.236c0 .187.015.306.043.366.028.06.078.09.156.09.085 0 .148-.03.177-.097.028-.068.042-.225.042-.479v-2.109Zm4.951 1.204h-1.77v.987c0 .21.014.337.042.397.028.06.085.09.17.09.106 0 .17-.038.205-.12.036-.083.05-.232.057-.456v-.599h1.296v.337c0 .284-.021.5-.056.65-.036.15-.12.314-.248.486s-.29.3-.49.39c-.197.09-.445.127-.743.127-.29 0-.545-.045-.765-.128a1.23 1.23 0 0 1-.517-.351 1.387 1.387 0 0 1-.255-.486c-.05-.18-.07-.434-.07-.778v-1.331c0-.396.056-.718.162-.942a1.16 1.16 0 0 1 .524-.531c.241-.12.518-.187.836-.187.383 0 .701.075.95.217.247.15.424.344.523.59.1.247.15.591.15 1.032v.606Zm-1.367-.74v-.337c0-.239-.014-.389-.035-.456-.022-.067-.078-.105-.149-.105-.092 0-.156.03-.177.09-.021.06-.035.217-.035.471v.337h.396Zm6.056.097h-1.289v-.523c0-.187-.014-.307-.043-.374-.028-.068-.084-.098-.162-.098s-.135.03-.156.09c-.029.06-.043.187-.043.39v2.153a.95.95 0 0 0 .057.366c.042.082.1.12.177.12a.195.195 0 0 0 .191-.127c.036-.083.05-.247.05-.479v-.546h1.218c0 .367-.014.636-.042.823-.022.18-.1.366-.227.56a1.204 1.204 0 0 1-.503.434 1.77 1.77 0 0 1-.758.15c-.382 0-.694-.067-.913-.202a1.088 1.088 0 0 1-.475-.56c-.092-.24-.142-.584-.142-1.033v-1.294c0-.388.043-.68.12-.874.079-.195.242-.374.49-.531.247-.157.552-.232.913-.232.354 0 .659.075.914.232.255.157.418.344.503.583.078.21.12.538.12.972Zm1.778-1.727-.057.598c.199-.434.489-.658.864-.688v1.608c-.248 0-.432.037-.552.104a.416.416 0 0 0-.14.117.444.444 0 0 0-.08.168c-.028.12-.042.403-.042.845v1.802H39.4l.007-4.562 1.367.008Zm4.2 2.355h-1.77v.987c0 .21.014.337.042.397.028.06.085.09.17.09.106 0 .17-.038.205-.12.036-.082.05-.232.057-.456v-.599h1.296v.337c0 .284-.021.5-.057.65-.035.15-.12.315-.248.487-.127.171-.29.299-.488.388-.199.09-.447.128-.744.128-.29 0-.545-.045-.765-.128a1.23 1.23 0 0 1-.517-.351 1.384 1.384 0 0 1-.255-.486c-.05-.18-.07-.434-.07-.778V27.8c0-.397.056-.719.162-.943.106-.232.284-.404.524-.531.241-.127.517-.187.836-.187.383 0 .701.075.95.217.247.15.424.344.523.59.1.247.149.591.149 1.032v.606Zm-.41-3.597-1.113.935h-.687l.595-.935h1.204Zm-.957 2.857v-.337c0-.239-.014-.388-.035-.456-.022-.067-.078-.104-.15-.104-.091 0-.155.03-.176.09-.021.06-.036.216-.036.47v.337h.397Zm4.93-2.632-.007 5.57h-1.367v-.328c-.135.134-.27.24-.411.314a.963.963 0 0 1-.454.105.923.923 0 0 1-.552-.172.743.743 0 0 1-.297-.397c-.043-.15-.064-.389-.064-.725v-2.139c0-.351.021-.598.064-.748.042-.15.148-.276.304-.389a.947.947 0 0 1 .567-.164c.17 0 .326.03.467.09.142.06.27.157.383.276v-1.293h1.367Zm-1.367 2.153c0-.164-.014-.276-.043-.336-.028-.06-.085-.09-.17-.09-.078 0-.134.03-.163.075-.028.052-.042.164-.042.344v2.236c0 .187.014.306.042.366.029.06.078.09.156.09.085 0 .149-.03.177-.097.029-.068.043-.225.043-.479v-2.109Zm3.258-1.151-.007 4.561h-1.41l.007-4.561h1.41Zm.007-1.002v.725h-1.41v-.725h1.41Zm1.926.389v.717h.369v.726h-.368v2.445c0 .3.014.464.042.501.028.037.156.052.382.052v.733h-.552c-.312 0-.531-.015-.666-.037a.734.734 0 0 1-.354-.18.648.648 0 0 1-.191-.329c-.029-.12-.036-.41-.036-.867v-2.318h-.297v-.726h.297V25.6h1.374Zm3.762 2.205v1.122c0 .412-.022.71-.064.905a1.264 1.264 0 0 1-.262.538 1.172 1.172 0 0 1-.51.367c-.206.082-.447.12-.716.12-.304 0-.56-.03-.765-.098a1.028 1.028 0 0 1-.488-.306 1.228 1.228 0 0 1-.248-.494c-.05-.194-.071-.486-.071-.875v-1.166c0-.427.05-.756.134-.995.093-.24.255-.434.49-.576.233-.142.538-.216.899-.216.304 0 .566.044.786.134.22.09.39.217.51.359.12.15.198.3.24.464.043.157.065.396.065.717Zm-1.367-.343c0-.232-.015-.382-.036-.442-.021-.06-.078-.09-.156-.09s-.134.03-.163.09c-.028.06-.042.21-.042.442v2.056c0 .217.014.359.042.419.029.067.078.097.156.097s.135-.03.163-.09c.028-.06.035-.187.043-.389l-.008-2.093Z"/></svg>