<svg xmlns="http://www.w3.org/2000/svg" fill="none" viewBox="0 0 60 40"><path fill="#000" d="M0 5a5 5 0 0 1 5-5h50a5 5 0 0 1 5 5v30a5 5 0 0 1-5 5H5a5 5 0 0 1-5-5V5Z"/><path fill="#fff" d="M48.857 17.497v5.005h-2.449a.612.612 0 0 0-.612.6V29.4c0 .327-.278.6-.612.6h-5.918a.612.612 0 0 1-.612-.6V10.6c0-.327.278-.6.612-.6h5.918c.334 0 .612.273.612.6v6.297c0 .328.278.6.612.6h2.449ZM16.339 27.488H9.66a.603.603 0 0 0-.575.383l-.668 1.728a.603.603 0 0 1-.575.383h-4.23a.608.608 0 0 1-.574-.82l6.566-16.778c.112-.309.279-.6.483-.855l2.708 6.897-1.28 3.24c-.148.4.148.818.575.818h2.133c.056 0 .093 0 .149-.018l1.966 5.022ZM22.776 30h-4.36l-.686-1.766-6.845-17.451c.056-.037.112-.091.167-.128a3.9 3.9 0 0 1 2.17-.655c1.577 0 2.987.946 3.543 2.384l6.567 16.778c.167.4-.13.837-.556.837ZM32.032 16.006v13.393c0 .328-.278.6-.612.6h-5.918a.612.612 0 0 1-.612-.6V16.006h7.142ZM37.653 10.6v4.404H19.307v-4.403c0-.328.278-.601.612-.601h17.103c.352 0 .63.273.63.6ZM57 10.6V29.4c0 .327-.278.6-.612.6h-6.511V10h6.51c.335 0 .613.273.613.6Z"/></svg>