<svg width="60" height="40" fill="none" xmlns="http://www.w3.org/2000/svg"><path d="M10.978 14.048h2.194c.01.056.01.121.01.205 0 .588-.188 1.073-.56 1.466-.374.392-.85.588-1.43.588a2.007 2.007 0 0 1-1.465-.598c-.401-.392-.597-.887-.597-1.465a2.022 2.022 0 0 1 2.054-2.063c.877 0 1.587.43 1.876 1.148l-.42.15c-.28-.56-.803-.86-1.456-.86a1.51 1.51 0 0 0-1.13.476c-.299.318-.457.691-.457 1.149 0 .457.158.84.466 1.157.318.318.691.467 1.149.467.41 0 .756-.13 1.036-.392s.448-.588.495-.999h-1.755v-.43h-.01Zm5.704-.747a.64.64 0 0 0-.206-.028c-.513 0-.896.252-1.176.747v-.72h-.457v2.923h.457v-1.12c0-.822.42-1.373 1.176-1.373.075 0 .14 0 .169.01l.037-.44Zm3.622.01v1.4c0 .737-.392 1.166-1.018 1.166-.476 0-.803-.364-.803-.905V13.31h-.457v1.746c0 .373.103.672.317.896.215.233.505.345.85.345.485 0 .85-.186 1.101-.55v.476h.458V13.31h-.448Zm4.947.354c-.28-.29-.625-.43-1.027-.43-.504 0-.886.178-1.157.542v-.467h-.448v3.92h.448v-1.465c.27.364.653.542 1.157.542.392 0 .738-.14 1.027-.43.29-.29.43-.653.43-1.11.009-.449-.14-.813-.43-1.102Zm-.317 1.932a1.056 1.056 0 0 1-.775.308c-.29 0-.541-.102-.765-.317-.224-.215-.327-.486-.327-.822 0-.336.103-.606.327-.812.224-.214.476-.317.765-.317.308 0 .57.112.775.317.205.206.317.486.317.822 0 .336-.112.607-.317.821Zm4.723-1.923a1.507 1.507 0 0 0-1.092-.43c-.439 0-.803.14-1.11.43-.3.28-.449.644-.449 1.092 0 .448.15.813.448 1.102.299.29.672.43 1.111.43.43 0 .803-.14 1.092-.43.299-.29.448-.654.448-1.102 0-.448-.14-.802-.448-1.092Zm-.317 1.905a1.057 1.057 0 0 1-.775.317c-.308 0-.57-.112-.793-.317a1.111 1.111 0 0 1-.327-.822c0-.327.103-.597.327-.803.224-.214.485-.317.793-.317.299 0 .56.112.775.317.215.206.327.476.327.803 0 .336-.112.607-.327.822Z" fill="#0E5CAB"/><mask id="a" style="mask-type:luminance" maskUnits="userSpaceOnUse" x="9" y="19" width="9" height="9"><path d="m9.246 21.33 6.133 6.142 2.194-2.185-6.133-6.142-2.194 2.184Z" fill="#fff"/></mask><g mask="url(#a)"><path d="m21.736 23.159-8.476-8.177-8.177 8.476 8.476 8.177 8.178-8.476Z" fill="url(#b)"/></g><mask id="c" style="mask-type:luminance" maskUnits="userSpaceOnUse" x="38" y="19" width="9" height="9"><path d="m38.356 21.33 6.133 6.142 2.185-2.185-6.133-6.142-2.185 2.184Z" fill="#fff"/></mask><g mask="url(#c)"><path d="m50.839 23.159-8.476-8.177-8.178 8.476 8.477 8.177 8.177-8.476Z" fill="url(#d)"/></g><mask id="e" style="mask-type:luminance" maskUnits="userSpaceOnUse" x="16" y="18" width="10" height="9"><path d="m16.686 20.321 6.133 6.143 2.193-2.194-6.133-6.142-2.194 2.193Z" fill="#fff"/></mask><g mask="url(#e)"><path d="m12.523 22.3 8.327 8.327 8.327-8.327-8.327-8.336-8.327 8.336Z" fill="url(#f)"/></g><path d="M23.377 27.023a1.55 1.55 0 0 0 2.194 0l6.702-6.693-2.184-2.203-5.601 5.61a3.099 3.099 0 0 1-4.387 0l3.276 3.286Z" fill="#D62217"/><mask id="g" style="mask-type:luminance" maskUnits="userSpaceOnUse" x="48" y="18" width="4" height="8"><path d="M51.218 18.108h-2.912v7.151h2.912v-7.15Z" fill="#fff"/></mask><g mask="url(#g)"><path d="M51.22 18.109h-2.913v7.15h2.912v-7.15Z" fill="url(#h)"/></g><path d="M14.173 21.861a3.099 3.099 0 0 0-4.388 0l-5.6 5.61L2 25.278l6.702-6.694a1.55 1.55 0 0 1 2.194 0l3.277 3.277Zm25.82-3.277a1.55 1.55 0 0 0-2.194 0l-6.702 6.694 2.194 2.193 5.6-5.61a3.099 3.099 0 0 1 4.388 0l-3.286-3.277Zm8.317 7.412c0 .803.654 1.457 1.457 1.457l8.233.009v-2.913h-6.777a2.92 2.92 0 0 1-2.922-2.921l.01 4.368Z" fill="#0E5CAB"/><rect x=".5" y=".5" width="59" height="39" rx="4.5" stroke="#0E5CAB" stroke-opacity=".3"/><defs><linearGradient id="b" x1="16.549" y1="26.339" x2="8.579" y2="18.652" gradientUnits="userSpaceOnUse"><stop stop-color="#0E5CAB"/><stop offset=".174" stop-color="#0D5BA8"/><stop offset=".279" stop-color="#0C56A0"/><stop offset=".365" stop-color="#094F92"/><stop offset=".441" stop-color="#05447E"/><stop offset=".5" stop-color="#003968"/><stop offset="1" stop-color="#003968"/></linearGradient><linearGradient id="d" x1="45.654" y1="26.338" x2="37.685" y2="18.651" gradientUnits="userSpaceOnUse"><stop stop-color="#0E5CAB"/><stop offset=".174" stop-color="#0D5BA8"/><stop offset=".279" stop-color="#0C56A0"/><stop offset=".365" stop-color="#094F92"/><stop offset=".441" stop-color="#05447E"/><stop offset=".5" stop-color="#003968"/><stop offset="1" stop-color="#003968"/></linearGradient><linearGradient id="f" x1="18.037" y1="19.481" x2="21.996" y2="23.44" gradientUnits="userSpaceOnUse"><stop stop-color="#D62217"/><stop offset=".338" stop-color="#D32118"/><stop offset=".541" stop-color="#CB1F1B"/><stop offset=".709" stop-color="#BD1B21"/><stop offset=".856" stop-color="#A91629"/><stop offset=".9" stop-color="#A1142C"/><stop offset="1" stop-color="#A1142C"/></linearGradient><linearGradient id="h" x1="49.762" y1="18.303" x2="49.762" y2="27.54" gradientUnits="userSpaceOnUse"><stop stop-color="#0E5CAB"/><stop offset=".202" stop-color="#0D5BA8"/><stop offset=".323" stop-color="#0C56A0"/><stop offset=".423" stop-color="#094F92"/><stop offset=".511" stop-color="#05447E"/><stop offset=".58" stop-color="#003968"/><stop offset="1" stop-color="#003968"/></linearGradient></defs></svg>