<svg xmlns="http://www.w3.org/2000/svg" fill="none" viewBox="0 0 60 40"><rect width="60" height="40" fill="url(#a)" rx="5"/><path fill="#fff" d="M11.83 21.27a.83.83 0 0 1-.61-.22.83.83 0 0 1-.22-.61V7.66c0-.26.08-.47.22-.61a.83.83 0 0 1 .62-.22h4.65c1.8 0 3.18.45 4.16 1.34.97.9 1.46 2.1 1.46 3.61 0 1.47-.52 2.64-1.56 3.5a5.93 5.93 0 0 1-3.95 1.3c-.81 0-1.65-.07-2.51-.24v4.1c0 .26-.08.46-.23.6a.81.81 0 0 1-.6.23h-1.43Zm4.5-7.35c.81 0 1.46-.2 1.93-.58.48-.38.71-.93.71-1.63 0-.71-.23-1.25-.7-1.62a3.04 3.04 0 0 0-1.96-.57h-2.22v4.23c.64.11 1.39.17 2.24.17ZM30.27 21.27c-2.17 0-3.87-.66-5.11-1.98a7.42 7.42 0 0 1-1.85-5.26c0-.73.09-1.45.26-2.14a6.91 6.91 0 0 1 2.21-3.57c.54-.46 1.2-.82 1.97-1.09a7.81 7.81 0 0 1 5.42.18 5.1 5.1 0 0 1 2.14 1.75c.1.16.16.32.16.49 0 .25-.13.47-.39.67l-.84.64a.76.76 0 0 1-.5.2c-.19 0-.4-.11-.65-.35a3.59 3.59 0 0 0-2.77-1.12c-.64 0-1.2.12-1.7.35-.5.23-.9.54-1.2.94-.31.4-.55.85-.7 1.37a5.66 5.66 0 0 0-.25 1.68c0 1.27.34 2.31 1.02 3.14a3.45 3.45 0 0 0 2.78 1.22c1.2 0 2.16-.4 2.89-1.18.21-.24.44-.36.68-.36.14 0 .3.07.51.2l.83.65c.25.18.37.4.37.65 0 .18-.06.36-.2.53-1.12 1.6-2.8 2.39-5.08 2.39ZM43.72 21.27c-2.17 0-3.88-.66-5.11-1.98a7.42 7.42 0 0 1-1.85-5.26c0-.73.09-1.45.26-2.14a6.91 6.91 0 0 1 2.2-3.57c.55-.46 1.2-.82 1.98-1.09a7.81 7.81 0 0 1 5.42.18 5.1 5.1 0 0 1 2.14 1.75c.1.16.15.32.15.49 0 .25-.13.47-.38.67l-.84.64a.76.76 0 0 1-.5.2c-.2 0-.4-.11-.65-.35a3.6 3.6 0 0 0-2.78-1.12c-.63 0-1.2.12-1.69.35-.5.23-.9.54-1.21.94-.3.4-.54.85-.7 1.37a5.66 5.66 0 0 0-.24 1.68c0 1.27.34 2.31 1.01 3.14a3.45 3.45 0 0 0 2.8 1.22c1.19 0 2.15-.4 2.88-1.18.2-.24.43-.36.67-.36.14 0 .31.07.52.2l.83.65c.25.18.37.4.37.65 0 .18-.07.36-.2.53-1.12 1.6-2.81 2.39-5.08 2.39ZM19.07 28.28a.2.2 0 0 1-.14-.05.2.2 0 0 1-.06-.14v-2.9a.2.2 0 0 1 .06-.14.2.2 0 0 1 .14-.05h1.1c.42 0 .74.1.97.32.23.2.35.49.35.84s-.13.63-.37.83c-.25.2-.55.3-.93.3-.2 0-.39-.01-.6-.05v.85a.2.2 0 0 1-.04.14.2.2 0 0 1-.14.05h-.34Zm1.06-1.61a.7.7 0 0 0 .45-.14c.11-.09.17-.22.17-.38 0-.17-.06-.3-.17-.38a.72.72 0 0 0-.46-.14h-.52v1c.15.02.33.04.53.04ZM22.8 28.34c-.16 0-.3-.02-.42-.06a.74.74 0 0 1-.29-.17.77.77 0 0 1-.16-.24.79.79 0 0 1 .01-.58.76.76 0 0 1 .5-.43 1.97 1.97 0 0 1 1.15.04v-.03c0-.2-.05-.33-.15-.43a.58.58 0 0 0-.41-.14c-.23 0-.42.05-.59.14a.3.3 0 0 1-.13.05c-.04 0-.09-.03-.14-.08l-.09-.12a.2.2 0 0 1-.06-.13c0-.06.03-.1.1-.14.14-.1.3-.18.45-.23.16-.04.34-.06.55-.06.17 0 .32.02.45.07a.9.9 0 0 1 .6.58c.07.15.1.33.1.52v1.19a.2.2 0 0 1-.05.14.2.2 0 0 1-.14.05h-.18c-.13 0-.2-.04-.21-.14a1.84 1.84 0 0 1-.04-.2 1 1 0 0 1-.86.4Zm.12-.52a.7.7 0 0 0 .44-.13c.11-.1.18-.2.2-.35v-.03a2.28 2.28 0 0 0-.53-.07.7.7 0 0 0-.37.08c-.07.05-.11.12-.11.22s.03.16.1.21c.06.04.15.07.27.07ZM26.38 29.35c-.13 0-.2-.06-.2-.19v-.07c0-.11.06-.18.19-.2.16-.02.24-.1.24-.21 0-.09-.04-.15-.1-.18a.98.98 0 0 0-.4-.05h-.45a.9.9 0 0 1-.55-.15c-.13-.1-.2-.25-.2-.45 0-.22.12-.4.34-.51a.77.77 0 0 1-.38-.7c0-.28.1-.5.31-.66.21-.17.5-.25.89-.25.36 0 .65.09.86.27.04-.05.07-.1.09-.19.02-.12.1-.18.2-.18h.1c.13 0 .2.05.2.16v.02c0 .23-.12.4-.34.55a.8.8 0 0 1 .05.28c0 .27-.1.49-.3.65-.21.16-.5.24-.86.24-.22 0-.38 0-.45.04-.08.02-.12.07-.12.13s.02.1.07.12c.05.03.13.04.24.04h.48c.65 0 .98.24.98.74 0 .15-.05.29-.14.4a.8.8 0 0 1-.33.27c-.13.05-.27.08-.42.08Zm-.32-2.31c.16 0 .27-.04.35-.11a.4.4 0 0 0 .12-.3.38.38 0 0 0-.12-.3c-.08-.07-.2-.1-.35-.1-.17 0-.29.03-.37.1a.37.37 0 0 0-.12.3c0 .12.04.22.12.3.08.07.2.1.37.1ZM29.14 28.34c-.4 0-.73-.12-.98-.37a1.3 1.3 0 0 1-.36-.94 1.3 1.3 0 0 1 .36-.91c.12-.12.26-.22.43-.29.17-.07.35-.1.55-.1.26 0 .5.06.7.17.2.12.36.28.47.47.1.2.16.42.16.66 0 .24-.06.45-.17.65a1.33 1.33 0 0 1-1.16.66Zm0-.61c.2 0 .34-.07.44-.2.1-.14.16-.3.16-.5s-.05-.35-.16-.49a.53.53 0 0 0-.44-.2c-.2 0-.35.07-.46.2-.1.14-.16.3-.16.5 0 .19.06.35.16.49.1.13.26.2.45.2ZM33.44 28.34c-.4 0-.7-.12-.93-.36a1.32 1.32 0 0 1-.35-.95c0-.24.06-.46.16-.66a1.27 1.27 0 0 1 1.11-.64c.4 0 .71.14.93.42a.2.2 0 0 1 .05.11c0 .06-.04.11-.1.16l-.13.1a.18.18 0 0 1-.12.04c-.04 0-.1-.03-.15-.07a.6.6 0 0 0-.42-.15c-.2 0-.34.07-.44.2-.1.12-.16.29-.16.5 0 .2.05.36.16.5.1.12.26.19.45.19.18 0 .33-.06.45-.18.05-.05.1-.07.15-.07a.2.2 0 0 1 .13.05l.12.1c.06.04.1.09.1.14 0 .04-.02.08-.04.11-.23.31-.55.46-.97.46ZM36.16 28.34c-.4 0-.73-.12-.98-.37a1.3 1.3 0 0 1-.36-.94 1.3 1.3 0 0 1 .36-.91c.12-.12.26-.22.43-.29.17-.07.35-.1.55-.1.27 0 .5.06.7.17.2.12.36.28.47.47.1.2.16.42.16.66a1.27 1.27 0 0 1-.63 1.13c-.2.12-.44.18-.7.18Zm0-.61c.2 0 .34-.07.45-.2.1-.14.15-.3.15-.5s-.05-.35-.15-.49a.53.53 0 0 0-.45-.2c-.2 0-.35.07-.46.2-.1.14-.15.3-.15.5 0 .19.05.35.15.49.1.13.26.2.46.2ZM38.29 28.28a.2.2 0 0 1-.15-.05.2.2 0 0 1-.05-.14v-2.11a.2.2 0 0 1 .05-.14.2.2 0 0 1 .15-.06h.23c.1 0 .18.05.2.13l.04.22a1 1 0 0 1 .83-.4c.32 0 .56.1.73.29.17.2.26.48.26.86v1.2a.2.2 0 0 1-.06.15.2.2 0 0 1-.14.05h-.33a.2.2 0 0 1-.14-.05.2.2 0 0 1-.06-.14v-1.23c0-.35-.14-.52-.44-.52a.54.54 0 0 0-.44.2c-.1.12-.16.3-.16.55v1c0 .13-.06.2-.2.2h-.32ZM9.64 34.13c-.51 0-.91-.15-1.2-.46A1.74 1.74 0 0 1 8 32.43c0-.17.02-.34.06-.5a1.63 1.63 0 0 1 .52-.84c.13-.1.28-.2.46-.25a1.84 1.84 0 0 1 1.28.04c.2.09.37.22.5.4.03.04.04.08.04.12 0 .06-.03.11-.1.16l-.19.15a.18.18 0 0 1-.12.05c-.04 0-.1-.03-.15-.08a.84.84 0 0 0-.65-.27.93.93 0 0 0-.4.09.75.75 0 0 0-.29.22 1 1 0 0 0-.16.32c-.04.12-.06.25-.06.4 0 .3.08.54.24.73.16.2.38.29.66.29s.5-.1.68-.28c.05-.05.1-.08.15-.08.04 0 .08.01.13.05l.2.15c.05.04.08.09.08.15a.2.2 0 0 1-.05.12c-.26.38-.66.56-1.2.56ZM11.63 34.08a.2.2 0 0 1-.14-.06.2.2 0 0 1-.05-.14v-2.11a.2.2 0 0 1 .05-.14.2.2 0 0 1 .14-.05h.23c.12 0 .19.04.21.14l.03.2c.2-.27.45-.4.77-.4.1 0 .2.01.29.04.07.02.1.07.1.15 0 .03 0 .06-.02.1l-.09.23a.24.24 0 0 1-.06.1.13.13 0 0 1-.08.03.2.2 0 0 1-.06 0 .69.69 0 0 0-.15-.02.62.62 0 0 0-.46.19c-.12.12-.18.3-.18.56v.98c0 .13-.07.2-.2.2h-.33ZM14.6 31.2a.27.27 0 0 1-.1.03c-.07 0-.13-.03-.16-.1l-.04-.06a.21.21 0 0 1-.03-.11c0-.07.03-.12.1-.15l.8-.46a.21.21 0 0 1 .11-.03c.07 0 .13.04.16.1l.06.1c.03.05.04.09.04.11 0 .07-.04.12-.12.16l-.82.42Zm.22 2.93c-.41 0-.73-.11-.96-.35a1.3 1.3 0 0 1-.35-.95 1.42 1.42 0 0 1 .34-.92 1.27 1.27 0 0 1 .92-.4c.26 0 .48.07.67.18.18.12.31.27.4.46.08.18.12.4.12.65v.03c0 .04-.01.08-.04.11-.03.04-.07.05-.13.05h-1.6c.02.18.1.31.22.42.12.1.27.14.46.14.24 0 .43-.05.56-.17.06-.05.11-.08.15-.08a.2.2 0 0 1 .13.06l.1.09c.06.05.09.1.09.15 0 .04-.02.08-.05.11-.23.28-.57.42-1.03.42Zm-.62-1.6h1.08c-.03-.32-.2-.47-.5-.47a.61.61 0 0 0-.38.11c-.1.08-.17.2-.2.35ZM17.6 34.13c-.34 0-.62-.12-.83-.36-.2-.25-.3-.57-.3-.95s.1-.7.31-.94c.22-.24.5-.36.86-.36a1 1 0 0 1 .77.32v-1.12c0-.06.02-.1.05-.14a.2.2 0 0 1 .14-.05h.34c.12 0 .19.06.19.2v3.15a.2.2 0 0 1-.05.14c-.04.04-.08.06-.14.06h-.23c-.11 0-.18-.05-.2-.14a1.1 1.1 0 0 1-.04-.22c-.11.13-.24.23-.39.3-.15.08-.3.11-.48.11Zm.16-.61c.2 0 .35-.06.47-.17a.61.61 0 0 0 .18-.47v-.09c0-.22-.06-.38-.18-.5a.63.63 0 0 0-.45-.16.58.58 0 0 0-.42.17c-.12.1-.17.28-.17.51 0 .24.05.42.16.53.1.12.24.18.41.18ZM20.23 31.25a.42.42 0 0 1-.3-.1.38.38 0 0 1-.12-.29c0-.11.04-.2.12-.28a.4.4 0 0 1 .3-.12.4.4 0 0 1 .3.12c.08.08.11.17.11.28 0 .11-.03.2-.11.28a.4.4 0 0 1-.3.11Zm-.17 2.83a.2.2 0 0 1-.14-.06.2.2 0 0 1-.05-.14v-2.11a.2.2 0 0 1 .05-.14.2.2 0 0 1 .14-.05h.33c.13 0 .2.06.2.2v2.1c0 .13-.07.2-.2.2h-.33ZM22.62 34.13c-.7 0-1.05-.38-1.05-1.16v-.8h-.3c-.13 0-.2-.06-.2-.19v-.21c0-.13.07-.2.2-.2h.3v-.47c0-.07.01-.11.05-.15a.2.2 0 0 1 .14-.05h.33c.13 0 .2.07.2.2v.48h.79c.13 0 .2.06.2.2v.2c0 .13-.07.2-.2.2h-.8v.81c0 .35.16.53.46.53.08 0 .16-.02.25-.06a.35.35 0 0 1 .12-.03c.06 0 .11.03.15.1l.09.13c.03.05.04.1.04.14 0 .04-.01.08-.05.11-.2.15-.44.23-.72.23ZM25 34.13c-.4 0-.72-.12-.97-.37a1.3 1.3 0 0 1-.36-.94 1.35 1.35 0 0 1 .36-.91c.12-.12.26-.22.43-.29.17-.07.35-.1.55-.1.26 0 .5.06.7.17.2.12.36.28.47.47.1.2.16.42.16.66 0 .24-.06.45-.17.65a1.33 1.33 0 0 1-1.16.66Zm0-.61c.2 0 .35-.07.45-.2.1-.14.16-.3.16-.5 0-.19-.05-.35-.16-.49a.53.53 0 0 0-.44-.2c-.2 0-.35.07-.46.2-.1.14-.16.3-.16.5 0 .19.06.35.16.49.1.13.25.2.45.2ZM29.66 34.13c-.5 0-.9-.15-1.2-.46a1.74 1.74 0 0 1-.43-1.24c0-.17.02-.34.06-.5a1.62 1.62 0 0 1 .52-.84c.12-.1.28-.2.46-.25a1.84 1.84 0 0 1 1.27.04c.2.09.38.22.5.4.03.04.04.08.04.12 0 .06-.03.11-.09.16l-.2.15a.18.18 0 0 1-.11.05c-.05 0-.1-.03-.15-.08a.84.84 0 0 0-.66-.27.93.93 0 0 0-.4.09.75.75 0 0 0-.28.22 1 1 0 0 0-.16.32c-.04.12-.06.25-.06.4 0 .3.08.54.24.73.16.2.38.29.65.29.28 0 .51-.1.68-.28.05-.05.1-.08.16-.08.03 0 .07.01.12.05l.2.15c.06.04.08.09.08.15a.2.2 0 0 1-.04.12c-.27.38-.66.56-1.2.56ZM32.65 34.13c-.4 0-.73-.12-.97-.37a1.3 1.3 0 0 1-.37-.94 1.3 1.3 0 0 1 .37-.91c.11-.12.25-.22.42-.29.17-.07.36-.1.55-.1.27 0 .5.06.7.17.21.12.36.28.47.47.1.2.16.42.16.66a1.27 1.27 0 0 1-.63 1.13c-.2.12-.44.19-.7.19Zm0-.61c.2 0 .34-.07.45-.2.1-.14.15-.3.15-.5 0-.19-.05-.35-.15-.49a.53.53 0 0 0-.45-.2c-.2 0-.35.07-.46.2-.1.14-.15.3-.15.5 0 .19.05.35.15.49.1.13.26.2.46.2ZM34.78 34.08a.2.2 0 0 1-.15-.06.2.2 0 0 1-.05-.14v-2.11a.2.2 0 0 1 .05-.14.2.2 0 0 1 .15-.05H35c.13 0 .2.04.22.13l.03.2c.2-.26.47-.4.81-.4.39 0 .66.16.81.46.2-.3.5-.45.9-.45.31 0 .55.1.71.3.17.2.25.48.25.86v1.2a.2.2 0 0 1-.05.14.2.2 0 0 1-.14.06h-.34a.2.2 0 0 1-.14-.06.2.2 0 0 1-.05-.14v-1.23c0-.34-.14-.52-.42-.52a.5.5 0 0 0-.42.2.91.91 0 0 0-.15.56v1a.2.2 0 0 1-.05.13.2.2 0 0 1-.14.06h-.34a.2.2 0 0 1-.14-.06.2.2 0 0 1-.05-.14v-1.23c0-.17-.04-.3-.1-.38-.08-.1-.19-.14-.33-.14a.5.5 0 0 0-.42.2c-.1.12-.15.3-.15.56v1c0 .12-.06.19-.2.19h-.32ZM39.87 34.08a.2.2 0 0 1-.14-.06.2.2 0 0 1-.05-.14v-1.7h-.3a.2.2 0 0 1-.15-.05.2.2 0 0 1-.05-.15v-.21c0-.06.02-.1.05-.14a.2.2 0 0 1 .15-.05h.3v-.03c0-.34.1-.6.29-.8.19-.18.45-.28.77-.28.26 0 .49.07.67.2.06.05.08.1.08.15a.2.2 0 0 1-.04.12l-.08.12c-.04.06-.1.1-.15.1a.21.21 0 0 1-.1-.04.58.58 0 0 0-.26-.05.46.46 0 0 0-.34.12c-.08.08-.12.2-.12.35v.04h.8c.05 0 .1.01.13.05.04.03.06.08.06.14v.21a.2.2 0 0 1-.06.15.2.2 0 0 1-.14.05h-.8v1.7a.2.2 0 0 1-.05.14.2.2 0 0 1-.14.06h-.33ZM42.6 34.13c-.15 0-.29-.02-.41-.06a.74.74 0 0 1-.29-.17.77.77 0 0 1-.15-.24.79.79 0 0 1 0-.58.76.76 0 0 1 .5-.43 1.97 1.97 0 0 1 1.15.04v-.03c0-.19-.04-.33-.15-.43a.58.58 0 0 0-.41-.14c-.22 0-.42.05-.58.14a.3.3 0 0 1-.13.05c-.05 0-.1-.03-.15-.08l-.09-.12a.2.2 0 0 1-.05-.13c0-.05.03-.1.09-.14.14-.1.3-.18.45-.22.16-.05.35-.07.56-.07.16 0 .3.02.45.07.13.05.25.12.36.2.1.1.19.22.24.38.06.15.1.33.1.53v1.18a.2.2 0 0 1-.06.14.2.2 0 0 1-.14.06h-.18c-.12 0-.2-.05-.21-.15a1.84 1.84 0 0 1-.03-.2 1 1 0 0 1-.87.4Zm.13-.52a.7.7 0 0 0 .44-.13c.11-.1.18-.2.2-.35v-.03a2.28 2.28 0 0 0-.53-.07.7.7 0 0 0-.36.08c-.08.05-.12.12-.12.22s.03.17.1.21c.07.05.16.07.27.07ZM44.97 34.08a.2.2 0 0 1-.15-.06.2.2 0 0 1-.05-.14v-2.11a.2.2 0 0 1 .05-.14.2.2 0 0 1 .15-.05h.23c.1 0 .18.04.2.13l.04.2a1 1 0 0 1 .83-.4c.32 0 .56.1.73.3.17.2.26.48.26.87v1.2a.2.2 0 0 1-.06.14.2.2 0 0 1-.14.06h-.33a.2.2 0 0 1-.15-.06.2.2 0 0 1-.05-.14v-1.23c0-.34-.14-.52-.44-.52a.54.54 0 0 0-.44.2c-.1.12-.16.3-.16.56v1c0 .12-.06.19-.2.19h-.32ZM48.96 34.13c-.35 0-.62-.12-.83-.36-.21-.25-.31-.57-.31-.95s.1-.7.32-.94.5-.36.86-.36a1 1 0 0 1 .76.32v-1.12c0-.06.02-.1.06-.14a.2.2 0 0 1 .14-.05h.33c.13 0 .2.06.2.2v3.15a.2.2 0 0 1-.06.14c-.03.04-.08.06-.14.06h-.22c-.12 0-.19-.05-.21-.14a1.1 1.1 0 0 1-.04-.22c-.1.13-.24.23-.38.3-.15.08-.31.11-.48.11Zm.16-.61c.19 0 .34-.06.46-.17a.61.61 0 0 0 .18-.47v-.09c0-.22-.06-.38-.17-.5a.63.63 0 0 0-.45-.16.58.58 0 0 0-.43.17c-.11.1-.17.28-.17.51 0 .24.06.42.16.53.1.12.25.18.42.18ZM51.59 31.25a.42.42 0 0 1-.3-.1.38.38 0 0 1-.12-.29c0-.11.04-.2.12-.28a.4.4 0 0 1 .3-.12.4.4 0 0 1 .3.12c.07.08.11.17.11.28 0 .11-.04.2-.12.28a.4.4 0 0 1-.3.11Zm-.17 2.83a.2.2 0 0 1-.15-.06.2.2 0 0 1-.05-.14v-2.11a.2.2 0 0 1 .05-.14.2.2 0 0 1 .15-.05h.33c.13 0 .2.06.2.2v2.1c0 .13-.07.2-.2.2h-.33Z"/><defs><linearGradient id="a" x1="60" x2="0" y1="0" y2="40" gradientUnits="userSpaceOnUse"><stop stop-color="#09B9FF"/><stop offset=".23" stop-color="#1FAEF8"/><stop offset=".48" stop-color="#3F48C7"/><stop offset=".66" stop-color="#9F4C80"/><stop offset=".8" stop-color="#F9503D"/></linearGradient></defs></svg>