<svg xmlns="http://www.w3.org/2000/svg" fill="none" viewBox="0 0 60 40"><g clip-path="url(#a)"><path fill="#FF781D" fill-rule="evenodd" d="M55 40H5c-2.5 0-5-2.5-5-5V5c0-2.5 2.5-5 5-5h50c2.5 0 5 2.5 5 5v30c0 2.5-2.5 5-5 5Z" clip-rule="evenodd"/><path fill="#00ADBA" fill-rule="evenodd" d="M53.182 38.864 6.818 40.909s16.32-2.995 26.591-6.017c2.525-.743 6.446-2.006 6.446-2.006 10.476-4.011 3.223-1.003 10.476-4.011C57.583 25.865 60 13.832 60 3.803v30.086c0 4.011-4.535 4.975-6.818 4.975Z" clip-rule="evenodd"/><path fill="#fff" fill-rule="evenodd" d="M54.545 40.227H15s13.809-2.036 22.5-4.09c2.137-.506 5.455-1.364 5.455-1.364 8.863-2.727 2.727-.682 8.863-2.727C57.955 30 60 21.818 60 15V35.455c0 2.727-3.523 4.772-5.455 4.772Z" clip-rule="evenodd"/><path fill="#fff" d="M15.318 28.28c-.432 1.124-1.21 1.672-2.16 1.585-.865-.086-1.643-.778-1.787-1.584-.201-1.095.26-1.844 1.556-2.478-.807-.23-1.325-.749-1.613-1.642-.202.605-.49 1.037-.951 1.325-.49.288-1.008.403-1.556.26-.893-.231-1.556-1.067-1.527-1.96 0-.922.692-1.757 1.585-1.93 1.095-.23 1.844.23 2.477 1.527.288-.807.778-1.354 1.671-1.585-.576-.201-1.037-.46-1.354-.921-.288-.461-.374-.951-.288-1.499.144-.864.922-1.555 1.815-1.642.922-.086 1.7.461 2.132 1.585.548-1.21 1.412-1.902 2.766-1.44.864.287 1.383 1.152 1.297 2.073-.058.836-.72 1.614-1.527 1.787-1.038.23-1.758-.173-2.536-1.44-.432.892-.605 1.065-1.584 1.526 1.008.375 1.642 1.037 1.584 2.103-.057.98-.634 1.585-1.642 1.902.807.288 1.383.749 1.614 1.613.288-.576.547-1.095 1.123-1.383.519-.259 1.066-.317 1.642-.115.864.317 1.383 1.124 1.326 2.046-.058.893-.72 1.642-1.643 1.815-.95.23-1.757-.288-2.42-1.527ZM27.188 23.786v-1.325c0-.173.086-.432.26-.317.46.288.835-.086 1.238-.057.404 0 .692.432.98.403.288 0 .576-.403.98-.403.72 0 1.267.403 1.296 1.152.029.634.029 1.239.029 1.873 0 .23-.087.345-.317.345-.26 0-.317-.144-.317-.345v-1.614c0-.49-.202-.806-.75-.806-.49 0-.662.345-.69.806v1.556c0 .202.028.432-.289.432s-.317-.201-.317-.403c0-.49.029-1.008-.029-1.498-.029-.461-.144-.893-.749-.893-.576.028-.72.432-.72.921-.029.49 0 .951 0 1.441 0 .202.058.432-.288.432-.375 0-.317-.23-.317-.46v-1.24ZM24.97 25.515c-.98 0-1.758-.778-1.729-1.757 0-.951.778-1.7 1.729-1.7.98 0 1.786.778 1.786 1.7-.029.98-.835 1.757-1.786 1.757Zm.029-2.88c-.634 0-1.124.489-1.124 1.18 0 .634.461 1.124 1.095 1.124.634 0 1.123-.519 1.123-1.181-.028-.634-.49-1.124-1.094-1.124ZM40.181 23.786v-1.325c-.028-.346.23-.46.433-.317.288.23.46.087.691 0 .893-.317 1.729.23 1.786 1.153.029.576 0 1.152.029 1.757 0 .202-.029.375-.288.375-.288 0-.346-.173-.346-.404V23.47c-.029-.49-.23-.777-.749-.806-.518-.03-.806.259-.835.72-.058.547-.03 1.095-.03 1.613 0 .23 0 .404-.316.404-.317 0-.317-.173-.317-.404-.058-.374-.058-.777-.058-1.21Z"/><path fill="#fff" d="M22.751 24.362c-.374.951-1.066 1.326-2.017 1.124-.749-.144-1.354-.893-1.354-1.671s.577-1.527 1.326-1.7c.893-.202 1.613.144 2.016 1.066-.317.086-.547.086-.806-.202a1.131 1.131 0 0 0-1.585-.028 1.174 1.174 0 0 0 0 1.642c.432.432 1.124.46 1.556 0 .26-.26.518-.288.864-.23ZM44.676 25.515c-.461 0-.807-.202-.98-.634-.057-.144-.259-.375.03-.49.172-.086.431-.086.489.202 0 .058.058.115.086.173.116.144.288.23.49.202.202-.058.346-.173.375-.375.029-.202-.087-.375-.26-.461-.23-.115-.46-.173-.691-.317-.375-.202-.547-.518-.461-.95.086-.404.317-.692.72-.779.404-.086.807-.028 1.066.346.087.144.26.346.087.49-.144.115-.404.144-.548-.087-.057-.057-.086-.144-.173-.172-.201-.116-.374-.058-.49.086-.143.173-.086.375.087.49.202.115.403.201.605.288.548.23.72.663.576 1.21-.115.547-.49.778-1.008.778ZM50.351 23.786c0-.403.03-.835 0-1.239-.028-.432.26-.518.49-.345.23.173.346.057.519 0 .115-.058.288-.173.345.029.03.144.145.432-.086.49-.72.201-.634.777-.634 1.296v1.123c0 .26-.115.317-.346.317-.23 0-.288-.086-.288-.317v-1.354Z"/><path fill="#fff" fill-rule="evenodd" d="M32.582 23.787c-.003.201-.006.403-.006.605 0 .605 0 1.21.057 1.815 0 .23 0 .403.317.403.293 0 .29-.197.288-.386v-.536c-.029-.346 0-.547.461-.317.807.375 1.642.144 2.132-.518a1.776 1.776 0 0 0 0-2.046c-.49-.663-1.354-.893-2.132-.547a4.882 4.882 0 0 0-.042.018c-.18.079-.32.14-.534-.047-.26-.202-.576-.116-.547.345.019.404.012.807.006 1.21Zm1.78-1.124a.953.953 0 0 0-.056-.001c-.61.005-1.125.537-1.125 1.125v.028c0 .576.518 1.124 1.094 1.153.634.029 1.182-.49 1.21-1.124v-.029c.03-.633-.46-1.152-1.123-1.152ZM49.66 25.054v-1.239c0-.432 0-.893.03-1.325 0-.403-.347-.49-.49-.317-.229.228-.385.15-.554.064-.044-.023-.09-.046-.138-.064-.72-.317-1.527-.086-2.017.519a1.73 1.73 0 0 0-.029 2.103c.49.634 1.326.864 2.075.547.046-.017.088-.038.129-.057.163-.08.297-.145.505.086.144.202.518.115.49-.317Zm-.576-1.267c.029.605-.547 1.18-1.152 1.18-.632 0-1.178-.544-1.182-1.146v-.006c-.029-.605.519-1.152 1.153-1.152h.004c.603-.027 1.148.52 1.177 1.123Z" clip-rule="evenodd"/><path fill="#fff" d="M39.404 24.276c.028.922-.173 1.153-.922 1.21-.836.058-1.556-.374-1.873-1.095-.288-.691-.087-1.44.49-1.93.576-.49 1.44-.518 2.103-.115.374.23.519.432.086.778-.49.403-.922.864-1.354 1.296-.086.087-.26.173-.173.288.058.087.202.116.317.144.519.144.922-.086 1.326-.576Zm-2.305-.46c.029.086.029.287.144.374.173.144.26-.116.374-.202.317-.288.605-.576.893-.864.087-.087.23-.173.173-.288-.057-.087-.201-.116-.317-.144-.633-.144-1.267.403-1.267 1.123ZM25.124 9.65c.012-.195.012-.401.046-.596.046-.276.206-.482.447-.631.115-.069.241-.115.321.023.092.137.012.23-.114.298-.23.138-.345.344-.299.608a.547.547 0 0 0 .47.47c.104.011.195.011.299.011h6.731c.574 0 .815.241.815.815v1.548c-.184-.379-.46-.413-.769-.402-.378.012-.745-.011-1.124 0-.596.023-1.066.436-1.146.987-.08.55.24 1.066.768 1.261.24.08.493.069.745.057.103-.011.172-.08.172-.183 0-.115-.069-.184-.183-.195h-.344c-.447-.023-.768-.355-.757-.791.011-.425.332-.746.78-.746.413-.011.837 0 1.25 0 .183 0 .264.058.252.241-.012.344-.012.7 0 1.044 0 .195-.08.263-.275.252a.859.859 0 0 0-.298.011.165.165 0 0 0-.15.173c0 .091.058.149.138.183a.844.844 0 0 0 .929-.321c.046.057.034.126.034.183v1.698c0 .435-.263.71-.688.71-2.35 0-4.701.012-7.064 0-.585 0-.963-.435-.974-1.066V9.925c0-.069-.012-.172-.012-.275Zm6.812 2.752a.58.58 0 0 0-.585.585c0 .31.264.562.573.573a.59.59 0 0 0 .585-.562.567.567 0 0 0-.573-.596Z"/><path fill="#fff" d="M33.472 9.65c.012-.16-.068-.207-.217-.195-.78.011-1.56 0-2.34 0-.092 0-.183.011-.264-.046-.057-.057-.091-.115-.057-.195.046-.115.126-.138.24-.138h2.444c.091 0 .206.035.194-.137 0-.15-.034-.241-.206-.241h-1.972c-.138 0-.264-.034-.276-.183 0-.161.115-.195.264-.195h2.041c.287 0 .516.195.516.47.012.31.058.63-.034.94-.138.138-.23.035-.333-.08ZM26.65 6.622c.813-1.02 2.063-1.055 2.889-.516.24.16.424.367.608.574.32.573.482 1.18.264 1.835a3.517 3.517 0 0 1-.15.367c-.183.4-.447.619-.94.584-.734-.045-1.48-.023-2.213-.011a.413.413 0 0 1-.344-.16c-.574-.631-.757-1.835-.115-2.673Zm1.559 2.076c-.184-.046-.253-.149-.276-.287-.022-.114-.08-.183-.206-.16-.137.023-.149.137-.126.252.046.252.195.413.424.516.08.046.172.057.218.172.058.15.207.16.287.012.057-.115.137-.15.23-.195.252-.115.412-.31.412-.597a.596.596 0 0 0-.413-.596c-.183-.069-.218-.172-.206-.333.011-.068 0-.137 0-.195.011-.057-.046-.149.046-.172.08-.022.126.058.172.115.023.046.034.092.046.138.023.103.08.195.206.172.138-.023.16-.138.138-.253a.67.67 0 0 0-.402-.504c-.103-.046-.195-.092-.252-.207a.144.144 0 0 0-.264 0c-.057.138-.16.161-.275.218-.23.115-.378.299-.39.562-.011.253.103.482.333.574.286.103.31.286.286.527 0 .069.012.15.012.241ZM30.698 6.565c0-.206.011-.413.011-.62 0-.125.046-.217.172-.229.15-.011.206.092.206.23.012.206.012.413.012.62-.012.114-.012.228-.035.343-.023.103-.091.172-.206.16-.115-.022-.172-.08-.16-.206.011-.103 0-.206 0-.298ZM27.865 4.168c.114-.103.23-.103.344 0 0 .356.011.711.011 1.067 0 .114-.057.195-.172.195-.126.011-.195-.07-.195-.207 0-.344.012-.7.012-1.055ZM27.269 5.533c0 .011 0 .08-.012.149-.023.092-.08.138-.172.15-.103 0-.172-.058-.195-.161-.011-.104-.011-.218-.011-.322 0-.126.057-.229.206-.229.15 0 .184.115.184.24v.173Z"/><path fill="#F3F3F2" d="M31.936 13.159c-.115-.011-.184-.069-.184-.195s.08-.184.195-.172c.104 0 .172.069.172.172 0 .115-.068.184-.183.195ZM28.209 7.07v.447c0 .046.023.103-.035.137-.068.035-.103-.022-.149-.057-.172-.172-.114-.367.184-.527ZM28.564 8.72v-.595c.161.022.241.114.253.252.011.172-.08.264-.253.344Z"/></g><defs><clipPath id="a"><path fill="#fff" d="M0 0h60v40H0z"/></clipPath></defs></svg>