<svg xmlns="http://www.w3.org/2000/svg" fill="none" viewBox="0 0 44 34"><path fill="#fff" fill-rule="evenodd" d="M40.333 31.333H3.667C1.833 31.333 0 29.5 0 27.667v-22C0 3.833 1.833 2 3.667 2h36.666C42.167 2 44 3.833 44 5.667v22c0 1.833-1.833 3.666-3.667 3.666z" clip-rule="evenodd"/><path stroke="#0994DC" stroke-opacity=".2" d="M40.333 30.833H3.667c-.754 0-1.55-.382-2.168-1C.882 29.218.5 28.422.5 27.668v-22c0-.754.382-1.55 1-2.168.617-.617 1.413-.999 2.167-.999h36.666c.754 0 1.55.382 2.168 1 .617.617.999 1.413.999 2.167v22c0 .754-.382 1.55-1 2.167-.617.617-1.413 1-2.167 1z"/><path fill="#0994DC" d="M31.348 14.183 22.093 4.75l-9.26 9.433 2.15 2.192 7.11-7.238 4.95 5.046-4.95 5.04-2.112-2.148-2.156 2.19 4.268 4.347 9.255-9.43"/><path fill="#0994DC" d="m12.833 19.15 9.255 9.433 9.262-9.433-2.155-2.192-7.107 7.235-4.95-5.043 4.95-5.04 2.113 2.146 2.151-2.193-4.264-4.341-9.255 9.428z"/></svg>