<svg xmlns="http://www.w3.org/2000/svg" fill="none" viewBox="0 0 60 40"><path fill="#000" d="M0 5a5 5 0 0 1 5-5h50a5 5 0 0 1 5 5v30a5 5 0 0 1-5 5H5a5 5 0 0 1-5-5V5Z"/><path fill="#7673C0" d="M36.758 8.209h-13.52v23.585h13.52V8.21Z"/><path fill="#EB001B" d="M24.097 20.003a14.613 14.613 0 0 1 1.55-6.558A15.067 15.067 0 0 1 30 8.208a15.71 15.71 0 0 0-7.9-3.12 15.86 15.86 0 0 0-8.401 1.423 15.304 15.304 0 0 0-6.344 5.533A14.677 14.677 0 0 0 5 20.001c0 2.814.816 5.572 2.354 7.957a15.303 15.303 0 0 0 6.344 5.534 15.86 15.86 0 0 0 8.401 1.423 15.71 15.71 0 0 0 7.9-3.12 15.067 15.067 0 0 1-4.35-5.236 14.613 14.613 0 0 1-1.552-6.556Z"/><path fill="#00A1DF" d="M53.522 29.294v-.466h.202v-.1h-.51v.1h.201v.483l.107-.017Zm.992 0v-.583h-.155l-.18.417-.18-.417h-.159v.583h.112v-.437l.167.379h.116l.167-.38v.442l.112-.004ZM54.996 20.003c-.001 2.813-.817 5.57-2.355 7.955a15.303 15.303 0 0 1-6.344 5.532 15.859 15.859 0 0 1-8.4 1.422c-2.882-.3-5.619-1.38-7.898-3.119a15.09 15.09 0 0 0 4.35-5.237 14.637 14.637 0 0 0 1.554-6.555c0-2.272-.532-4.513-1.554-6.556a15.091 15.091 0 0 0-4.35-5.237 15.709 15.709 0 0 1 7.9-3.122A15.86 15.86 0 0 1 46.3 6.508a15.304 15.304 0 0 1 6.345 5.533A14.677 14.677 0 0 1 55 19.998l-.004.005Z"/></svg>