<svg xmlns="http://www.w3.org/2000/svg" fill="none" viewBox="0 0 60 40"><path fill="#000" d="M0 5a5 5 0 0 1 5-5h50a5 5 0 0 1 5 5v30a5 5 0 0 1-5 5H5a5 5 0 0 1-5-5V5Z"/><path fill="#FF5F00" d="M37.44 8.207H22.566v23.584H37.44V8.207Z"/><path fill="#EB001B" d="M24.097 20a14.61 14.61 0 0 1 1.551-6.554 15.065 15.065 0 0 1 4.35-5.235 15.71 15.71 0 0 0-7.899-3.12 15.86 15.86 0 0 0-8.401 1.423 15.303 15.303 0 0 0-6.344 5.532A14.674 14.674 0 0 0 5 20.003c0 2.814.816 5.571 2.354 7.956a15.303 15.303 0 0 0 6.344 5.533 15.862 15.862 0 0 0 8.401 1.423c2.883-.3 5.62-1.382 7.9-3.12a15.066 15.066 0 0 1-4.352-5.237 14.61 14.61 0 0 1-1.55-6.557Z"/><path fill="#F79E1B" d="M53.523 29.296v-.483h.214v-.1h-.51v.1h.201v.483h.095Zm.991 0v-.583h-.154l-.18.416-.18-.416h-.155v.583h.111v-.441l.168.379h.115l.168-.38v.442h.107ZM55 20.001c0 2.814-.816 5.572-2.354 7.957a15.304 15.304 0 0 1-6.345 5.533 15.863 15.863 0 0 1-8.402 1.422 15.71 15.71 0 0 1-7.9-3.122 15.092 15.092 0 0 0 4.35-5.237A14.635 14.635 0 0 0 35.903 20c0-2.27-.531-4.512-1.554-6.555a15.091 15.091 0 0 0-4.35-5.237 15.71 15.71 0 0 1 7.9-3.121c2.882-.3 5.794.192 8.402 1.422a15.304 15.304 0 0 1 6.345 5.532A14.674 14.674 0 0 1 55 19.997v.004Z"/></svg>