<svg xmlns="http://www.w3.org/2000/svg" fill="none" viewBox="0 0 60 40"><path fill="#fff" d="M0 6a6 6 0 0 1 6-6h48a6 6 0 0 1 6 6v28a6 6 0 0 1-6 6H6a6 6 0 0 1-6-6V6Z"/><path fill="#2B3179" d="M41.464 33.148c1.286.214 1.42-.3 1.516.647-1.242.533-2.49 1.045-3.874 1.062-1.071.013-2.142-.067-3.212 0-2.951-.162-5.38-1.476-7.527-3.412-.403-.44-.403-.302-.633-.617-1.497-1.284-2.484-2.973-3.58-4.568-1.91-2.78-3.763-5.6-5.678-8.378-.286-.414-.782-.683-1.165-1.006.099-.356.353-.244.541-.257 3.034-.2 4.856-1.07 5.364-4.511.2.206.116.467.14.707-.004-.245.06-.503-.14-.71-.022-.28-.054-.558-.065-.838-.109-2.72-1.254-4.007-4.194-4.71-.926-.114-1.851-.229-2.765.074-.017 6.187.164 12.373.011 18.559-.211.2-.087.465-.106.52.008-.058-.088-.319.105-.523.077 1.61.654 2.78 2.501 2.955H9.381c2.174-.618 1.918-2.342 1.902-4.034-.05-5.244-.051-10.488-.033-15.731.003-1.07-.252-1.963-1.11-2.637.214-.517.676-.442 1.092-.445 1.773-.01 3.547-.003 5.32-.004h4.152c.49-.08.976.254 1.47.023 5.12.435 7.83 4.847 5.562 9.105-.912 1.712-2.35 2.776-4.287 3.118-.238.042-.475.089-.829.155 3.578 2.59 5.74 6.288 8.512 9.44 2.045 2.326 4.241 4.436 7.287 5.406.566.073 1.194.314 1.76.395"/><path fill="#2B3179" d="M38.898 32.206c-1.14-.593-2.302-1.156-2.96-2.353.502-.169 1.007-.136 1.513-.014 2.638 2.36 8.951 2.4 9.765-2.391.26-.34.203-.675-.018-1.007-.565-2.094-2.154-3.249-3.84-4.404-1.756-1.204-3.576-2.307-5.246-3.669-2.238-1.824-1.905-6.177.283-7.869 1.759-1.359 3.773-1.54 5.843-1.309.787.089 1.623-.114 2.373.289.562.234 1.131.168 1.702.042.224 1.216-.006 2.394-.198 3.583-.17-.023-.28-.011-.295-.044-1.158-2.46-3.796-3.415-6.217-2.245-1.917.926-2.205 2.932-.602 4.306 1.197 1.027 2.603 1.748 3.913 2.61 1.683 1.107 3.444 2.091 4.778 3.682 2.453 2.923 1.728 7.352-1.441 9.669-1.02.745-2.183 1.16-3.368 1.535-.419.24-1.062.24-1.503.228l.014.016c-1.073-.004-1.93-.004-3.001-.218"/><path fill="#E8B717" d="m35.682 8.6-.621.937c-.2.113-.135.303-.135.47 0 5.193-.002 10.385.003 15.578 0 .198-.092.432.145.576.307.488.272 1.16.815 1.52.035.485-.338.326-.572.346-.732.064-1.475-.1-2.203.097-.823-.754-1.585-1.562-2.178-2.517.293-.898.104-1.82.13-2.73.045-1.494-.022-2.989.022-4.483-.108 2.403.148 4.81-.15 7.21-.319-.333-.167-.746-.17-1.119-.023-4.662-.04-9.325-.038-13.987 0-.817-.17-1.525-.85-2.04-.037-.413.274-.32.504-.346 1.491-.169 2.988-.117 4.482-.096.352.005.967-.192.816.585Z"/><path fill="#E7B400" d="M35.074 26.16c-.175.124-.251.04-.251-.135-.003-5.441-.003-10.882 0-16.324 0-.062.018-.146.06-.18.034-.027.117.008.178.016l.013 16.624Z"/><path fill="#404585" d="M9.523 5.456c-.276.023-.564.111-.787-.136.018-.18.131-.253.283-.253 3.988-.011 7.976-.021 11.964-.021.203 0 .405.087.608.133-.222.228-.506.107-.763.14H16.6c-2.359.06-4.723-.14-7.077.137Z"/><path fill="#E7B502" d="M35.682 8.6c-.045-.242-.187-.378-.437-.378-1.673.002-3.346.003-5.019.02-.116.002-.23.141-.346.216l-.768-.29.005-.202h1.809c1.757-.156 3.518-.034 5.277-.063.195-.003.344.06.323.298l-.844.4Z"/><path fill="#1F2674" d="M9.523 5.456c.236-.316.58-.214.887-.215 2.063-.002 4.126.006 6.19.011.074.036.1.074.078.115-.023.04-.047.061-.071.061-1.743 0-3.487.004-5.23-.002-.43-.001-.855-.001-1.236.238l-.618-.208Z"/><path fill="#E8B606" d="M33.114 28.124c.498-.387 1.077-.113 1.611-.197.392-.06.847.17 1.164-.245.396-.045.656.247.99.4-1.265.122-2.514.194-3.764.042Z"/><path fill="#04146E" d="M16.191 6.555c.91-.487 1.836-.347 2.765-.074l-2.765.074Z"/><path fill="#03136E" d="M48.313 9.521c-.574.278-1.143.328-1.702-.042l1.702.042Z"/><path fill="#1C2373" d="M47.199 26.441c.414.292.276.683.187 1.063-.002.009-.062.013-.09.004-.03-.01-.053-.04-.08-.06L47.2 26.44Z"/><path fill="#1B2272" d="m20.906 5.258.685-.079.582.06c-.383.352-.852.123-1.278.188-.074-.043-.097-.082-.069-.118.026-.034.053-.051.08-.051Z"/><path fill="#272D77" d="M20.906 5.258a1.113 1.113 0 0 0-.011.17h-4.288c0-.06-.002-.118-.008-.177l4.307.007Z"/><path fill="#252B76" d="M23.216 12.028c.34.261.244.582.08.91l-.08-.907v-.003Z"/><path fill="#202774" d="m16.201 25.11-.08 1.004c-.228-.435-.217-.736.082-1l-.002-.003Z"/><path fill="#E8B60D" d="M30.937 25.603v-7.47l.242-.004c0 1.947.018 3.895-.012 5.842-.009.545.224 1.146-.23 1.636v-.004Z"/><path fill="#D5D6E4" d="M6 1h48v-2H6v2Zm53 5v28h2V6h-2Zm-5 33H6v2h48v-2ZM1 34V6h-2v28h2Zm5 5a5 5 0 0 1-5-5h-2a7 7 0 0 0 7 7v-2Zm53-5a5 5 0 0 1-5 5v2a7 7 0 0 0 7-7h-2ZM54 1a5 5 0 0 1 5 5h2a7 7 0 0 0-7-7v2ZM6-1a7 7 0 0 0-7 7h2a5 5 0 0 1 5-5v-2Z"/></svg>