<svg xmlns="http://www.w3.org/2000/svg" fill="none" viewBox="0 0 90 60"><rect width="90" height="60" fill="#D71920" rx="4"/><path fill="#000" d="M37.5 13.894H90v12H37.5z"/><path fill="#fff" d="m24.287 41.037-.73 2.853c-1.99 1.029-4.346 1.427-6.57 1.427-7.1 0-12.487-4.38-12.487-11.193 0-8.672 5.973-12.62 13.217-12.62 2.19 0 4.845.564 6.77 1.626-.3 1.128-.498 2.256-.764 3.417h-.464c-1.228-1.791-3.352-3.052-5.508-3.052-5.509 0-7.743 5.287-7.743 10.164 0 5.674 2.787 9.667 7.909 9.667 2.057 0 4.446-1.062 5.939-2.488l.431.199ZM32.01 45.317c-.752-.066-1.504-.166-2.256-.166-.752 0-1.505.1-2.268.166v-24.93c.752.066 1.505.165 2.268.165.752 0 1.504-.1 2.256-.165v24.93ZM48.437 33.206c0-3.274-3.473-4.391-6.238-4.391-2.068 0-4.524.752-6.072 2.2l.42 1.97h.233c.198-.587 1.902-2.036 4.003-2.036 1.516 0 3.12 1.317 3.12 2.887 0 .487-.1.918-.498 1.283-.72.465-1.57.664-2.39.852-4.103.984-6.005 1.902-6.005 5.021 0 2.854 2.002 4.325 4.69 4.325 1.703 0 3.34-.885 4.203-2.389.52 1.438 1.703 2.39 3.251 2.39.918 0 2.168-.52 2.953-.886v-.752c-1.316.066-1.67-.332-1.67-1.537v-8.937Zm-4.523 6.404c-.067 1.637-.498 3.572-2.49 3.572-1.415 0-1.802-1.404-1.802-2.621 0-1.05.2-2.035 1.05-2.72.952-.753 2.434-1.052 3.253-1.406v3.175h-.011ZM61.824 40.793c1.404-3.738 2.787-7.51 4.004-11.381a8.462 8.462 0 0 0 2.599 0c.033.332-.133.553-.233.785a55.887 55.887 0 0 0-1.67 3.838c-1.47 3.672-3.052 7.311-4.302 11.282-.553-.066-1.117-.166-1.67-.166-.564 0-1.117.1-1.67.166-1.837-5.353-3.64-10.53-5.774-15.916.852.066 1.67.166 2.522.166.851 0 1.67-.1 2.521-.166l3.673 11.392ZM85.667 37.077c.365-4.69-1.582-8.262-6.725-8.262-4.756 0-7.51 3.285-7.51 7.875 0 5.353 2.787 8.627 8.229 8.627 1.603 0 3.384-.553 4.69-1.471l.718-1.836-.398-.299c-1.017.852-2.489 1.471-3.838 1.471-3.473 0-4.656-2.72-4.557-6.105h9.39Zm-9.38-1.57c.067-1.737.299-5.221 2.688-5.221 1.969 0 2.168 3.484 2.168 5.22h-4.856ZM42.194 21.715c.214.155.574.321.833.321.484 0 .754-.31.754-.697-.011-.95-1.925-.542-1.925-2.178 0-.786.62-1.394 1.565-1.394.472 0 .922.166 1.328.398l-.372.63c-.281-.154-.551-.32-.889-.32-.394 0-.765.21-.765.641 0 .94 1.97.642 1.97 2.168 0 .819-.642 1.45-1.554 1.45-.461 0-.889-.134-1.283-.366l.338-.652ZM48.532 17.855h.866l-.034 4.79h-.866l.034-4.79ZM53.486 21.715c.214.155.574.321.833.321.484 0 .754-.31.754-.697-.011-.95-1.924-.542-1.924-2.178 0-.786.63-1.394 1.564-1.394.473 0 .923.166 1.328.398l-.371.63c-.293-.154-.552-.32-.89-.32-.393 0-.765.21-.765.641 0 .94 1.97.642 1.97 2.168 0 .819-.642 1.45-1.553 1.45a2.56 2.56 0 0 1-1.283-.366l.337-.652ZM61.107 18.618h-1.316v-.763h3.488v.763h-1.305l-.034 4.027h-.867l.034-4.027ZM67.073 17.855h2.521v.763H67.94l-.011 1.228h1.631v.73H67.93l-.012 1.305h1.677v.764h-2.566l.045-4.79ZM74.177 17.806h.89l1.147 3.827h.012l1.305-3.827h.889l.686 4.789-.877.1-.36-3.783h-.012l-1.193 3.683h-.9l-1.08-3.683h-.011l-.484 3.782-.844-.1.832-4.788ZM84.195 21.323h1.632l.461 1.371.856-.254-1.677-4.634h-.8l-1.811 4.634.81.254.53-1.371Zm1.396-.719h-1.148l.596-1.87h.011l.54 1.87Z"/></svg>