<svg xmlns="http://www.w3.org/2000/svg" fill="none" viewBox="0 0 60 40"><path fill="#CC222C" fill-rule="evenodd" d="M55 40H5c-2.5 0-5-2.5-5-5V5c0-2.5 2.5-5 5-5h50c2.5 0 5 2.5 5 5v30c0 2.5-2.5 5-5 5Z" clip-rule="evenodd"/><path fill="#fff" d="M24.563 36.364c1.994-.932 3.595-2.374 5.1-3.937 1.644-1.708 3.037-3.605 4.282-5.62.801-1.296 1.584-2.6 2.258-3.966 1.044-2.117 1.849-4.318 2.317-6.638a29.56 29.56 0 0 0 .444-3.248c.004-.046 0-.092.001-.138 0-.04-.008-.083-.053-.087-.05-.004-.052.04-.064.078-.12.377-.25.751-.365 1.13-.596 1.967-1.393 3.847-2.443 5.615-.639 1.075-1.326 2.117-2.219 3.007-.444.444-.963.594-1.571.46-.5-.111-.989-.262-1.47-.434-.676-.242-1.05-.716-1.118-1.446-.119-1.277.09-2.511.4-3.744.52-2.064 1.008-4.135 1.503-6.205.085-.359.273-.563.648-.641.692-.146 1.39-.219 2.094-.252.094-.005.181.016.271.036.439.097.513.216.419.658-.24 1.12-.547 2.223-.82 3.336-.318 1.297-.661 2.588-.919 3.898a22.54 22.54 0 0 0-.353 2.566c-.023.297-.084.592-.047.893.025.206.111.242.288.128.45-.29.742-.72 1.042-1.148a25.458 25.458 0 0 0 2.923-5.547 31.347 31.347 0 0 0 1.284-4.223c.076-.334.134-.675.169-1.016.052-.52-.093-.85-.506-1.23.672-.449 1.367-.476 2.092-.167.726.31 1.1.917 1.373 1.613.316.807.469 1.64.461 2.51-.015 1.875-.21 3.726-.69 5.542-.547 2.065-1.27 4.064-2.259 5.962a25.195 25.195 0 0 1-3.796 5.397c-1.893 2.064-4.092 3.74-6.495 5.159-1.134.669-2.294 1.286-3.535 1.738-.058-.034-.109-.024-.169.008-.2.107-.437.118-.63.244-.03.019-.077.024-.105-.01-.039-.045-.006-.083.022-.119.062-.08.172-.087.236-.162Zm-8.058.643a7.917 7.917 0 0 1-2.903-1.62c-1.932-1.667-3.014-3.84-3.678-6.252a14.22 14.22 0 0 1-.478-3.19c-.057-1.328-.047-2.655-.026-3.982.025-1.657.163-3.306.344-4.953.17-1.536.377-3.066.576-4.597.114-.878.295-1.747.443-2.62.05-.293.044-.306-.235-.22-.714.22-1.425.45-2.137.677-.629.201-1.022-.153-.883-.811.07-.33.25-.587.575-.725.928-.394 1.852-.796 2.782-1.187a.833.833 0 0 0 .526-.61c.252-.992.537-1.975.788-2.966.092-.363.315-.534.657-.613 1.061-.247 2.121-.5 3.183-.75.131-.03.265-.053.436-.088l-1.022 3.156c.461-.166.865-.31 1.268-.456.495-.177.963-.435 1.48-.545a1.65 1.65 0 0 1 1.297.242c.511.343.97.748 1.33 1.255.03.044.06.089.087.135.223.388.104.717-.334.828-.458.115-.924.203-1.39.277-1.404.22-2.793.511-4.175.834-.202.047-.295.2-.336.392-.188.88-.383 1.759-.565 2.64a96.99 96.99 0 0 0-.911 5.071c-.203 1.322-.377 2.648-.568 3.972-.147 1.029-.316 2.055-.446 3.086a27.16 27.16 0 0 0-.165 4.706c.062 1.346.285 2.654.748 3.923.666 1.823 1.7 3.35 3.413 4.348.169.22.438.27.667.382.264.129.553.204.828.31.077.03.155.064.126.158-.026.084-.11.069-.177.052-.265-.067-.542-.087-.787-.226-.104-.058-.224-.03-.338-.033Z"/><path fill="#fff" d="M25.659 16.265c-.172.14-.234.313-.306.48-1.368 3.194-2.731 6.39-4.105 9.582-.22.511-.496.998-.807 1.462-.19.285-.46.448-.812.426-1.038-.064-2.004-.35-2.81-1.03a1.634 1.634 0 0 1-.599-1.247c-.02-1.012.013-2.021.132-3.03.216-1.82.581-3.614.978-5.402.266-1.2.6-2.384.938-3.566.097-.342.308-.55.672-.637.963-.23 1.933-.328 2.915-.195.283.038.556.153.833.236.135.04.064.128.04.202a90.87 90.87 0 0 0-1.287 4.111c-.49 1.748-.932 3.508-1.255 5.296a59.83 59.83 0 0 0-.445 3.04c-.009.066 0 .134 0 .213.133-.016.136-.127.169-.201a1160.41 1160.41 0 0 0 1.607-3.65c1.307-2.98 2.608-5.961 3.922-8.937.223-.503.495-.982.744-1.473.12-.239.31-.345.578-.316.833.092 1.639.282 2.4.645.372.178.413.303.2.728-.362.723-.72 1.45-1.004 2.207-.552 1.476-.974 2.987-1.166 4.556-.057.462-.18.916-.178 1.386.003.667.122 1.31.474 1.886.104.17.045.231-.09.309-.621.353-1.436.028-1.663-.647-.232-.693-.2-1.404-.184-2.115.028-1.296.042-2.593.108-3.888.007-.143 0-.287 0-.431Zm-9.154 20.742c.167-.085.298-.055.473.039.216.115.485.13.732.185.029.007.068-.006.061-.046-.005-.025-.034-.065-.05-.065-.153.006-.257-.112-.399-.144-.376-.087-.698-.313-1.05-.464-.04-.017-.142-.052-.087-.15 1.042.586 2.167.846 3.353.93 1.625.116 3.167-.19 4.667-.78.12-.048.239-.1.358-.15.008.002.016.002.022.005.012.007.022.017.033.025-.06.029-.124.051-.18.087a.26.26 0 0 0-.126.172c.234-.167.508-.155.73-.286.08-.047.124-.037.167.036-.79.3-1.6.545-2.427.72-1.337.281-2.687.457-4.056.344-.756-.06-1.506-.179-2.221-.458ZM53.089 8.38c-.144-.04-.213-.007-.246.143-.069.32-.163.636-.226.957a11.807 11.807 0 0 1-1.238 3.434c-.102.184-.23.358-.468.345-.16-.009-.294-.247-.316-.51-.001-.016 0-.031 0-.047-.048-.897-.009-1.792.062-2.687.047-.6-.082-1.153-.423-1.65-.468-.68-1.086-1.199-1.797-1.613a2.951 2.951 0 0 0-1.92-.38c-.82.109-1.291.65-1.59 1.365-.61 1.461-1.083 2.961-1.367 4.523-.216 1.187-.353 2.38-.34 3.582.015 1.18.624 2.02 1.677 2.537.357.175.69.123.99-.152.294-.27.486-.609.648-.965.79-1.743 1.19-3.599 1.577-5.46.06-.29.093-.593.266-.924.019.743.13 1.404.271 2.062.08.373.209.718.48.995.719.735 1.804.662 2.53-.134.59-.646.824-1.453 1.101-2.244.313-.894.502-1.822.734-2.738v-.368c-.135-.022-.274-.034-.405-.071Zm-4.832.655c-.429 1.465-.821 2.94-1.23 4.41-.163.581-.324 1.162-.498 1.739a2.07 2.07 0 0 1-.22.478c-.137.225-.327.212-.46-.014-.19-.329-.14-.698-.183-1.04.053-.884.127-1.753.28-2.612.19-1.06.464-2.099.823-3.115.09-.253.217-.49.355-.718a.504.504 0 0 1 .755-.149c.32.25.542.462.378 1.02Z"/></svg>