<!-- Extracted from https://static.placetopay.com/placetopay-logo.svg on 18/10/2023 -->
<svg xmlns="http://www.w3.org/2000/svg" version="1.1" id="Capa_1" x="0" y="0" viewBox="0 0 580.1 134.9" xml:space="preserve"><style>.st0{fill:#7a828b}.st1{fill:#f36e21}</style><path class="st0" d="M103 25.8h6.5l.4 8c1.6-2.8 3.8-5 6.5-6.6 2.8-1.6 5.8-2.4 9.1-2.4 2.9.1 5.6.7 8.1 1.7 2.4 1 4.5 2.5 6.3 4.3 1.8 1.9 3.1 4.1 4.1 6.7 1 2.6 1.5 5.6 1.5 8.8 0 3.3-.5 6.2-1.5 8.9-1 2.6-2.3 4.9-4.1 6.8-1.8 1.9-3.9 3.3-6.4 4.3-2.5 1-5.3 1.5-8.3 1.5-2.9 0-5.8-.7-8.7-2-2.9-1.4-5.2-3.5-6.9-6.3v26.8H103V25.8zm21.8 35.7c4.2 0 7.5-1.3 10-3.9 2.5-2.6 3.8-6.3 3.8-11 0-4.9-1.3-8.6-3.8-11.2-2.5-2.6-5.9-3.8-10-3.8-2.2 0-4.1.4-5.9 1.2-1.8.8-3.3 1.8-4.5 3.2-1.3 1.3-2.2 2.9-2.9 4.8-.7 1.8-1 3.8-1 5.9 0 2.1.4 4.1 1.1 5.9.7 1.8 1.7 3.4 3 4.8 1.3 1.3 2.8 2.4 4.5 3.1 1.7.6 3.6 1 5.7 1zM162.6 66.9h-6.8V8.6h6.8v58.3zM209.5 66.9l-.2-7.3c-.8 1.4-1.8 2.6-3 3.6-1.1 1-2.4 1.9-3.7 2.6-1.3.7-2.7 1.2-4.2 1.5-1.5.3-2.9.5-4.3.5-2.9 0-5.7-.5-8.3-1.5-2.6-1-4.8-2.4-6.7-4.3-1.9-1.9-3.4-4.1-4.5-6.8s-1.6-5.7-1.6-9c0-3.5.6-6.6 1.7-9.3 1.1-2.7 2.6-4.9 4.5-6.7 1.9-1.8 4.2-3.2 6.7-4.1 2.6-.9 5.3-1.4 8.3-1.4 3.3 0 6.2.7 8.9 2 2.6 1.3 4.8 3.5 6.4 6.4l.1-7.5h6.7v41.2h-6.8zm-15-35.6c-2.1 0-4 .3-5.8 1-1.8.7-3.4 1.7-4.7 3-1.3 1.3-2.4 2.9-3.2 4.8-.8 1.9-1.2 4.1-1.2 6.5 0 2.3.4 4.3 1.2 6.2.8 1.9 1.8 3.4 3.2 4.8 1.3 1.3 2.9 2.3 4.7 3 1.8.7 3.7 1.1 5.8 1.1 3.3 0 6.1-.8 8.3-2.3 2.2-1.5 3.9-3.4 5-5.6 1.1-2.3 1.7-4.7 1.7-7.3 0-2.6-.6-5.1-1.7-7.3-1.1-2.3-2.8-4.1-5-5.6-2.2-1.6-4.9-2.3-8.3-2.3zM263 61.6c-2.2 2.2-4.5 3.8-7.1 4.8-2.6 1-5.3 1.5-8.1 1.5-2.9 0-5.7-.5-8.3-1.5-2.6-1-4.9-2.4-6.8-4.2-1.9-1.8-3.5-4.1-4.6-6.8-1.1-2.7-1.7-5.7-1.7-9.2 0-3.4.6-6.4 1.7-9.1 1.1-2.7 2.6-4.9 4.6-6.8 1.9-1.8 4.2-3.2 6.8-4.2 2.6-1 5.4-1.5 8.4-1.5 2.8 0 5.5.5 7.9 1.5 2.4 1 4.8 2.6 7 4.7l-4.4 4.5c-1.4-1.4-3.1-2.5-4.9-3.2-1.8-.7-3.6-1-5.5-1-2.1 0-4 .3-5.8 1-1.8.7-3.4 1.7-4.7 3-1.3 1.3-2.4 2.8-3.2 4.7-.8 1.9-1.2 4-1.2 6.3 0 2.4.4 4.6 1.2 6.5.8 1.9 1.8 3.4 3.2 4.7 1.4 1.3 2.9 2.3 4.7 2.9 1.8.7 3.7 1 5.7 1 1.9 0 3.9-.3 5.8-1s3.6-1.8 5-3.3l4.3 4.7zM307.9 60.6c-2.2 2.5-4.9 4.3-8.1 5.5-3.3 1.2-6.5 1.8-9.7 1.8-3.2 0-6.1-.5-8.8-1.5-2.7-1-5-2.4-6.9-4.3-1.9-1.9-3.4-4.2-4.5-6.9s-1.6-5.7-1.6-9c0-3.1.5-6 1.6-8.6 1.1-2.6 2.5-4.9 4.4-6.8 1.9-1.9 4.1-3.4 6.8-4.4 2.6-1.1 5.5-1.6 8.6-1.6 3.2 0 6.1.5 8.8 1.4 2.7.9 4.9 2.4 6.8 4.4 1.9 2 3.3 4.5 4.2 7.5.9 3 1.2 6.5.8 10.6h-35.1c.2 2 .7 3.8 1.5 5.4.9 1.6 2 2.9 3.3 4.1 1.3 1.1 2.9 2 4.6 2.6 1.8.6 3.6.9 5.5.9 1.2 0 2.4-.1 3.6-.3 1.3-.2 2.5-.5 3.6-1 1.2-.4 2.3-.9 3.3-1.6 1-.6 1.9-1.4 2.5-2.2l4.8 4zM303.7 43c-.1-4-1.4-7-4-9-2.5-2-5.8-3-9.9-3-1.8 0-3.5.3-5.1.8-1.6.5-3.1 1.3-4.4 2.3-1.3 1-2.4 2.3-3.3 3.8-.9 1.5-1.5 3.3-1.8 5.3h28.5z"/><path class="st1" d="M331.1 25.6h12.7v5.8H331v22.5c0 2.4.5 4.4 1.4 5.8.9 1.4 2.6 2.1 5.1 2.1.9 0 1.9-.2 2.8-.5.9-.3 1.9-.7 2.8-1.1l2 5.7c-2.7 1.3-5.3 1.9-8 2-4.5.1-7.8-1.1-9.9-3.5-2.1-2.5-3.1-6-3.1-10.5V31.4H316v-5.8h8.3V14.5l6.9-.8v11.9zM349.9 46.4c0-3.2.5-6.1 1.6-8.8 1.1-2.7 2.6-4.9 4.5-6.8 1.9-1.9 4.1-3.4 6.8-4.4 2.6-1.1 5.4-1.6 8.5-1.6 3.1 0 6 .5 8.6 1.6 2.6 1.1 4.9 2.5 6.8 4.4 1.9 1.9 3.4 4.2 4.5 6.8 1.1 2.7 1.6 5.6 1.6 8.8 0 3.2-.5 6.1-1.6 8.7-1.1 2.6-2.6 4.9-4.5 6.8-1.9 1.9-4.2 3.4-6.8 4.4-2.6 1.1-5.5 1.6-8.5 1.6-3.1 0-6-.5-8.5-1.6-2.6-1.1-4.8-2.5-6.8-4.4-1.9-1.9-3.4-4.2-4.5-6.8-1.2-2.6-1.7-5.5-1.7-8.7zm36 0c0-2.3-.4-4.3-1.1-6.2-.8-1.9-1.8-3.5-3.1-4.8-1.3-1.3-2.8-2.4-4.6-3.1-1.8-.8-3.7-1.1-5.8-1.1-2.1 0-4.1.4-5.8 1.1-1.8.8-3.3 1.8-4.6 3.1-1.3 1.3-2.3 2.9-3.1 4.8-.8 1.9-1.1 3.9-1.1 6.2 0 2.2.4 4.3 1.1 6.1.8 1.9 1.8 3.5 3 4.8 1.3 1.3 2.8 2.4 4.6 3.1 1.8.7 3.7 1.1 5.8 1.1 2.1 0 4.1-.4 5.9-1.1 1.8-.7 3.4-1.8 4.7-3.1 1.3-1.3 2.3-2.9 3-4.8.7-1.8 1.1-3.9 1.1-6.1z"/><path class="st0" d="M403.4 25.8h6.5l.4 8c1.6-2.8 3.8-5 6.5-6.6 2.8-1.6 5.8-2.4 9.1-2.4 2.9.1 5.6.7 8.1 1.7 2.4 1 4.5 2.5 6.3 4.3 1.8 1.9 3.1 4.1 4.1 6.7 1 2.6 1.5 5.6 1.5 8.8 0 3.3-.5 6.2-1.5 8.9-1 2.6-2.3 4.9-4.1 6.8-1.8 1.9-3.9 3.3-6.4 4.3-2.5 1-5.3 1.5-8.3 1.5-2.9 0-5.8-.7-8.7-2-2.9-1.4-5.2-3.5-6.9-6.3v26.8h-6.7V25.8zm21.8 35.7c4.2 0 7.5-1.3 10-3.9 2.5-2.6 3.8-6.3 3.8-11 0-4.9-1.3-8.6-3.8-11.2-2.5-2.6-5.9-3.8-10-3.8-2.2 0-4.1.4-5.9 1.2-1.8.8-3.3 1.8-4.5 3.2-1.3 1.3-2.2 2.9-2.9 4.8-.7 1.8-1 3.8-1 5.9 0 2.1.4 4.1 1.1 5.9.7 1.8 1.7 3.4 3 4.8s2.8 2.4 4.5 3.1c1.7.6 3.6 1 5.7 1zM489.6 66.9l-.2-7.3c-.8 1.4-1.8 2.6-3 3.6-1.1 1-2.4 1.9-3.7 2.6-1.3.7-2.7 1.2-4.2 1.5s-2.9.5-4.3.5c-2.9 0-5.7-.5-8.3-1.5-2.6-1-4.8-2.4-6.7-4.3-1.9-1.9-3.4-4.1-4.5-6.8s-1.6-5.7-1.6-9c0-3.5.6-6.6 1.7-9.3 1.1-2.7 2.6-4.9 4.5-6.7 1.9-1.8 4.2-3.2 6.7-4.1 2.6-.9 5.3-1.4 8.3-1.4 3.3 0 6.2.7 8.9 2 2.6 1.3 4.8 3.5 6.4 6.4l.1-7.5h6.7v41.2h-6.8zm-15-35.6c-2.1 0-4 .3-5.8 1-1.8.7-3.4 1.7-4.7 3-1.3 1.3-2.4 2.9-3.2 4.8-.8 1.9-1.2 4.1-1.2 6.5 0 2.3.4 4.3 1.2 6.2.8 1.9 1.8 3.4 3.2 4.8 1.3 1.3 2.9 2.3 4.7 3 1.8.7 3.7 1.1 5.8 1.1 3.3 0 6.1-.8 8.3-2.3 2.2-1.5 3.9-3.4 5-5.6 1.1-2.3 1.7-4.7 1.7-7.3 0-2.6-.6-5.1-1.7-7.3-1.1-2.3-2.8-4.1-5-5.6-2.2-1.6-5-2.3-8.3-2.3zM520.6 86.4h-7.5l8.7-20.1-16.7-40.6h7.8L521 47l4.6 11.8 4.3-11.8 9.1-21.4h7.5l-25.9 60.8z"/><g><path class="st0" d="M347.9 119.5c.7-1.2 1.1-2.8 1.1-4.7 0-1.7-.4-3.2-1.1-4.3-.7-1.1-1.8-1.7-3.3-1.7-1.3 0-2.4.5-3.3 1.4-1 .9-1.4 2.5-1.4 4.6 0 1.6.2 2.8.6 3.8.7 1.8 2.1 2.7 4.1 2.7 1.4 0 2.6-.6 3.3-1.8m-10.6-19h2.7v8.2c.6-.8 1.3-1.4 2.2-1.8.8-.4 1.8-.6 2.8-.6 2.1 0 3.7.7 5 2.1 1.3 1.4 1.9 3.5 1.9 6.3 0 2.6-.6 4.8-1.9 6.5-1.3 1.7-3 2.6-5.3 2.6-1.3 0-2.3-.3-3.2-.9-.5-.4-1.1-.9-1.7-1.7v2.1h-2.6v-22.8zM364.3 106.8h3.1c-.4 1.1-1.3 3.5-2.6 7.2-1 2.8-1.8 5.1-2.5 6.9-1.6 4.2-2.7 6.8-3.4 7.7-.7.9-1.8 1.4-3.4 1.4h-.9c-.2 0-.5-.1-.8-.2v-2.5c.5.1.8.2 1 .2h.6c.5 0 .9-.1 1.1-.3l.6-.6c.1-.1.2-.5.6-1.3.3-.8.5-1.3.7-1.7l-6.1-17h3.1l4.4 13.4 4.5-13.2zM399.8 114.2c-.1-2.7-1-4.7-2.7-6.1-1.7-1.4-4-2-6.7-2-1.2 0-2.4.2-3.5.5s-2.1.8-3 1.5c-.9.7-1.6 1.5-2.2 2.5-.6 1-1 2.2-1.3 3.6h19.4zm2.8 11.9c-1.5 1.7-3.3 2.9-5.5 3.7-2.2.8-4.4 1.2-6.6 1.2-2.2 0-4.2-.3-6-1-1.8-.7-3.4-1.7-4.7-2.9-1.3-1.3-2.3-2.8-3-4.7-.7-1.8-1.1-3.9-1.1-6.1 0-2.1.4-4 1.1-5.8.7-1.8 1.7-3.3 3-4.6 1.3-1.3 2.8-2.3 4.6-3 1.8-.7 3.7-1.1 5.9-1.1s4.2.3 6 1c1.8.6 3.4 1.6 4.7 3 1.3 1.3 2.2 3 2.9 5 .6 2 .8 4.4.5 7.2h-24c.1 1.4.5 2.6 1.1 3.6.6 1.1 1.3 2 2.3 2.8.9.8 2 1.3 3.2 1.7 1.2.4 2.5.6 3.8.6.8 0 1.6-.1 2.5-.2.9-.2 1.7-.4 2.5-.6.8-.3 1.5-.6 2.2-1.1.7-.4 1.3-.9 1.7-1.5l2.9 2.8zM410.3 102.6l4.6 10.8 4.7 12.2 4.7-12.1 4.6-10.9h5.1l-11.9 27.9h-5l-12-27.9zM458.7 114.2c-.1-2.7-1-4.7-2.7-6.1-1.7-1.4-4-2-6.7-2-1.2 0-2.4.2-3.5.5s-2.1.8-3 1.5c-.9.7-1.6 1.5-2.2 2.5-.6 1-1 2.2-1.3 3.6h19.4zm2.9 11.9c-1.5 1.7-3.3 2.9-5.6 3.7-2.2.8-4.4 1.2-6.6 1.2-2.2 0-4.2-.3-6-1-1.8-.7-3.4-1.7-4.7-2.9-1.3-1.3-2.3-2.8-3-4.7-.7-1.8-1.1-3.9-1.1-6.1 0-2.1.4-4 1.1-5.8.7-1.8 1.7-3.3 3-4.6 1.3-1.3 2.8-2.3 4.6-3 1.8-.7 3.7-1.1 5.9-1.1s4.2.3 6 1c1.8.6 3.4 1.6 4.7 3 1.3 1.3 2.2 3 2.9 5 .6 2 .8 4.4.5 7.2h-24c.1 1.4.5 2.6 1.1 3.6.6 1.1 1.3 2 2.3 2.8.9.8 2 1.3 3.2 1.7 1.2.4 2.5.6 3.8.6.8 0 1.6-.1 2.5-.2.9-.2 1.7-.4 2.5-.6.8-.3 1.5-.6 2.2-1.1.7-.4 1.3-.9 1.7-1.5l3 2.8zM472.9 106.7c1-1.8 2.3-3 3.9-3.7 1.6-.7 3.2-1 4.7-1 1.2 0 2.4.2 3.5.6 1.1.4 2.1 1 3 1.6l-2.1 4c-.8-.5-1.5-.9-2.3-1.2-.8-.3-1.6-.4-2.6-.4-1.1 0-2.2.2-3.2.6-1 .4-1.9 1-2.6 1.7-.8.7-1.4 1.6-1.8 2.6-.4 1-.7 2.2-.7 3.4v15.6H468v-27.8h4.3l.6 4zM503.4 102.4h8.6v3.9h-8.7v15.2c0 1.7.3 3 .9 3.9.6 1 1.8 1.4 3.5 1.4.6 0 1.3-.1 1.9-.3.6-.2 1.3-.5 1.9-.8l1.4 3.8c-1.8.9-3.6 1.3-5.5 1.4-3.1.1-5.3-.7-6.7-2.4-1.4-1.7-2.1-4-2.1-7.1v-15.2H493v-3.9h5.6v-7.5l4.7-.5v8.1zM538.5 114.2c-.1-2.7-1-4.7-2.7-6.1-1.7-1.4-4-2-6.7-2-1.2 0-2.4.2-3.5.5s-2.1.8-3 1.5c-.9.7-1.6 1.5-2.2 2.5-.6 1-1 2.2-1.3 3.6h19.4zm2.8 11.9c-1.5 1.7-3.3 2.9-5.5 3.7-2.2.8-4.4 1.2-6.6 1.2-2.2 0-4.2-.3-6-1-1.8-.7-3.4-1.7-4.7-2.9-1.3-1.3-2.3-2.8-3-4.7-.7-1.8-1.1-3.9-1.1-6.1 0-2.1.4-4 1.1-5.8.7-1.8 1.7-3.3 3-4.6 1.3-1.3 2.8-2.3 4.6-3 1.8-.7 3.7-1.1 5.9-1.1s4.2.3 6 1c1.8.6 3.4 1.6 4.7 3 1.3 1.3 2.2 3 2.9 5 .6 2 .8 4.4.5 7.2h-24c.1 1.4.5 2.6 1 3.6.6 1.1 1.3 2 2.2 2.8.9.8 2 1.3 3.2 1.7 1.2.4 2.5.6 3.8.6.8 0 1.6-.1 2.5-.2.9-.2 1.7-.4 2.5-.6.8-.3 1.5-.6 2.2-1.1.7-.4 1.3-.9 1.7-1.5l3.1 2.8zM572.5 126.8c-1.5 1.5-3.1 2.6-4.9 3.3-1.8.7-3.6 1-5.5 1-2 0-3.9-.3-5.7-1-1.8-.7-3.3-1.6-4.7-2.8-1.3-1.2-2.4-2.8-3.2-4.6-.8-1.8-1.2-3.9-1.2-6.2 0-2.3.4-4.3 1.1-6.1.8-1.8 1.8-3.3 3.1-4.6 1.3-1.2 2.9-2.2 4.7-2.8 1.8-.7 3.7-1 5.7-1 1.9 0 3.7.3 5.4 1 1.7.7 3.3 1.7 4.8 3.2l-3 3c-1-1-2.1-1.7-3.3-2.1-1.2-.5-2.5-.7-3.7-.7-1.4 0-2.7.2-4 .7-1.2.5-2.3 1.1-3.2 2-.9.9-1.6 1.9-2.2 3.2-.5 1.3-.8 2.7-.8 4.3 0 1.7.3 3.1.8 4.4.5 1.3 1.3 2.3 2.2 3.2.9.9 2 1.5 3.2 2 1.2.5 2.5.7 3.9.7 1.3 0 2.6-.2 3.9-.7 1.3-.5 2.4-1.2 3.4-2.2l3.2 2.8zM577 104.4v.8h.6c.1 0 .2 0 .3-.1.1-.1.1-.2.1-.3 0-.1 0-.2-.1-.3-.1-.1-.2-.1-.3-.1h-.6zm.8 1.1l.7.8v.1h-.5l-.7-.8h-.3v.8h-.4V104h1.1c.2 0 .3 0 .4.1l.3.3c.1.1.1.2.1.3v.4c0 .1-.1.2-.2.3-.2 0-.3.1-.5.1zm-2.2-.3c0 .3 0 .5.1.7.1.2.2.4.4.6.2.2.3.3.6.4.2.1.5.1.8.1.3 0 .5 0 .8-.1.2-.1.4-.2.6-.4.2-.2.3-.4.4-.6.1-.2.1-.5.1-.7 0-.3 0-.5-.1-.7-.1-.2-.2-.4-.4-.6-.2-.2-.3-.3-.6-.4-.2-.1-.5-.1-.8-.1-.3 0-.5.1-.8.1-.2.1-.4.2-.6.4-.2.2-.3.4-.4.6-.1.2-.1.4-.1.7zm1.8-2.3c.4 0 .7.1 1 .2.3.1.5.3.7.5.2.2.3.5.4.7.1.3.2.6.2.9 0 .3 0 .6-.2.9-.1.3-.3.5-.4.7-.2.2-.4.4-.7.5-.3.1-.6.2-1 .2s-.7-.1-1-.2c-.3-.1-.5-.3-.7-.5-.2-.2-.3-.5-.4-.7-.1-.3-.2-.6-.2-.9 0-.3 0-.6.2-.9.1-.3.2-.5.4-.7.2-.2.4-.4.7-.5.3-.1.6-.2 1-.2"/></g><g><path class="st1" d="M88.4 43.3c-1.7-2.9-5.4-3.9-8.3-2.2-2.9 1.7-3.9 5.3-2.2 8.2 1.7 2.9 5.4 3.8 8.3 2.2 2.8-1.6 3.8-5.3 2.2-8.2M67.3 41.7a5.41 5.41 0 00-2 7.4c1.5 2.6 4.8 3.5 7.4 2 2.6-1.5 3.5-4.8 2-7.4-1.5-2.7-4.8-3.5-7.4-2M54.4 42.2c-2.3 1.3-3.1 4.3-1.8 6.6s4.3 3.1 6.6 1.8 3.1-4.3 1.8-6.6c-1.3-2.4-4.3-3.2-6.6-1.8M52.5 38.8c2.1-1.2 2.8-3.8 1.6-5.9-1.2-2.1-3.9-2.8-5.9-1.6-2.1 1.2-2.8 3.8-1.6 5.9 1.1 2.1 3.8 2.8 5.9 1.6M35.3 31.9c-1.8 1-2.4 3.3-1.4 5 1 1.8 3.3 2.4 5.1 1.3 1.8-1 2.4-3.3 1.4-5-1-1.7-3.3-2.4-5.1-1.3M29.1 43.7c-1.5.8-2 2.7-1.1 4.2.9 1.5 2.7 2 4.2 1.1 1.5-.8 2-2.7 1.1-4.2-.8-1.5-2.7-2-4.2-1.1M35.9 55.4c-1.2.7-1.6 2.2-.9 3.4.7 1.2 2.2 1.6 3.4.9 1.2-.7 1.6-2.2.9-3.4-.6-1.2-2.2-1.6-3.4-.9M68.9 37.5c2.4-1.4 3.2-4.3 1.8-6.7-1.4-2.3-4.4-3.1-6.7-1.8-2.4 1.4-3.2 4.3-1.8 6.7 1.4 2.4 4.4 3.2 6.7 1.8M52.8 26.1c1.3 2.2 4.2 3 6.4 1.7s3-4.1 1.7-6.3-4.1-3-6.4-1.7c-2.2 1.2-3 4.1-1.7 6.3M47.4 18.2c-1.2-2-3.7-2.7-5.7-1.5-2 1.1-2.7 3.7-1.5 5.7 1.2 2 3.7 2.7 5.7 1.5 2-1.1 2.7-3.7 1.5-5.7M32.6 27.2c1.9-1.1 2.6-3.5 1.5-5.4-1.1-1.9-3.5-2.5-5.4-1.4-1.9 1.1-2.5 3.5-1.4 5.4 1 1.8 3.4 2.5 5.3 1.4M22.8 36.3c1.7-1 2.3-3.1 1.3-4.7-1-1.7-3.1-2.2-4.8-1.3-1.7.9-2.3 3.1-1.3 4.7 1 1.7 3.1 2.3 4.8 1.3M20 44.9c-.8-1.4-2.6-1.8-3.9-1-1.4.8-1.8 2.5-1.1 3.9.8 1.4 2.6 1.8 3.9 1.1 1.4-.9 1.9-2.6 1.1-4M23.2 58.1c-.7-1.2-2.2-1.6-3.3-.9-1.2.7-1.6 2.2-.9 3.3.7 1.2 2.2 1.6 3.3.9 1.1-.6 1.5-2.2.9-3.3M29.5 66.9c-1.1.6-1.4 2-.8 3 .6 1.1 2 1.4 3.1.8 1.1-.6 1.4-2 .8-3-.6-1-2-1.4-3.1-.8M42.8 70.7c-.9.5-1.2 1.7-.7 2.6.5.9 1.7 1.2 2.6.7.9-.5 1.2-1.7.7-2.6-.5-.9-1.7-1.2-2.6-.7M56.1 67.5c-.8.4-1 1.4-.6 2.2.4.8 1.4 1 2.2.6.8-.4 1-1.4.6-2.2-.5-.8-1.5-1.1-2.2-.6M83.5 37.6c2.6-1.5 3.5-4.8 2-7.4-1.5-2.6-4.9-3.5-7.5-2a5.41 5.41 0 00-2 7.4c1.5 2.6 4.8 3.5 7.5 2M76.4 25.6c2.5-1.4 3.4-4.6 1.9-7.1-1.4-2.5-4.7-3.3-7.2-1.9s-3.4 4.6-1.9 7.1 4.7 3.4 7.2 1.9M65.7 16.5c2.3-1.3 3-4.2 1.7-6.4s-4.2-3-6.4-1.7c-2.3 1.3-3 4.1-1.7 6.4 1.3 2.2 4.1 3 6.4 1.7M52.8 11.7c2.1-1.2 2.9-3.9 1.6-6-1.2-2.1-4-2.8-6.1-1.6-2.1 1.2-2.9 3.9-1.6 6 1.2 2.1 3.9 2.8 6.1 1.6M38.9 11.3c1.9-1.1 2.5-3.5 1.5-5.4C39.3 4 36.9 3.4 35 4.5c-2 1.1-2.6 3.5-1.5 5.4 1.1 1.9 3.5 2.5 5.4 1.4M27.3 10.7c-1-1.8-3.3-2.4-5.1-1.4-1.8 1-2.4 3.3-1.4 5.1 1 1.8 3.3 2.4 5.1 1.4 1.8-1.1 2.4-3.3 1.4-5.1M15.3 24c1.6-.9 2.1-2.9 1.2-4.5-.9-1.6-2.9-2.1-4.5-1.2-1.6.9-2.1 2.9-1.2 4.5.9 1.6 3 2.1 4.5 1.2M5.2 30.2c-1.5.8-2 2.7-1.1 4.2.9 1.5 2.7 2 4.2 1.1 1.5-.8 2-2.7 1.1-4.2-.8-1.5-2.7-2-4.2-1.1M6.7 45C6 43.7 4.3 43.3 3 44c-1.3.7-1.7 2.4-1 3.6.7 1.3 2.4 1.7 3.7 1 1.3-.7 1.7-2.3 1-3.6M5.5 57.5c-1.2.7-1.6 2.2-.9 3.4.7 1.1 2.2 1.5 3.4.8 1.2-.7 1.6-2.2.9-3.3-.7-1.2-2.2-1.6-3.4-.9M12.5 69.5c-1 .6-1.4 1.9-.8 2.9.6 1 1.9 1.3 2.9.8 1-.6 1.4-1.9.8-2.9-.6-1-1.9-1.4-2.9-.8M23.1 78.4c-.9.5-1.2 1.7-.7 2.6.5.9 1.7 1.2 2.6.7.9-.5 1.2-1.7.7-2.6-.6-.9-1.7-1.2-2.6-.7M36.1 83.4c-.8.4-1 1.4-.6 2.2.4.8 1.4 1 2.2.6.8-.4 1-1.4.6-2.2-.5-.8-1.4-1.1-2.2-.6M50.3 83.3c-.8.4-1 1.4-.6 2.2.5.8 1.4 1 2.2.6.8-.5 1-1.4.6-2.2-.5-.8-1.5-1.1-2.2-.6M62.8 78.8c-.7.4-1 1.3-.5 2 .4.7 1.3.9 2 .5s1-1.3.6-2c-.5-.7-1.4-.9-2.1-.5M73.4 70.3c-.6.3-.8 1.1-.4 1.7.3.6 1.1.8 1.7.4.6-.3.8-1.1.4-1.6-.4-.7-1.1-.9-1.7-.5"/></g></svg>