<svg width="202" height="45" viewBox="0 0 202 45" fill="none" xmlns="http://www.w3.org/2000/svg">
<path d="M35.5781 7.96805H37.8494L37.9756 10.7441C38.5434 9.73461 39.3005 8.97751 40.2469 8.47278C41.1933 7.90495 42.2658 7.65259 43.4015 7.65259C44.4109 7.71568 45.3573 7.90495 46.2406 8.22041C47.0608 8.59896 47.8179 9.10369 48.4488 9.73461C49.0797 10.3655 49.5214 11.1857 49.8368 12.069C50.1523 12.9523 50.3416 14.0248 50.3416 15.1605C50.3416 16.2961 50.1523 17.3056 49.8368 18.252C49.5214 19.1983 49.0166 19.9555 48.4488 20.5864C47.8179 21.2173 47.1239 21.722 46.2406 22.1006C45.3573 22.4791 44.4109 22.6053 43.3384 22.6053C42.3289 22.6053 41.3195 22.3529 40.31 21.9113C39.3005 21.4696 38.5434 20.7125 37.9125 19.7031V29.0406H35.5781V7.96805ZM43.1491 20.334C44.6002 20.334 45.7359 19.8924 46.6192 18.946C47.5024 18.0627 47.9441 16.7378 47.9441 15.0974C47.9441 13.3939 47.5024 12.1321 46.6192 11.2488C45.7359 10.3655 44.6002 9.92389 43.1491 9.92389C42.392 9.92389 41.698 10.0501 41.1302 10.3024C40.4993 10.5548 39.9945 10.9334 39.5529 11.375C39.1113 11.8166 38.7958 12.3845 38.5434 13.0154C38.2911 13.6463 38.1649 14.3403 38.1649 15.0974C38.1649 15.8545 38.2911 16.4854 38.5434 17.1794C38.7958 17.8103 39.1113 18.3782 39.5529 18.8198C39.9945 19.2614 40.4993 19.64 41.1302 19.8924C41.7611 20.2078 42.392 20.334 43.1491 20.334Z" fill="white"/>
<path d="M56.2724 22.2268H53.938V1.97437H56.2724V22.2268Z" fill="white"/>
<path d="M72.5501 22.2267L72.487 19.703C72.1715 20.2078 71.8561 20.5863 71.4775 20.9649C71.099 21.3434 70.6573 21.5958 70.2157 21.8482C69.774 22.1005 69.2693 22.2898 68.7646 22.3529C68.2598 22.4791 67.7551 22.5422 67.2504 22.5422C66.2409 22.5422 65.2945 22.3529 64.3482 22.0374C63.4649 21.6589 62.6447 21.2172 62.0138 20.5232C61.3828 19.8923 60.815 19.0721 60.4365 18.1888C60.0579 17.2425 59.8687 16.233 59.8687 15.0343C59.8687 13.8355 60.0579 12.763 60.4365 11.8166C60.815 10.8702 61.3198 10.1131 62.0138 9.48221C62.7078 8.85129 63.4649 8.34656 64.3482 8.0311C65.2314 7.71564 66.1778 7.52637 67.1873 7.52637C68.3229 7.52637 69.3324 7.77873 70.2788 8.22037C71.2251 8.66202 71.9191 9.41912 72.487 10.4286V7.84183H74.8214V22.1636H72.5501V22.2267ZM67.3135 9.86076C66.6195 9.86076 65.9254 9.98694 65.2945 10.2393C64.6636 10.4917 64.0958 10.8071 63.6541 11.2488C63.2125 11.6904 62.834 12.2582 62.5816 12.8892C62.3292 13.5832 62.203 14.2772 62.203 15.1605C62.203 15.9806 62.3292 16.6746 62.5816 17.3056C62.834 17.9365 63.2125 18.5043 63.6541 18.9459C64.0958 19.3876 64.6636 19.7661 65.2945 20.0185C65.9254 20.2709 66.6195 20.3971 67.3135 20.3971C68.4491 20.3971 69.4586 20.1447 70.2157 19.64C70.9728 19.1352 71.5406 18.4412 71.9822 17.6841C72.3608 16.927 72.5501 16.0437 72.5501 15.1605C72.5501 14.2141 72.3608 13.3939 71.9822 12.6368C71.6037 11.8797 71.0359 11.1857 70.2157 10.6809C69.4586 10.1131 68.5122 9.86076 67.3135 9.86076Z" fill="white"/>
<path d="M91.162 20.397C90.4049 21.1541 89.5847 21.7219 88.7014 22.1005C87.8181 22.479 86.8718 22.6052 85.8623 22.6052C84.8528 22.6052 83.8434 22.4159 82.9601 22.1005C82.0768 21.785 81.2566 21.2803 80.5626 20.6494C79.8686 20.0184 79.3639 19.2613 78.9853 18.315C78.6068 17.3686 78.4175 16.296 78.4175 15.1604C78.4175 13.9616 78.6068 12.9522 78.9853 12.0058C79.3639 11.0594 79.9317 10.3023 80.5626 9.67142C81.2566 9.0405 82.0137 8.53577 82.9601 8.22031C83.8434 7.90485 84.8528 7.71558 85.8623 7.71558C86.8718 7.71558 87.755 7.90485 88.6383 8.22031C89.4585 8.59886 90.2787 9.10359 91.0989 9.86069L89.5847 11.438C89.08 10.9332 88.5121 10.5547 87.8812 10.3654C87.2503 10.1131 86.6194 9.98687 85.9885 9.98687C85.2945 9.98687 84.6005 10.1131 83.9695 10.3654C83.3386 10.6178 82.7708 10.9332 82.3292 11.3749C81.8875 11.8165 81.509 12.3844 81.2566 13.0153C81.0042 13.6462 80.8781 14.4033 80.8781 15.2235C80.8781 16.0437 81.0042 16.8008 81.2566 17.4948C81.509 18.1257 81.8875 18.6935 82.3923 19.1352C82.8339 19.5768 83.4017 19.8923 84.0326 20.1446C84.6636 20.397 85.2945 20.5232 85.9885 20.5232C86.6825 20.5232 87.3134 20.397 88.0074 20.1446C88.6383 19.8923 89.2692 19.5137 89.774 19.009L91.162 20.397Z" fill="white"/>
<path d="M106.682 20.0185C105.925 20.9018 104.979 21.5327 103.843 21.9744C102.707 22.416 101.572 22.6053 100.499 22.6053C99.4267 22.6053 98.4172 22.416 97.4708 22.1006C96.5244 21.722 95.7674 21.2804 95.0733 20.5864C94.3793 19.9555 93.8746 19.1353 93.4961 18.1889C93.1175 17.2425 92.9282 16.233 92.9282 15.0343C92.9282 13.9617 93.1175 12.9523 93.4961 12.069C93.8746 11.1857 94.3793 10.3655 95.0102 9.73461C95.6412 9.10369 96.4614 8.53587 97.3446 8.22041C98.2279 7.84186 99.2374 7.65259 100.31 7.65259C101.382 7.65259 102.392 7.84186 103.338 8.15732C104.285 8.47278 105.042 8.97751 105.736 9.67152C106.367 10.3655 106.871 11.2488 107.187 12.2583C107.502 13.3308 107.565 14.5296 107.439 15.9176H95.2626C95.3257 16.6116 95.515 17.2425 95.7673 17.8103C96.0828 18.3782 96.4614 18.8198 96.903 19.1983C97.3446 19.5769 97.9125 19.8924 98.4803 20.0816C99.1112 20.2709 99.7421 20.3971 100.436 20.3971C100.815 20.3971 101.256 20.334 101.698 20.2709C102.14 20.2078 102.581 20.0816 102.96 19.9555C103.338 19.8293 103.717 19.64 104.095 19.3876C104.474 19.1353 104.726 18.8829 104.979 18.6305L106.682 20.0185ZM105.231 13.9617C105.168 12.5737 104.726 11.5012 103.843 10.8072C102.96 10.1132 101.824 9.73461 100.436 9.73461C99.8052 9.73461 99.2374 9.7977 98.6696 9.98698C98.1017 10.1763 97.597 10.4286 97.1554 10.7441C96.7137 11.1226 96.3352 11.5012 96.0197 12.069C95.7043 12.5737 95.515 13.2046 95.3888 13.8987H105.231V13.9617Z" fill="white"/>
<path d="M114.759 7.90491H119.175V9.92384H114.759V17.7472C114.759 18.5674 114.948 19.2614 115.263 19.7661C115.579 20.2709 116.147 20.5232 117.03 20.5232C117.345 20.5232 117.661 20.4601 118.039 20.334C118.355 20.2078 118.67 20.0816 119.049 19.9554L119.743 21.9112C118.796 22.3529 117.913 22.6052 116.967 22.6052C115.389 22.6683 114.254 22.2267 113.56 21.4065C112.866 20.5232 112.487 19.3245 112.487 17.7472V9.92384H109.522V7.90491H112.361V4.05632L114.759 3.80396V7.90491Z" fill="#F36E21"/>
<path d="M121.319 15.0973C121.319 14.0247 121.509 13.0152 121.887 12.0689C122.266 11.1225 122.77 10.3654 123.464 9.67138C124.095 9.04046 124.916 8.47264 125.799 8.15718C126.682 7.77863 127.692 7.58936 128.764 7.58936C129.837 7.58936 130.846 7.77863 131.729 8.15718C132.676 8.53573 133.433 9.04046 134.127 9.67138C134.821 10.3023 135.326 11.1225 135.704 12.0689C136.083 13.0152 136.272 14.0247 136.272 15.0973C136.272 16.1698 136.083 17.1793 135.704 18.1257C135.326 19.072 134.821 19.8291 134.127 20.46C133.433 21.091 132.676 21.6588 131.729 21.9742C130.783 22.3528 129.837 22.5421 128.764 22.5421C127.692 22.5421 126.682 22.3528 125.799 21.9742C124.916 21.5957 124.095 21.091 123.464 20.46C122.77 19.8291 122.266 19.0089 121.887 18.1257C121.509 17.2424 121.319 16.2329 121.319 15.0973ZM133.811 15.0973C133.811 14.2771 133.685 13.5831 133.433 12.9521C133.181 12.3212 132.802 11.7534 132.36 11.3118C131.919 10.8701 131.351 10.4916 130.783 10.2392C130.152 9.98684 129.521 9.86065 128.764 9.86065C128.007 9.86065 127.376 9.98684 126.745 10.2392C126.114 10.4916 125.61 10.8701 125.168 11.3118C124.726 11.7534 124.348 12.3212 124.095 12.9521C123.843 13.5831 123.717 14.3402 123.717 15.0973C123.717 15.8544 123.843 16.5484 124.095 17.2424C124.348 17.8733 124.726 18.4411 125.168 18.8828C125.61 19.3244 126.114 19.7029 126.745 19.9553C127.376 20.2077 128.007 20.3339 128.764 20.3339C129.521 20.3339 130.152 20.2077 130.783 19.9553C131.414 19.7029 131.982 19.3244 132.423 18.8828C132.865 18.4411 133.244 17.8733 133.496 17.2424C133.685 16.6115 133.811 15.9174 133.811 15.0973Z" fill="#F36E21"/>
<path d="M139.868 7.96805H142.139L142.266 10.7441C142.833 9.73461 143.591 8.97751 144.537 8.47278C145.483 7.90495 146.556 7.65259 147.692 7.65259C148.701 7.71568 149.647 7.90495 150.531 8.22041C151.351 8.59896 152.108 9.10369 152.739 9.73461C153.37 10.3655 153.811 11.1857 154.127 12.069C154.442 12.9523 154.632 14.0248 154.632 15.1605C154.632 16.2961 154.442 17.3056 154.127 18.252C153.811 19.1983 153.307 19.9555 152.739 20.5864C152.108 21.2173 151.414 21.722 150.531 22.1006C149.647 22.4791 148.701 22.6053 147.628 22.6053C146.619 22.6053 145.609 22.3529 144.6 21.9113C143.591 21.4696 142.833 20.7125 142.203 19.7031V29.0406H139.868V7.96805ZM147.439 20.334C148.89 20.334 150.026 19.8924 150.909 18.946C151.792 18.0627 152.234 16.7378 152.234 15.0974C152.234 13.3939 151.792 12.1321 150.909 11.2488C150.026 10.3655 148.89 9.92389 147.439 9.92389C146.682 9.92389 145.988 10.0501 145.42 10.3024C144.789 10.5548 144.285 10.9334 143.843 11.375C143.401 11.8166 143.086 12.3845 142.833 13.0154C142.581 13.6463 142.455 14.3403 142.455 15.0974C142.455 15.8545 142.581 16.4854 142.833 17.1794C143.086 17.8103 143.401 18.3782 143.843 18.8198C144.285 19.2614 144.789 19.64 145.42 19.8924C146.051 20.2078 146.745 20.334 147.439 20.334Z" fill="white"/>
<path d="M169.837 22.2267L169.774 19.703C169.459 20.2078 169.143 20.5863 168.765 20.9649C168.386 21.3434 167.944 21.5958 167.503 21.8482C167.061 22.1005 166.556 22.2898 166.052 22.3529C165.547 22.4791 165.042 22.5422 164.537 22.5422C163.528 22.5422 162.582 22.3529 161.635 22.0374C160.752 21.6589 159.932 21.2172 159.301 20.5232C158.67 19.8923 158.102 19.0721 157.724 18.1888C157.345 17.2425 157.156 16.233 157.156 15.0343C157.156 13.8355 157.345 12.763 157.724 11.8166C158.102 10.8702 158.607 10.1131 159.301 9.48221C159.995 8.85129 160.752 8.34656 161.635 8.0311C162.519 7.71564 163.465 7.52637 164.474 7.52637C165.61 7.52637 166.62 7.77873 167.566 8.22037C168.512 8.66202 169.206 9.41912 169.774 10.4286V7.84183H172.108V22.1636H169.837V22.2267ZM164.601 9.86076C163.907 9.86076 163.213 9.98694 162.582 10.2393C161.951 10.4917 161.383 10.8071 160.941 11.2488C160.5 11.6904 160.121 12.2582 159.869 12.8892C159.616 13.5832 159.49 14.2772 159.49 15.1605C159.49 15.9806 159.616 16.6746 159.869 17.3056C160.121 17.9365 160.5 18.5043 160.941 18.9459C161.383 19.3876 161.951 19.7661 162.582 20.0185C163.213 20.2709 163.907 20.3971 164.601 20.3971C165.736 20.3971 166.746 20.1447 167.503 19.64C168.26 19.1352 168.828 18.4412 169.269 17.6841C169.648 16.927 169.837 16.0437 169.837 15.1605C169.837 14.2141 169.648 13.3939 169.269 12.6368C168.891 11.8797 168.323 11.1857 167.503 10.6809C166.746 10.1131 165.736 9.86076 164.601 9.86076Z" fill="white"/>
<path d="M180.562 29.0405H177.976L181.004 22.0373L175.2 7.96788H177.913L180.752 15.3496L182.329 19.4505L183.843 15.3496L186.998 7.90479H189.585L180.562 29.0405Z" fill="white"/>
<path d="M120.626 40.5233C120.878 40.0817 121.004 39.5769 121.004 38.8829C121.004 38.252 120.878 37.8104 120.626 37.3687C120.373 36.9902 119.995 36.8009 119.49 36.8009C119.048 36.8009 118.67 36.9902 118.354 37.3056C118.039 37.6211 117.85 38.1889 117.85 38.8829C117.85 39.4507 117.913 39.8293 118.039 40.2078C118.291 40.8388 118.796 41.1542 119.49 41.1542C119.932 41.1542 120.373 40.9649 120.626 40.5233ZM116.903 33.8987H117.85V36.8009C118.039 36.5485 118.291 36.2962 118.607 36.17C118.922 36.0438 119.238 35.9807 119.553 35.9807C120.247 35.9807 120.878 36.2331 121.32 36.7378C121.761 37.2425 122.014 37.9365 122.014 38.8829C122.014 39.7662 121.824 40.5233 121.383 41.1542C120.941 41.7851 120.31 42.0375 119.553 42.0375C119.112 42.0375 118.733 41.9113 118.418 41.722C118.228 41.5959 118.039 41.4066 117.85 41.1542V41.9113H116.966V33.8987H116.903Z" fill="white"/>
<path d="M126.304 36.1069H127.377C127.251 36.4855 126.935 37.3057 126.494 38.6306C126.115 39.6401 125.863 40.3972 125.61 41.0281C125.042 42.4792 124.664 43.3625 124.412 43.6779C124.159 43.9934 123.781 44.1827 123.213 44.1827C123.087 44.1827 122.96 44.1827 122.897 44.1827C122.834 44.1827 122.708 44.1827 122.645 44.1196V43.2363C122.834 43.2994 122.96 43.2994 123.024 43.2994C123.087 43.2994 123.15 43.2994 123.213 43.2994C123.402 43.2994 123.528 43.2994 123.591 43.2363C123.654 43.1732 123.718 43.1101 123.781 43.047C123.781 43.047 123.844 42.8577 123.97 42.6054C124.096 42.353 124.159 42.1637 124.222 42.0375L122.077 36.17H123.15L124.664 40.8388L126.304 36.1069Z" fill="white"/>
<path d="M138.607 38.6938C138.607 37.7474 138.292 37.0534 137.661 36.5487C137.03 36.107 136.273 35.8547 135.326 35.8547C134.885 35.8547 134.506 35.9178 134.127 36.0439C133.749 36.1701 133.37 36.3594 133.055 36.5487C132.739 36.801 132.487 37.0534 132.298 37.432C132.109 37.8105 131.919 38.1891 131.856 38.6938H138.607ZM139.616 42.7947C139.112 43.3626 138.481 43.8042 137.661 44.1197C136.904 44.372 136.146 44.5613 135.389 44.5613C134.632 44.5613 133.938 44.4351 133.307 44.1828C132.676 43.9304 132.109 43.6149 131.667 43.1733C131.225 42.7317 130.847 42.1638 130.594 41.5329C130.342 40.902 130.216 40.208 130.216 39.3878C130.216 38.6307 130.342 37.9998 130.594 37.3689C130.847 36.738 131.225 36.2332 131.667 35.7916C132.109 35.3499 132.676 34.9714 133.244 34.7821C133.875 34.5297 134.569 34.4036 135.263 34.4036C136.02 34.4036 136.714 34.5297 137.345 34.719C137.976 34.9714 138.544 35.2868 138.986 35.7285C139.427 36.1701 139.743 36.801 139.995 37.4951C140.184 38.1891 140.247 39.0093 140.184 39.9556H131.856C131.919 40.3973 132.045 40.8389 132.235 41.2175C132.424 41.596 132.676 41.9115 132.992 42.1638C133.307 42.4162 133.686 42.6055 134.064 42.7947C134.506 42.9209 134.948 42.984 135.389 42.984C135.642 42.984 135.957 42.984 136.273 42.9209C136.588 42.8578 136.84 42.7947 137.156 42.6686C137.408 42.5424 137.661 42.4162 137.913 42.29C138.165 42.1638 138.355 41.9746 138.544 41.7853L139.616 42.7947Z" fill="white"/>
<path d="M142.266 34.656L143.843 38.3784L145.484 42.6055L147.124 38.4415L148.701 34.656H150.531L146.367 44.309H144.6L140.5 34.656H142.266Z" fill="white"/>
<path d="M159.112 38.6938C159.112 37.7474 158.796 37.0534 158.165 36.5487C157.597 36.107 156.777 35.8547 155.831 35.8547C155.389 35.8547 155.011 35.9178 154.632 36.0439C154.253 36.1701 153.875 36.3594 153.559 36.5487C153.244 36.801 152.992 37.0534 152.802 37.432C152.613 37.8105 152.424 38.1891 152.361 38.6938H159.112ZM160.058 42.7947C159.553 43.3626 158.922 43.8042 158.102 44.1197C157.345 44.372 156.588 44.5613 155.831 44.5613C155.074 44.5613 154.38 44.4351 153.749 44.1828C153.118 43.9304 152.55 43.6149 152.108 43.1733C151.667 42.7317 151.288 42.1638 151.036 41.5329C150.783 40.902 150.657 40.208 150.657 39.3878C150.657 38.6307 150.783 37.9998 151.036 37.3689C151.288 36.738 151.604 36.2332 152.108 35.7916C152.55 35.3499 153.118 34.9714 153.686 34.7821C154.317 34.5297 155.011 34.4036 155.705 34.4036C156.462 34.4036 157.156 34.5297 157.787 34.719C158.417 34.9714 158.985 35.2868 159.427 35.7285C159.869 36.1701 160.184 36.801 160.436 37.4951C160.626 38.1891 160.689 39.0093 160.626 39.9556H152.298C152.361 40.3973 152.487 40.8389 152.676 41.2175C152.865 41.596 153.118 41.9115 153.433 42.1638C153.749 42.4162 154.127 42.6055 154.506 42.7947C154.947 42.9209 155.326 42.984 155.831 42.984C156.083 42.984 156.399 42.984 156.714 42.9209C157.029 42.8578 157.282 42.7947 157.597 42.6686C157.85 42.5424 158.165 42.4162 158.354 42.29C158.607 42.1638 158.796 41.9746 158.985 41.7853L160.058 42.7947Z" fill="white"/>
<path d="M164.033 36.0439C164.411 35.413 164.853 34.9714 165.358 34.7821C165.925 34.5297 166.43 34.4036 166.998 34.4036C167.44 34.4036 167.818 34.4667 168.197 34.5928C168.575 34.719 168.954 34.9083 169.269 35.1607L168.512 36.5487C168.26 36.3594 168.007 36.2332 167.692 36.107C167.44 36.0439 167.124 35.9809 166.809 35.9809C166.43 35.9809 166.052 36.0439 165.673 36.1701C165.358 36.2963 165.042 36.4856 164.79 36.738C164.537 36.9903 164.348 37.3058 164.159 37.6212C164.033 37.9998 163.906 38.3783 163.906 38.82V44.2459H162.266V34.6559H163.78L164.033 36.0439Z" fill="white"/>
<path d="M174.632 34.5928H177.66V35.9808H174.632V41.2174C174.632 41.7852 174.758 42.2269 174.947 42.6054C175.136 42.9209 175.578 43.1102 176.146 43.1102C176.398 43.1102 176.588 43.0471 176.84 42.984C177.092 42.9209 177.282 42.7947 177.534 42.7316L178.039 44.0565C177.408 44.372 176.777 44.4982 176.146 44.4982C175.073 44.4982 174.316 44.2458 173.812 43.678C173.307 43.1102 173.054 42.29 173.054 41.2174V35.9177H171.099V34.5297H173.054V31.9429L174.695 31.7537V34.5928H174.632Z" fill="white"/>
<path d="M186.809 38.6938C186.809 37.7474 186.493 37.0534 185.862 36.5487C185.295 36.107 184.474 35.8547 183.528 35.8547C183.086 35.8547 182.708 35.9178 182.329 36.0439C181.951 36.1701 181.572 36.3594 181.257 36.5487C180.941 36.801 180.689 37.0534 180.5 37.432C180.31 37.8105 180.121 38.1891 180.058 38.6938H186.809ZM187.755 42.7947C187.25 43.3626 186.619 43.8042 185.799 44.1197C185.042 44.372 184.285 44.5613 183.528 44.5613C182.771 44.5613 182.077 44.4351 181.446 44.1828C180.815 43.9304 180.247 43.6149 179.806 43.1733C179.364 42.7317 178.985 42.1638 178.733 41.5329C178.481 40.902 178.354 40.208 178.354 39.3878C178.354 38.6307 178.481 37.9998 178.733 37.3689C178.985 36.738 179.364 36.2332 179.806 35.7916C180.247 35.3499 180.815 34.9714 181.383 34.7821C182.014 34.5297 182.708 34.4036 183.402 34.4036C184.159 34.4036 184.853 34.5297 185.484 34.719C186.115 34.9714 186.683 35.2868 187.124 35.7285C187.566 36.1701 187.881 36.801 188.134 37.4951C188.323 38.1891 188.386 39.0093 188.323 39.9556H179.995C180.058 40.3973 180.184 40.8389 180.373 41.2175C180.563 41.596 180.815 41.9115 181.131 42.1638C181.446 42.4162 181.825 42.6055 182.203 42.7947C182.645 42.9209 183.086 42.984 183.528 42.984C183.78 42.984 184.096 42.984 184.411 42.9209C184.727 42.8578 184.979 42.7947 185.295 42.6686C185.547 42.5424 185.862 42.4162 186.052 42.29C186.304 42.1638 186.493 41.9746 186.683 41.7853L187.755 42.7947Z" fill="white"/>
<path d="M198.607 43.047C198.102 43.5517 197.534 43.9303 196.904 44.1827C196.273 44.435 195.642 44.5612 194.948 44.5612C194.254 44.5612 193.56 44.435 192.992 44.2458C192.361 43.9934 191.856 43.6779 191.352 43.2363C190.91 42.7946 190.531 42.2899 190.279 41.659C190.027 41.0281 189.9 40.3341 189.9 39.5139C189.9 38.6937 190.027 37.9997 190.279 37.3688C190.531 36.7379 190.91 36.2331 191.352 35.7915C191.793 35.3498 192.361 35.0344 192.992 34.782C193.623 34.5296 194.254 34.4666 195.011 34.4666C195.705 34.4666 196.336 34.5927 196.904 34.8451C197.471 35.0975 198.039 35.476 198.544 35.9177L197.471 36.9902C197.156 36.6748 196.714 36.4224 196.336 36.2331C195.894 36.1069 195.452 35.9808 195.011 35.9808C194.506 35.9808 194.064 36.0438 193.623 36.2331C193.181 36.4224 192.803 36.6117 192.487 36.9271C192.172 37.2426 191.919 37.6211 191.73 38.0628C191.541 38.5044 191.478 39.0091 191.478 39.5139C191.478 40.0817 191.541 40.5864 191.73 41.0281C191.919 41.4697 192.172 41.8483 192.487 42.1637C192.803 42.4792 193.181 42.6685 193.623 42.8577C194.064 42.9839 194.506 43.1101 194.948 43.1101C195.389 43.1101 195.894 43.047 196.336 42.8577C196.777 42.6685 197.156 42.4161 197.534 42.1006L198.607 43.047Z" fill="white"/>
<path d="M200.184 35.2868V35.5392H200.436C200.499 35.5392 200.499 35.5392 200.562 35.4761L200.625 35.413C200.625 35.3499 200.625 35.3499 200.562 35.3499C200.562 35.3499 200.499 35.2868 200.436 35.2868H200.184ZM200.436 35.6654L200.688 35.9177V35.9808H200.499L200.247 35.6654H200.121V35.9808H199.994V35.1606H200.373C200.436 35.1606 200.499 35.1606 200.499 35.2237C200.562 35.2237 200.562 35.2868 200.625 35.2868C200.625 35.3499 200.688 35.3499 200.688 35.413C200.688 35.4761 200.688 35.4761 200.688 35.5392C200.688 35.6023 200.625 35.6023 200.625 35.6654C200.562 35.6023 200.499 35.6654 200.436 35.6654ZM199.679 35.5392C199.679 35.6023 199.679 35.7285 199.742 35.7916C199.742 35.8546 199.805 35.9177 199.868 35.9808C199.931 36.0439 199.994 36.107 200.057 36.107C200.121 36.1701 200.247 36.1701 200.31 36.1701C200.436 36.1701 200.499 36.1701 200.562 36.107C200.625 36.0439 200.688 36.0439 200.751 35.9808C200.815 35.9177 200.815 35.8546 200.878 35.7916C200.878 35.7285 200.941 35.6023 200.941 35.5392C200.941 35.4761 200.941 35.3499 200.878 35.2868C200.878 35.2237 200.815 35.1606 200.751 35.0975C200.688 35.0345 200.625 34.9714 200.562 34.9714C200.499 34.9083 200.373 34.9083 200.31 34.9083C200.184 34.9083 200.121 34.9083 200.057 34.9714C199.994 35.0345 199.931 35.0345 199.868 35.0975C199.805 35.1606 199.742 35.2237 199.742 35.2868C199.679 35.3499 199.679 35.4761 199.679 35.5392ZM200.31 34.719C200.436 34.719 200.562 34.719 200.625 34.7821C200.751 34.8452 200.815 34.9083 200.878 34.9714C200.941 35.0345 201.004 35.1606 201.004 35.2237C201.067 35.3499 201.067 35.413 201.067 35.5392C201.067 35.6654 201.067 35.7285 201.004 35.8546C200.941 35.9808 200.941 36.0439 200.878 36.107C200.815 36.1701 200.751 36.2332 200.625 36.2963C200.499 36.3594 200.436 36.3594 200.31 36.3594C200.184 36.3594 200.057 36.3594 199.994 36.2963C199.868 36.2332 199.805 36.1701 199.742 36.107C199.679 36.0439 199.616 35.9177 199.616 35.8546C199.553 35.7285 199.553 35.6654 199.553 35.5392C199.553 35.413 199.553 35.3499 199.616 35.2237C199.679 35.0975 199.679 35.0345 199.742 34.9714C199.805 34.9083 199.868 34.8452 199.994 34.7821C200.057 34.7821 200.184 34.719 200.31 34.719Z" fill="white"/>
<path d="M30.4676 14.088C29.8997 13.0786 28.5748 12.7631 27.5653 13.3309C26.5559 13.8988 26.2404 15.1606 26.8082 16.1701C27.3761 17.1795 28.701 17.495 29.7105 16.9272C30.7199 16.3593 31.0354 15.0344 30.4676 14.088Z" fill="#F36E21"/>
<path d="M23.1488 13.4572C22.2655 13.9619 21.95 15.0976 22.4548 16.0439C22.9595 16.9272 24.1582 17.2427 25.0415 16.738C25.9248 16.2332 26.2402 15.0976 25.7355 14.1512C25.2308 13.2679 24.032 12.9525 23.1488 13.4572Z" fill="#F36E21"/>
<path d="M18.6687 13.6464C17.8485 14.0881 17.5961 15.0975 18.0378 15.9177C18.4794 16.7379 19.552 16.9903 20.3091 16.5486C21.1293 16.107 21.3816 15.0975 20.94 14.2773C20.4984 13.4572 19.4889 13.2048 18.6687 13.6464Z" fill="#F36E21"/>
<path d="M17.9747 12.5106C18.6687 12.069 18.921 11.1857 18.5425 10.4917C18.1008 9.7977 17.2176 9.54533 16.4605 9.92388C15.7665 10.3655 15.5141 11.2488 15.8926 11.9428C16.3343 12.6368 17.2806 12.8892 17.9747 12.5106Z" fill="#F36E21"/>
<path d="M12.0447 10.1132C11.4138 10.4917 11.2245 11.2488 11.54 11.8797C11.9185 12.5107 12.6756 12.6999 13.3066 12.3214C13.9375 11.9428 14.1267 11.1857 13.8113 10.5548C13.4327 9.9239 12.6756 9.73462 12.0447 10.1132Z" fill="#F36E21"/>
<path d="M9.89947 14.1511C9.39474 14.4666 9.20547 15.0975 9.52092 15.6022C9.83638 16.107 10.4673 16.2962 10.972 15.9808C11.4768 15.6653 11.666 15.0344 11.3506 14.5297C11.0351 14.088 10.4042 13.8988 9.89947 14.1511Z" fill="#F36E21"/>
<path d="M12.2336 18.2521C11.792 18.5045 11.6658 19.0092 11.9182 19.4509C12.1705 19.8925 12.6753 20.0187 13.1169 19.7663C13.5586 19.5139 13.6847 19.0092 13.4324 18.5676C13.2431 18.189 12.6753 17.9998 12.2336 18.2521Z" fill="#F36E21"/>
<path d="M23.7164 12.069C24.5366 11.6274 24.789 10.5548 24.3473 9.73462C23.8426 8.91443 22.8331 8.66207 22.0129 9.10371C21.1928 9.54535 20.9404 10.6179 21.382 11.4381C21.8868 12.2583 22.8962 12.5107 23.7164 12.069Z" fill="#F36E21"/>
<path d="M18.1013 8.09422C18.5429 8.85132 19.5524 9.10369 20.3095 8.66205C21.0666 8.22041 21.319 7.21094 20.8773 6.45384C20.4357 5.69674 19.4262 5.44438 18.6691 5.88602C17.9751 6.32766 17.6596 7.27403 18.1013 8.09422Z" fill="#F36E21"/>
<path d="M16.2716 5.31844C15.893 4.62443 15.0098 4.37207 14.3158 4.81371C13.6217 5.19226 13.3694 6.07554 13.811 6.76955C14.1896 7.46355 15.1359 7.71592 15.7669 7.27428C16.3978 6.89573 16.6501 6.01245 16.2716 5.31844Z" fill="#F36E21"/>
<path d="M11.098 8.4728C11.7289 8.09425 11.9812 7.27406 11.6027 6.58005C11.2241 5.94914 10.4039 5.69677 9.70994 6.07532C9.07902 6.45387 8.82665 7.27406 9.2052 7.96807C9.58375 8.59898 10.467 8.85135 11.098 8.4728Z" fill="#F36E21"/>
<path d="M7.69127 11.6273C8.2591 11.3118 8.44837 10.5547 8.13292 9.98692C7.81746 9.41909 7.06036 9.22982 6.49253 9.54528C5.92471 9.86074 5.73543 10.6178 6.05089 11.1857C6.36635 11.7535 7.12345 11.9428 7.69127 11.6273Z" fill="#F36E21"/>
<path d="M6.7448 14.5926C6.49243 14.0879 5.86152 13.9617 5.35678 14.2141C4.85205 14.4664 4.72587 15.0974 4.97823 15.539C5.2306 16.0437 5.86152 16.1699 6.36625 15.9175C6.87098 15.6652 6.99717 15.0974 6.7448 14.5926Z" fill="#F36E21"/>
<path d="M7.81748 19.1984C7.56512 18.8199 7.06038 18.6306 6.68183 18.883C6.30328 19.1353 6.11401 19.6401 6.36637 20.0186C6.61874 20.3972 7.12347 20.5864 7.50202 20.3341C7.94367 20.0817 8.06985 19.577 7.81748 19.1984Z" fill="#F36E21"/>
<path d="M10.0258 22.2269C9.6472 22.4161 9.52102 22.9209 9.77339 23.2994C9.96266 23.678 10.4674 23.8042 10.8459 23.5518C11.2245 23.3625 11.3507 22.8578 11.1614 22.4792C10.909 22.1638 10.4043 22.0376 10.0258 22.2269Z" fill="#F36E21"/>
<path d="M14.6313 23.5518C14.3159 23.7411 14.1897 24.1196 14.379 24.4351C14.5682 24.7506 14.9468 24.8767 15.2623 24.6875C15.5777 24.4982 15.7039 24.1196 15.5146 23.8042C15.3884 23.4887 14.9468 23.3625 14.6313 23.5518Z" fill="#F36E21"/>
<path d="M19.2365 22.4161C18.9841 22.5423 18.8579 22.9209 19.0472 23.1732C19.1734 23.4256 19.5519 23.5518 19.8043 23.3625C20.0567 23.2363 20.1828 22.8578 19.9936 22.6054C19.8674 22.353 19.5519 22.2899 19.2365 22.4161Z" fill="#F36E21"/>
<path d="M28.7639 12.069C29.6472 11.5643 29.9626 10.3655 29.4579 9.48225C28.9531 8.59897 27.7544 8.28351 26.8711 8.78825C25.9247 9.29298 25.6724 10.4917 26.1771 11.375C26.6818 12.2583 27.8806 12.5737 28.7639 12.069Z" fill="#F36E21"/>
<path d="M26.3027 7.90489C27.186 7.40015 27.4383 6.3276 26.9967 5.44431C26.492 4.56103 25.3563 4.30867 24.5361 4.8134C23.6528 5.31813 23.4005 6.39069 23.9052 7.27397C24.3468 8.09416 25.4825 8.40962 26.3027 7.90489Z" fill="#F36E21"/>
<path d="M22.581 4.75039C23.3381 4.30875 23.6535 3.29928 23.2119 2.54218C22.7702 1.78509 21.7608 1.46963 21.0037 1.97436C20.2466 2.416 19.9311 3.42547 20.3728 4.18257C20.8144 4.93967 21.8239 5.19203 22.581 4.75039Z" fill="#F36E21"/>
<path d="M18.1012 3.04709C18.8583 2.60545 19.1107 1.65908 18.669 0.965072C18.2274 0.207972 17.281 -0.044394 16.5239 0.397247C15.7668 0.838888 15.5144 1.78526 15.9561 2.47927C16.3977 3.23637 17.3441 3.48874 18.1012 3.04709Z" fill="#F36E21"/>
<path d="M13.3066 2.9208C13.9375 2.54225 14.1899 1.72206 13.8113 1.02805C13.4328 0.397136 12.6126 0.14477 11.9186 0.523319C11.2246 0.901869 11.0353 1.72206 11.4138 2.41607C11.7924 3.11007 12.6126 3.29935 13.3066 2.9208Z" fill="#F36E21"/>
<path d="M9.26881 2.73149C8.89026 2.10058 8.13316 1.9113 7.50224 2.22676C6.87133 2.60531 6.68205 3.36241 6.99751 3.99332C7.37606 4.62424 8.13316 4.81351 8.76408 4.43496C9.39499 4.11951 9.64736 3.36241 9.26881 2.73149Z" fill="#F36E21"/>
<path d="M5.10475 7.33711C5.67257 7.02166 5.86184 6.32765 5.54639 5.75982C5.23093 5.25509 4.53692 5.06582 3.9691 5.38127C3.40127 5.69673 3.212 6.39074 3.52746 6.95856C3.84291 7.4633 4.53692 7.65257 5.10475 7.33711Z" fill="#F36E21"/>
<path d="M1.63434 9.48235C1.1296 9.79781 0.940328 10.4287 1.25579 10.9335C1.57124 11.4382 2.20216 11.6275 2.70689 11.312C3.21163 10.9965 3.4009 10.3656 3.08544 9.8609C2.76998 9.35617 2.13907 9.16689 1.63434 9.48235Z" fill="#F36E21"/>
<path d="M2.13902 14.656C1.88665 14.2144 1.31883 14.0882 0.877187 14.3405C0.435545 14.5929 0.309362 15.1607 0.561729 15.6024C0.814095 16.044 1.38192 16.1702 1.82356 15.9178C2.20211 15.6655 2.39138 15.0976 2.13902 14.656Z" fill="#F36E21"/>
<path d="M1.69795 18.9461C1.3194 19.1985 1.13012 19.7032 1.38249 20.0817C1.63485 20.5234 2.13959 20.6496 2.58123 20.3972C3.02287 20.1448 3.14905 19.6401 2.89669 19.2615C2.64432 18.883 2.13959 18.7568 1.69795 18.9461Z" fill="#F36E21"/>
<path d="M4.15797 23.1732C3.77942 23.3625 3.71633 23.8041 3.9056 24.1826C4.09488 24.5612 4.53652 24.6243 4.91507 24.435C5.29362 24.2457 5.4198 23.8041 5.16743 23.4255C4.91507 23.047 4.47342 22.9839 4.15797 23.1732Z" fill="#F36E21"/>
<path d="M7.81737 26.2647C7.50191 26.454 7.37573 26.8325 7.565 27.148C7.75428 27.4635 8.13283 27.5896 8.44829 27.4004C8.76375 27.2111 8.88993 26.8325 8.70065 26.5171C8.51138 26.2016 8.13283 26.0754 7.81737 26.2647Z" fill="#F36E21"/>
<path d="M12.297 27.9681C12.0446 28.0943 11.9185 28.4728 12.1077 28.7252C12.2339 28.9776 12.6125 29.1037 12.8648 28.9145C13.1172 28.7883 13.2434 28.4097 13.0541 28.1574C12.9279 27.905 12.6125 27.7788 12.297 27.9681Z" fill="#F36E21"/>
<path d="M17.2179 27.9051C16.9655 28.0313 16.8394 28.4099 17.0286 28.6622C17.1548 28.9146 17.5334 29.0408 17.7857 28.8515C18.0381 28.7253 18.1643 28.3468 17.975 28.0944C17.8488 27.842 17.5334 27.7789 17.2179 27.9051Z" fill="#F36E21"/>
<path d="M21.5717 26.3909C21.3193 26.5171 21.2562 26.8326 21.3824 27.0849C21.5086 27.3373 21.8241 27.4004 22.0764 27.2742C22.3288 27.148 22.3919 26.8326 22.2657 26.5802C22.1395 26.3278 21.8241 26.2017 21.5717 26.3909Z" fill="#F36E21"/>
<path d="M25.2939 23.4255C25.1046 23.5517 25.0415 23.8041 25.1677 23.9933C25.2939 24.1826 25.5462 24.2457 25.7355 24.1195C25.9248 23.9933 25.9879 23.741 25.8617 23.5517C25.7355 23.3624 25.4832 23.2993 25.2939 23.4255Z" fill="#F36E21"/>
</svg>
